<svg xmlns="http://www.w3.org/2000/svg" xmlns:xlink="http://www.w3.org/1999/xlink" width="150" height="150" viewBox="0 0 150 150">
  <defs>
    <clipPath id="clip-path">
      <rect id="Rectangle_1156" data-name="Rectangle 1156" width="95" height="95" transform="translate(25 25)" fill="#fff" stroke="#707070" stroke-width="1"/>
    </clipPath>
    <clipPath id="clip-Mobile">
      <rect width="150" height="150"/>
    </clipPath>
  </defs>
  <g id="Mobile" clip-path="url(#clip-Mobile)">
    <circle id="Ellipse_181" data-name="Ellipse 181" cx="75" cy="75" r="75" fill="#e6e6e6"/>
    <g id="Mask_Group_461" data-name="Mask Group 461" transform="translate(3 3)" clip-path="url(#clip-path)">
      <path id="phone" d="M87.5,62.55a54.265,54.265,0,0,1-17.04-2.71,7.314,7.314,0,0,0-7.415,1.57l-10.79,8.14a60.259,60.259,0,0,1-26.81-26.805l7.925-10.53a7.565,7.565,0,0,0,1.855-7.65A54.326,54.326,0,0,1,32.5,7.5,7.5,7.5,0,0,0,25,0H7.5A7.5,7.5,0,0,0,0,7.5,87.6,87.6,0,0,0,87.5,95,7.5,7.5,0,0,0,95,87.5V70.05A7.5,7.5,0,0,0,87.5,62.55Z" transform="translate(25 25)" fill="#9d9d9d"/>
    </g>
  </g>
</svg>
