<svg xmlns="http://www.w3.org/2000/svg" xmlns:xlink="http://www.w3.org/1999/xlink" width="350" height="50" viewBox="0 0 350 50">
  <defs>
    <clipPath id="clip-path">
      <rect id="Rectangle_3326" data-name="Rectangle 3326" width="130" height="50" transform="translate(98.885 448)" fill="#fff" stroke="#707070" stroke-width="1"/>
    </clipPath>
    <clipPath id="clip-path-2">
      <rect id="Rectangle_3329" data-name="Rectangle 3329" width="130" height="50" transform="translate(240 97)" fill="#fff" stroke="#707070" stroke-width="1"/>
    </clipPath>
  </defs>
  <g id="plaidwyre" transform="translate(-20 -97)">
    <g id="Mask_Group_1573" data-name="Mask Group 1573" transform="translate(-78.885 -351)" clip-path="url(#clip-path)">
      <g id="Plaid_logo" transform="translate(98.97 448.872)">
        <path id="Path_62876" data-name="Path 62876" d="M101.1,25.668Q99.471,24.3,95.534,24.3H89.613V42.568H94.04V36.842h1.983q3.61,0,5.3-1.588a6.19,6.19,0,0,0,1.9-4.738,6,6,0,0,0-2.119-4.849m-5.188,7.041H94.04V28.433h1.683q3.07,0,3.07,2.151,0,2.123-2.88,2.124M110.8,24.3H106.18V42.567h9.967V38.432H110.8Zm14.4,0-7.252,18.269h4.97l.95-2.656h6.3l.869,2.656h5.026l-7.2-18.269Zm-.055,11.915,1.9-6.245,1.872,6.245h-3.775Z" transform="translate(-32.96 -8.959)" fill="#111" fill-rule="evenodd"/>
        <path id="Path_62877" data-name="Path 62877" d="M105.4,33.608h4.617V15.338H105.4Zm22.543-14.845a7.582,7.582,0,0,0-2.2-2.109,10.648,10.648,0,0,0-5.7-1.315h-6.083V33.608h7.116a8.039,8.039,0,0,0,6.192-2.519A9.439,9.439,0,0,0,129.6,24.4a9.486,9.486,0,0,0-1.656-5.642m-7.387,10.709h-1.982v-10h2.01a4.074,4.074,0,0,1,3.259,1.322,5.555,5.555,0,0,1,1.142,3.746q0,4.93-4.428,4.93M19.17,0,4.207,3.913.083,18.938l5.157,5.287L0,29.425,3.881,44.516l14.9,4.157,5.242-5.2,5.157,5.286,14.963-3.913,4.123-15.026-5.156-5.285,5.241-5.2L44.467,4.242,29.567.085l-5.24,5.2ZM9.988,6.8,17.87,4.741l3.447,3.533L16.29,13.261Zm17.3,1.518,3.5-3.475,7.848,2.19-6.4,6.354ZM4.806,17.7,6.977,9.791l6.3,6.458L8.251,21.237,4.806,17.7ZM35.2,16.428l6.4-6.356,2.043,7.949-3.5,3.476L35.2,16.428ZM19.252,16.3l5.027-4.987,4.944,5.07L24.2,21.367Zm-8.037,7.975,5.026-4.987,4.947,5.07L16.16,29.342l-4.945-5.07Zm15.946.13,5.026-4.987,4.945,5.07-5.027,4.987L27.161,24.4ZM4.7,30.737,8.2,27.26l4.944,5.071-6.4,6.353L4.7,30.737Zm14.422,1.641,5.027-4.987,4.945,5.07-5.026,4.987-4.946-5.07Zm15.945.131,5.027-4.987,3.447,3.532-2.17,7.914-6.3-6.458ZM9.707,41.722l6.4-6.356,4.947,5.07-3.5,3.477L9.707,41.721Zm17.324-1.239L32.057,35.5l6.3,6.459-7.881,2.061Z" fill="#111" fill-rule="evenodd"/>
      </g>
    </g>
    <g id="Mask_Group_1575" data-name="Mask Group 1575" clip-path="url(#clip-path-2)">
      <g id="WyreLogo" transform="translate(240 100.284)">
        <g id="WyreLogoColor">
          <g id="Shape">
            <path id="Path_62881" data-name="Path 62881" d="M-44.162-77.968c3.969.547,6.433-.182,8.3-2.053a16.569,16.569,0,0,0,2.874-4.015c3.194-5.885,10.949-20.074,10.949-20.074H-27.6L-33.4-92.476-35.22-104.11h-5.931v.274s2.007,10.63,3.011,16.1a4.727,4.727,0,0,1-1.141,4.243,4.439,4.439,0,0,1-4.06,1.049l-.821,4.471Zm-4.425-26.141-5.383,12.227-.137-.046-.73-11.862h-5.885l-5.7,11.907-.137-.091-.228-12.135H-72.4l1.095,19.481h6.068l5.885-12.683h.137l.912,12.683h6.113l8.851-19.481ZM-16.2-84.629h-5.885c1.323-6.57,2.555-12.911,3.878-19.481h4.562v3.6a5.923,5.923,0,0,1,2.874-3.467,9.024,9.024,0,0,1,5.7.091c-.867,1.688-1.506,3.148-2.464,4.973A24.026,24.026,0,0,0-9.9-99.365a3.077,3.077,0,0,0-3.559,2.144,23.951,23.951,0,0,0-.912,3.559c-.639,3.011-1.186,6.022-1.825,9.033ZM2.646-99.456a3.522,3.522,0,0,1,3.467-1.232,1.809,1.809,0,0,1,.867,3.011,3.25,3.25,0,0,1-1.232.821,8.066,8.066,0,0,1-4.425.228,6.24,6.24,0,0,1,1.323-2.829Zm7.528,9.991H9.991a10.9,10.9,0,0,1-6.478.593,3.466,3.466,0,0,1-2.646-4.06c5.657.456,8.075-.593,9.4-1.369,3.513-2.1,4.38-7.71-.182-9.353-4.015-1.46-9.626-.776-12.272,2.418a12.4,12.4,0,0,0-2.737,9.718c.274,2.692,2.1,6.524,8.121,7.163a14.045,14.045,0,0,0,6.159-.639l.821-4.471Z" transform="translate(116.793 114.968)" fill="#061027"/>
            <path id="Path_62882" data-name="Path 62882" d="M-94.666-93.252H-81.3L-88.507-75.6a6.494,6.494,0,0,1-6.022,4.06H-107.9l7.208-17.656a6.426,6.426,0,0,1,6.022-4.06" transform="translate(116.793 114.968)" fill="#94c5ff"/>
            <path id="Path_62883" data-name="Path 62883" d="M-81.3-93.252l-8.121,10.311a6.545,6.545,0,0,1-5.292,2.692h-9.718l3.7-8.988a6.522,6.522,0,0,1,6.022-4.015H-81.3Z" transform="translate(116.793 114.968)" fill="#1a32af"/>
            <path id="Path_62884" data-name="Path 62884" d="M-99.137-104.11H-85.77l-7.208,17.656A6.494,6.494,0,0,1-99-82.394h-13.367l7.208-17.656a6.541,6.541,0,0,1,6.022-4.06" transform="translate(116.793 114.968)" fill="#0092ff"/>
            <path id="Path_62885" data-name="Path 62885" d="M-85.724-104.11-93.845-93.8a6.545,6.545,0,0,1-5.292,2.692h-9.718l3.7-8.988a6.522,6.522,0,0,1,6.022-4.015h13.413Z" transform="translate(116.793 114.968)" fill="#1a32af"/>
            <path id="Path_62886" data-name="Path 62886" d="M-103.562-114.968h13.367L-97.4-97.312a6.494,6.494,0,0,1-6.022,4.06h-13.367l7.208-17.656a6.494,6.494,0,0,1,6.022-4.06" transform="translate(116.793 114.968)" fill="#05f"/>
          </g>
        </g>
      </g>
    </g>
    <path id="primary" d="M2.185-19.067H12.1v4.272H2.185v11.23H-2.356v-11.23h-9.912v-4.272h9.912V-29.443H2.185Z" transform="translate(195.085 138.504)" fill="#5d48f8"/>
  </g>
</svg>
