<svg xmlns="http://www.w3.org/2000/svg" xmlns:xlink="http://www.w3.org/1999/xlink" width="70" height="70" viewBox="0 0 70 70">
  <defs>
    <clipPath id="clip-path">
      <rect id="Rectangle_3710" data-name="Rectangle 3710" width="46" height="46" transform="translate(809 270)" fill="#fff" stroke="#707070" stroke-width="1"/>
    </clipPath>
  </defs>
  <g id="Plaid_icon" data-name="Plaid icon" transform="translate(-799 -260)">
    <rect id="Rectangle_3709" data-name="Rectangle 3709" width="70" height="70" rx="14" transform="translate(799 260)" fill="#f7f7f7"/>
    <g id="Mask_Group_1677" data-name="Mask Group 1677" transform="translate(2 2)" clip-path="url(#clip-path)">
      <path id="_6241d2000091a3ce7f88ca80_Plaid__company_-Vertical-Logo.wine" data-name="6241d2000091a3ce7f88ca80_Plaid_(company)-Vertical-Logo.wine" d="M33.2,23.638,29.3,19.743l3.061-3.061,2.082,2.082Zm-.834-10.629L29.3,9.948,33.2,6.054l1.249,4.874ZM26.489,2.968l4.873,1.248L27.468,8.112,24.407,5.051ZM20.734,5.051,17.673,8.112,13.778,4.217l4.873-1.249Zm-8.793,1,3.895,3.895-3.061,3.061-2.083-2.083Zm.834,10.629,3.061,3.061-3.895,3.895-1.249-4.873Zm5.876,10.041-4.874-1.249,3.895-3.895,3.061,3.061Zm6.98-6.98L22.57,22.8l-3.061-3.061,3.061-3.061Zm1.837-7.959,3.061,3.061-3.061,3.061-3.061-3.061Zm-6.734,3.061-3.061,3.061-3.061-3.061,3.061-3.061Zm-1.224-4.9L22.57,6.887l3.061,3.061L22.57,13.009Zm4.9,14.692,3.061-3.061,3.895,3.895-4.873,1.248Zm10.637,2.678,2.372-9.259L34.2,14.846l3.214-3.214L35.044,2.372,25.784,0,22.57,3.214,19.356,0,10.1,2.372,7.725,11.632l3.214,3.214L7.725,18.06,10.1,27.319l9.26,2.372,3.214-3.214,3.214,3.214Zm8.74,9.64a4.626,4.626,0,0,0-1.351-1.284,6.587,6.587,0,0,0-3.5-.8H35.193V46h4.37a4.96,4.96,0,0,0,3.8-1.534A5.72,5.72,0,0,0,44.8,40.4a5.741,5.741,0,0,0-1.017-3.436m-4.537,6.522H38.029V37.393h1.235a2.511,2.511,0,0,1,2,.8,3.367,3.367,0,0,1,.7,2.281q0,3-2.718,3M29.94,46h2.836V34.875H29.94ZM21.85,34.874,17.4,46h3.052l.584-1.618H24.9L25.435,46h3.087L24.1,34.874Zm-.033,7.256,1.168-3.8,1.15,3.8ZM13.01,34.874H10.174V46H16.3V43.481H13.01Zm-5.954.834a5.4,5.4,0,0,0-3.419-.834H0V46H2.719V42.514H3.936a4.638,4.638,0,0,0,3.252-.968,3.749,3.749,0,0,0,1.167-2.885,3.64,3.64,0,0,0-1.3-2.952M3.869,40H2.719v-2.6H3.753q1.885,0,1.885,1.309Q5.637,40,3.869,40" transform="translate(809.6 270)" fill="#111212"/>
    </g>
  </g>
</svg>
