<svg xmlns="http://www.w3.org/2000/svg" xmlns:xlink="http://www.w3.org/1999/xlink" width="1429" height="744" viewBox="0 0 1429 744">
  <defs>
    <clipPath id="clip-path">
      <rect id="Rectangle_1146" data-name="Rectangle 1146" width="255" height="255" rx="26" transform="translate(0)" fill="#5336ff"/>
    </clipPath>
    <clipPath id="clip-path-2">
      <rect id="Rectangle_1134" data-name="Rectangle 1134" width="322.51" height="750.15" fill="#fff" stroke="#707070" stroke-width="0.274"/>
    </clipPath>
    <clipPath id="clip-path-3">
      <rect id="Rectangle_9" data-name="Rectangle 9" width="15.406" height="16.317" fill="#f5ba3d" stroke="#707070" stroke-width="0.293"/>
    </clipPath>
    <clipPath id="clip-path-5">
      <rect id="Rectangle_1146-2" data-name="Rectangle 1146" width="255" height="255" rx="26" transform="translate(1806 2096)" fill="#5336ff"/>
    </clipPath>
    <clipPath id="clip-path-6">
      <rect id="Rectangle_1134-2" data-name="Rectangle 1134" width="322.51" height="750.15" transform="translate(0)" fill="#fff" stroke="#707070" stroke-width="0.274"/>
    </clipPath>
    <clipPath id="clip-path-8">
      <rect id="Rectangle_1145" data-name="Rectangle 1145" width="255" height="255" rx="26" transform="translate(0)" fill="#fff"/>
    </clipPath>
    <clipPath id="clip-path-9">
      <rect id="Rectangle_1139" data-name="Rectangle 1139" width="394.021" height="751.029" fill="#fff" stroke="#707070" stroke-width="0.27"/>
    </clipPath>
    <clipPath id="clip-path-10">
      <rect id="Rectangle_906" data-name="Rectangle 906" width="368.037" height="751.43" fill="#fff" stroke="#707070" stroke-width="0.828"/>
    </clipPath>
    <clipPath id="clip-path-11">
      <rect id="Rectangle_1143" data-name="Rectangle 1143" width="255" height="255" rx="26" transform="translate(241 2283)" fill="#fff" stroke="#707070" stroke-width="1"/>
    </clipPath>
    <clipPath id="clip-path-13">
      <rect id="Rectangle_1139-2" data-name="Rectangle 1139" width="394.021" height="751.028" fill="#fff" stroke="#707070" stroke-width="0.27"/>
    </clipPath>
    <clipPath id="clip-path-14">
      <rect id="Rectangle_906-2" data-name="Rectangle 906" width="368.037" height="751.429" fill="#fff" stroke="#707070" stroke-width="0.828"/>
    </clipPath>
    <clipPath id="clip-invite_friends">
      <rect width="1429" height="744"/>
    </clipPath>
  </defs>
  <g id="invite_friends" clip-path="url(#clip-invite_friends)">
    <g id="square1" transform="translate(230.655 5.48)">
      <path id="Path_1763" data-name="Path 1763" d="M26,0H229a26,26,0,0,1,26,26V229a26,26,0,0,1-26,26H26A26,26,0,0,1,0,229V26A26,26,0,0,1,26,0Z" transform="translate(7 46.518)" fill="#98f"/>
      <path id="Subtraction_4" data-name="Subtraction 4" d="M0,225.331H0V26A25.978,25.978,0,0,1,26,0H229a25.937,25.937,0,0,1,19.523,8.829L0,225.331Z" transform="translate(7.476 45.52)" fill="#fff" opacity="0.09"/>
      <g id="Mask_Group_456" data-name="Mask Group 456" transform="translate(0 46.518)" clip-path="url(#clip-path)">
        <g id="Mask_Group_452" data-name="Mask Group 452" transform="translate(7.213 -63)" clip-path="url(#clip-path-2)">
          <g id="Group_1241" data-name="Group 1241" transform="translate(0.961 63.005)">
            <g id="Group_1239" data-name="Group 1239" transform="translate(0 0)">
              <path id="Path_367" data-name="Path 367" d="M.238,79.562c-2.724,48.053,19.024,92.165,8.321,121.2s-12.646,44.847,3.221,64.7S52.9,287.505,81.367,270.02s23.121-66.451,60.308-99.6,45.734-91.5,11.165-120.143S-9.5-17.489,19.446,8.543,2.959,31.508.238,79.562Z" transform="translate(225.24 278.99) rotate(169)" fill="#5a2c1f"/>
              <path id="Path_1593" data-name="Path 1593" d="M0,87.479,40.208,14.818S86.124,6.1,97.725,12.028,88.869,30.04,88.869,30.04L27.988,91.516Z" transform="matrix(0.208, -0.978, 0.978, 0.208, 119.218, 222.967)" fill="#cc8a59" opacity="0.998"/>
              <g id="Group_1149" data-name="Group 1149" transform="translate(15.93 0)">
                <g id="Group_1148" data-name="Group 1148" transform="translate(0 19.054)">
                  <g id="neck" transform="translate(98.458 56.315)">
                    <rect id="Rectangle_2" data-name="Rectangle 2" width="31.649" height="49.393" fill="#e3a976"/>
                    <path id="Intersection_2" data-name="Intersection 2" d="M21.335,33.262A46.586,46.586,0,0,1,0,11.018V0H31.649V36.069a28.136,28.136,0,0,1-10.314-2.807Z" transform="translate(0 10.291)" fill="#cc8a59"/>
                  </g>
                  <g id="face" transform="translate(82.42)">
                    <path id="Path_4" data-name="Path 4" d="M216.546,328.011c-8.746-21.61,4.431-43.713,12.341-47.918s25.415-10.97,39.144-3.352,23.889,16.718,20.787,39.35-19.876,52.336-32.837,51.784S225.293,349.63,216.546,328.011Z" transform="translate(-213.659 -273.289)" fill="#e3a976"/>
                    <path id="Intersection_1" data-name="Intersection 1" d="M0,0A26.372,26.372,0,0,1,5.632,2.314C19.359,9.929,29.52,19.028,26.419,41.652,23.816,60.667,11.543,84.681,0,91.526Z" transform="translate(48.744 1.19)" fill="#cc8a59"/>
                    <path id="Path_6" data-name="Path 6" d="M232.6,287.965l6.057,16.052-9.531,7.532Z" transform="translate(-184.574 -238.617)" fill="#e3a976"/>
                    <path id="Path_7" data-name="Path 7" d="M238.173,290.139l-.681-.766a10.984,10.984,0,0,0-7.089-3.743,51.7,51.7,0,0,0-10.491,1.688" transform="translate(-201.212 -239.035)" fill="none" stroke="#360e0e" stroke-width="1.5"/>
                    <path id="Path_8" data-name="Path 8" d="M219.912,290.139s3.165-4.509,6.906-4.509a41.294,41.294,0,0,1,9.32,1.688" transform="translate(-167.287 -239.035)" fill="none" stroke="#360e0e" stroke-width="1.5"/>
                    <path id="Path_9" data-name="Path 9" d="M2.705,0c1.5.011,4.091,1.282,4.1,2.993a2.793,2.793,0,0,1-.77,2.113A2.9,2.9,0,0,1,3.941,6C2.242,6.013.022,4.784.008,3.076A2.876,2.876,0,0,1,2.705,0Z" transform="translate(26.738 48.281) rotate(-19.033)" fill="#360e0e"/>
                    <path id="Path_1638" data-name="Path 1638" d="M2.705,0c1.5.011,4.091,1.282,4.1,2.993a2.793,2.793,0,0,1-.77,2.113A2.9,2.9,0,0,1,3.941,6C2.242,6.013.022,4.784.008,3.076A2.876,2.876,0,0,1,2.705,0Z" transform="translate(58.387 48.281) rotate(-19.033)" fill="#360e0e"/>
                    <path id="Path_11" data-name="Path 11" d="M26.976,2.942,25.8,6.059A31.761,31.761,0,0,0,13.657,2.092,40.534,40.534,0,0,0,0,3.934,26.185,26.185,0,0,1,12.221,0,43.544,43.544,0,0,1,26.976,2.942Z" transform="translate(13.402 36.19) rotate(4.012)" fill="#5a2c1f"/>
                    <path id="Path_12" data-name="Path 12" d="M20.745,3.115,19.836,0A21.1,21.1,0,0,1,10.5,3.972,24.671,24.671,0,0,1,0,2.135,17.443,17.443,0,0,0,9.4,6.064,27.109,27.109,0,0,0,20.745,3.115Z" transform="translate(72.068 42.672) rotate(175.988)" fill="#5a2c1f"/>
                    <path id="Path_13" data-name="Path 13" d="M240.245,298.474c-.361.023-1.494.043-2.515,0-1.705-.031-1.517.115-4.538,0s-7.545-.461-7.545-.461,5.789,7.874,12.083,8.555,9.262-7.063,9.262-7.063a24.533,24.533,0,0,0-6.747-1.03Z" transform="translate(-191.601 -223.224)" fill="#be4851"/>
                  </g>
                  <path id="primary" d="M223.928,313.521l22.169-6.555h34.312s11.791,1.488,17.512,6.555c8.475,7.493,11.463,15.913,22.653,33.9,17.788,28.607-2.812,34.244-7.385,64.882s0,64.3,0,64.3H212.908L243.8,405.627s-24.217-45.48-24.217-68.5S223.928,313.521,223.928,313.521Z" transform="translate(-149.253 -201.722)" fill="#5d48f8"/>
                  <path id="Path_24" data-name="Path 24" d="M219.745,306.079v3.685L209.6,312.553s28.758,41.918,54.35,41.953c26.378-5.664.884-38.772-2.6-41.953-.555-.508-10.073-2.041-10.073-2.041Z" transform="translate(-121.073 -205.504)" fill="#e3a976"/>
                  <path id="Path_25" data-name="Path 25" d="M0,18.958,27.283,95.547s28.675,18.7,36.948,12.539-8.183-33.806-8.183-33.806L18.175,0Z" transform="translate(55.814 254.758) rotate(-146.993)" fill="#e3a976" opacity="0.998"/>
                  <path id="Path_29" data-name="Path 29" d="M233.049,310.041s-8.163-1.08-14.865,7.531-14.424,30-9.583,42.62,17.734,6.05,28.949,7.871c.641.108,2.84,2.46,3.61,2.338,9.627-1.528,3.735-25.031,3.7-26.472s-3.606-15.633-5.774-23.507" transform="translate(-156.211 -198.189)" fill="#e3a976"/>
                </g>
                <path id="Path_1590" data-name="Path 1590" d="M0,39.3S23.965,52.231,40.517,52.388c9.152.087,15.57-9.852,19.933-16.423S86.083,4.945,86.083,4.945l-3.756,7.372C87.468,20.684,80,26.7,78.583,36.142,75.925,51.2,75.5,69.706,56.513,76.244c-15.919,3.138-11.194-3.912-18.391-4.216-9.053-.372-15.477.134-23.911-4.421C.085,59.976,0,39.3,0,39.3Z" transform="matrix(-0.891, 0.454, -0.454, -0.891, 165.705, 71.399)" fill="#5a2c1f"/>
                <path id="Path_1591" data-name="Path 1591" d="M39,61.878l-4.147-24.77S35.165,22.457,20,1.169C15.012-5.834,1.674,20.92,1.674,20.92S-6.487,57.987,13.233,69.1,39,61.878,39,61.878Z" transform="matrix(-0.682, 0.731, -0.731, -0.682, 171.172, 49.582)" fill="#5a2c1f"/>
              </g>
            </g>
          </g>
        </g>
      </g>
      <path id="Path_1594" data-name="Path 1594" d="M.9,67.108c-2.769-7.33-.613-25.287,28.227-37.893S92.522,0,92.522,0l7.052,9.568S68.237,36.585,39.094,57.284,3.653,74.435.9,67.108Z" transform="matrix(0.755, -0.656, 0.656, 0.755, 170.517, 238.772)" fill="#cc8a59"/>
      <path id="Path_1595" data-name="Path 1595" d="M25.3,4.586s5.14,20.39,4.23,25.234-9.376-4.592-9.376-4.592S17.494,45.046,12.575,46.29-.746,36.832.053,25.151,13.991,0,13.991,0Z" transform="matrix(-0.996, 0.087, -0.087, -0.996, 265.944, 180.532)" fill="#cc8a59"/>
      <g id="Group_1240" data-name="Group 1240" transform="translate(228.703 118)">
        <g id="Rectangle_1119" data-name="Rectangle 1119" transform="matrix(-0.946, 0.326, -0.326, -0.946, 46.356, 52.802)" fill="#fff">
          <path d="M 23.58304786682129 54.84433746337891 C 23.58296203613281 54.84433746337891 23.5830192565918 54.84433746337891 23.58293151855469 54.84433746337891 L 23.54062080383301 54.84417724609375 L 6.704091548919678 54.71639633178711 C 3.766101360321045 54.69409561157227 1.357811331748962 52.34075546264648 1.335591316223145 49.47039794921875 L 1.000161290168762 6.134886264801025 C 0.9896913170814514 4.781506538391113 1.509981274604797 3.506016254425049 2.465201377868652 2.543376445770264 C 3.452781200408936 1.548126339912415 4.784611225128174 1.000016331672668 6.215371131896973 1.000016331672668 L 6.25766134262085 1.000176310539246 L 23.09419059753418 1.127956390380859 C 26.03217124938965 1.150256395339966 28.44048118591309 3.50360631942749 28.46270179748535 6.373966217041016 L 28.79812049865723 49.70947647094727 C 28.80859184265137 51.06288528442383 28.28828048706055 52.33840560913086 27.33303070068359 53.30105590820312 C 26.34551239013672 54.29622650146484 25.01366996765137 54.84433746337891 23.58304786682129 54.84433746337891 Z" stroke="none"/>
          <path d="M 23.58304214477539 53.84433746337891 C 24.74506187438965 53.84433746337891 25.82473182678223 53.40120697021484 26.62316131591797 52.59657669067383 C 27.38926124572754 51.82452774047852 27.80654144287109 50.80194473266602 27.79815101623535 49.71721649169922 L 27.46273040771484 6.381706237792969 C 27.44471168518066 4.054346561431885 25.48159217834473 2.146106243133545 23.08660125732422 2.127926349639893 L 6.24959135055542 2.000146389007568 L 6.215371131896973 2.000016450881958 C 5.053191184997559 2.000016450881958 3.973451375961304 2.44313645362854 3.175041198730469 3.24773645401001 C 2.40899133682251 4.019736289978027 1.991741299629211 5.042336463928223 2.000131368637085 6.127146244049072 L 2.335561275482178 49.4626579284668 C 2.35357141494751 51.79001617431641 4.316691398620605 53.69824600219727 6.711681365966797 53.71642684936523 L 23.54869079589844 53.84420776367188 L 23.58291053771973 53.84433746337891 L 23.58304214477539 53.84433746337891 M 23.58291435241699 55.84433746337891 C 23.56634712219238 55.84433364868164 23.54962921142578 55.84427261352539 23.53303146362305 55.84414672851562 L 6.6965012550354 55.71636581420898 C 3.209941387176514 55.68990707397461 0.3620813190937042 52.89695739746094 0.3356212973594666 49.4781379699707 L 0.0001913116429932415 6.142626285552979 C -0.02614271827042103 2.740082502365112 2.751913785934448 1.702514600765426e-05 6.215367794036865 1.702514600765426e-05 C 6.231935024261475 1.702514600765426e-05 6.248652935028076 8.039184467634186e-05 6.265251159667969 0.0002063610882032663 L 23.10178184509277 0.1279863566160202 C 26.58834075927734 0.1544463634490967 29.43620109558105 2.94740629196167 29.46267127990723 6.366226196289062 L 29.79809188842773 49.70173645019531 C 29.82442474365234 53.10427856445312 27.0463695526123 55.84440612792969 23.58291435241699 55.84433746337891 Z" stroke="none" fill="#434343"/>
        </g>
        <path id="Path_1684" data-name="Path 1684" d="M6.44,11.137S6.2,23.536,4.2,24.444.684,18.18.068,12.076A29.965,29.965,0,0,1,1.738,0Z" transform="matrix(-0.994, 0.105, -0.105, -0.994, 12.648, 46.951)" fill="#cc8a59"/>
        <path id="Path_1685" data-name="Path 1685" d="M.964,2.9l11.509.083c.577,0,.471-.789.467-1.358S12.4.245,11.814.241L1.189,0C.612,0,0,1.058,0,1.627S.381,2.895.964,2.9Z" transform="matrix(-0.946, 0.326, -0.326, -0.946, 21.119, 6.587)" fill="#434343"/>
        <g id="Mask_Group_2" data-name="Mask Group 2" transform="matrix(0.94, -0.342, 0.342, 0.94, 13.446, 24.99)" clip-path="url(#clip-path-3)">
          <g id="gift_2_" data-name="gift (2)" transform="translate(0 0.508)">
            <path id="Path_8-2" data-name="Path 8" d="M11.669,1.828C11.21.919,10.661.457,10.036.457c-.72,0-1.467.623-2.223,1.852-.1.157-.187.315-.271.466-.084-.152-.174-.309-.271-.466C6.517,1.08,5.769.457,5.049.457c-.625,0-1.175.46-1.633,1.371a1.48,1.48,0,0,0-.055,1.458A2.763,2.763,0,0,0,5.382,4.363a12.106,12.106,0,0,0,2.125.178h.074a12.106,12.106,0,0,0,2.125-.178,2.76,2.76,0,0,0,2.021-1.077,1.481,1.481,0,0,0-.057-1.458Z" transform="translate(0.161 -0.457)" fill="#da4453"/>
            <path id="Path_9-2" data-name="Path 9" d="M14.4,6.432a.662.662,0,0,0-.642-.68H1.559a.662.662,0,0,0-.642.68v8.049a.662.662,0,0,0,.642.68h12.2a.662.662,0,0,0,.642-.68Z" transform="translate(0.046 0.138)" fill="#ffca3b"/>
            <path id="Path_10" data-name="Path 10" d="M15.406,7.288a.662.662,0,0,1-.642.68H.642A.662.662,0,0,1,0,7.288v-3.4a.662.662,0,0,1,.642-.68H14.764a.662.662,0,0,1,.642.68Z" transform="translate(0 -0.147)" fill="#ffdb57"/>
            <rect id="Rectangle_10" data-name="Rectangle 10" width="3.21" height="4.759" transform="translate(6.098 3.061)" fill="#ed5564"/>
            <path id="Path_11-2" data-name="Path 11" d="M.917,8.156H14.4V7.506H.917Z" transform="translate(0.046 0.336)" opacity="0.134"/>
            <rect id="Rectangle_11" data-name="Rectangle 11" width="3.21" height="7.479" transform="translate(6.098 7.82)" fill="#da4453"/>
            <path id="Path_12-2" data-name="Path 12" d="M5.805,8.156h3.21V7.506H5.805Z" transform="translate(0.293 0.336)" opacity="0.134"/>
          </g>
        </g>
        <g id="Mask_Group_2-2" data-name="Mask Group 2" transform="matrix(0.94, -0.342, 0.342, 0.94, 13.446, 24.99)" clip-path="url(#clip-path-3)">
          <g id="gift_2_2" data-name="gift (2)" transform="translate(0 0.508)">
            <path id="Path_8-3" data-name="Path 8" d="M11.669,1.828C11.21.919,10.661.457,10.036.457c-.72,0-1.467.623-2.223,1.852-.1.157-.187.315-.271.466-.084-.152-.174-.309-.271-.466C6.517,1.08,5.769.457,5.049.457c-.625,0-1.175.46-1.633,1.371a1.48,1.48,0,0,0-.055,1.458A2.763,2.763,0,0,0,5.382,4.363a12.106,12.106,0,0,0,2.125.178h.074a12.106,12.106,0,0,0,2.125-.178,2.76,2.76,0,0,0,2.021-1.077,1.481,1.481,0,0,0-.057-1.458Z" transform="translate(0.161 -0.457)" fill="#da4453"/>
            <path id="Path_9-3" data-name="Path 9" d="M14.4,6.432a.662.662,0,0,0-.642-.68H1.559a.662.662,0,0,0-.642.68v8.049a.662.662,0,0,0,.642.68h12.2a.662.662,0,0,0,.642-.68Z" transform="translate(0.046 0.138)" fill="#ffca3b"/>
            <path id="Path_10-2" data-name="Path 10" d="M15.406,7.288a.662.662,0,0,1-.642.68H.642A.662.662,0,0,1,0,7.288v-3.4a.662.662,0,0,1,.642-.68H14.764a.662.662,0,0,1,.642.68Z" transform="translate(0 -0.147)" fill="#ffdb57"/>
            <rect id="Rectangle_10-2" data-name="Rectangle 10" width="3.21" height="4.759" transform="translate(6.098 3.061)" fill="#ed5564"/>
            <path id="Path_11-3" data-name="Path 11" d="M.917,8.156H14.4V7.506H.917Z" transform="translate(0.046 0.336)" opacity="0.134"/>
            <rect id="Rectangle_11-2" data-name="Rectangle 11" width="3.21" height="7.479" transform="translate(6.098 7.82)" fill="#da4453"/>
            <path id="Path_12-3" data-name="Path 12" d="M5.805,8.156h3.21V7.506H5.805Z" transform="translate(0.293 0.336)" opacity="0.134"/>
          </g>
        </g>
      </g>
    </g>
    <g id="square3" transform="translate(-887 -1765)">
      <rect id="Rectangle_1126" data-name="Rectangle 1126" width="255" height="255" rx="26" transform="translate(1501 2033)" fill="#f45deb"/>
      <path id="Subtraction_4-2" data-name="Subtraction 4" d="M0,225.33H0V26A25.978,25.978,0,0,1,26,0H229a25.937,25.937,0,0,1,19.523,8.828L0,225.329Z" transform="translate(1755.523 2288.332) rotate(180)" fill="#fff" opacity="0.09"/>
      <g id="Mask_Group_456-2" data-name="Mask Group 456" transform="translate(-298 -63)" clip-path="url(#clip-path-5)">
        <g id="Mask_Group_452-2" data-name="Mask Group 452" transform="translate(1731.277 2033)" clip-path="url(#clip-path-6)">
          <g id="Group_1241-2" data-name="Group 1241" transform="translate(2.389 13.258)">
            <g id="Group_1239-2" data-name="Group 1239" transform="translate(0 14.705)">
              <path id="Path_367-2" data-name="Path 367" d="M.912,202.452c-2.724-48.053,19.024-92.165,8.321-121.2s-12.646-44.847,3.221-64.7S53.576-5.491,82.041,11.993s23.121,66.451,60.308,99.6,45.734,91.5,11.165,120.143S-8.822,299.5,20.12,273.471,3.633,250.506.912,202.452Z" transform="translate(147.069 37.071) rotate(11)" fill="#e8c583"/>
              <path id="Path_1593-2" data-name="Path 1593" d="M-.19,22.709,34.794,95.536S76.1,114.991,87.7,109.064s-12.571-34-12.571-34L19.206-.162Z" transform="matrix(0.848, -0.53, 0.53, 0.848, 54.269, 139.294)" fill="#fafafa" opacity="0.998"/>
              <g id="Group_1149-2" data-name="Group 1149" transform="translate(124.791 33.546)">
                <g id="Group_1148-2" data-name="Group 1148" transform="translate(0 20.551)">
                  <g id="neck-2" data-name="neck" transform="translate(48.332 56.315)">
                    <rect id="Rectangle_2-2" data-name="Rectangle 2" width="31.649" height="49.393" fill="#ffe2c9"/>
                    <path id="Intersection_2-2" data-name="Intersection 2" d="M21.335,2.807A46.586,46.586,0,0,0,0,25.051V36.069H31.649V0A28.136,28.136,0,0,0,21.335,2.807Z" transform="translate(31.649 46.36) rotate(180)" fill="#f5c5a4"/>
                  </g>
                  <g id="face-2" data-name="face" transform="translate(20.295)">
                    <path id="Path_4-2" data-name="Path 4" d="M286.491,328.011c8.746-21.61-4.431-43.713-12.341-47.918s-25.415-10.97-39.144-3.352-23.889,16.718-20.787,39.35,19.876,52.336,32.837,51.784S277.744,349.63,286.491,328.011Z" transform="translate(-213.656 -273.289)" fill="#ffe2c9"/>
                    <path id="Intersection_1-2" data-name="Intersection 1" d="M0,91.526a26.372,26.372,0,0,0,5.632-2.314C19.359,81.6,29.52,72.5,26.419,49.874,23.816,30.859,11.543,6.845,0,0Z" transform="translate(26.979 92.715) rotate(180)" fill="#f5c5a4"/>
                    <path id="Path_6-2" data-name="Path 6" d="M235.187,287.965l-6.057,16.052,9.531,7.532Z" transform="translate(-207.492 -238.617)" fill="#ffe2c9"/>
                    <path id="Path_7-2" data-name="Path 7" d="M219.912,290.139l.681-.766a10.984,10.984,0,0,1,7.089-3.743,51.7,51.7,0,0,1,10.491,1.688" transform="translate(-181.15 -239.035)" fill="none" stroke="#360e0e" stroke-width="1.5"/>
                    <path id="Path_8-4" data-name="Path 8" d="M236.137,290.139s-3.165-4.509-6.906-4.509a41.294,41.294,0,0,0-9.32,1.688" transform="translate(-213.039 -239.035)" fill="none" stroke="#360e0e" stroke-width="1.5"/>
                    <path id="Path_9-4" data-name="Path 9" d="M2.723,6.018c1.5-.011,4.091-1.282,4.1-2.993A2.793,2.793,0,0,0,6.058.912,2.9,2.9,0,0,0,3.96.023C2.26.005.04,1.234.027,2.942a2.876,2.876,0,0,0,2.7,3.076Z" transform="translate(50.039 52.976) rotate(-160.967)" fill="#360e0e"/>
                    <path id="Path_1638-2" data-name="Path 1638" d="M2.723,6.018c1.5-.011,4.091-1.282,4.1-2.993A2.793,2.793,0,0,0,6.058.912,2.9,2.9,0,0,0,3.96.023C2.26.005.04,1.234.027,2.942a2.876,2.876,0,0,0,2.7,3.076Z" transform="translate(18.39 52.976) rotate(-160.967)" fill="#360e0e"/>
                    <path id="Path_11-4" data-name="Path 11" d="M26.973,3.084,25.8-.034A31.761,31.761,0,0,1,13.654,3.934,40.534,40.534,0,0,1,0,2.092,26.185,26.185,0,0,0,12.218,6.025,43.544,43.544,0,0,0,26.973,3.084Z" transform="translate(62.739 42.201) rotate(175.988)" fill="#ac7d00"/>
                    <path id="Path_12-4" data-name="Path 12" d="M20.75,2.961l-.909,3.115A21.1,21.1,0,0,0,10.509,2.1,24.671,24.671,0,0,0,.005,3.941,17.443,17.443,0,0,1,9.4.012,27.109,27.109,0,0,1,20.75,2.961Z" transform="translate(4.075 36.61) rotate(4.012)" fill="#ac7d00"/>
                    <path id="Path_13-2" data-name="Path 13" d="M232.394,298.474c.361.023,1.494.043,2.515,0,1.705-.031,1.517.115,4.538,0s7.545-.461,7.545-.461-5.789,7.874-12.083,8.555-9.262-7.063-9.262-7.063a24.533,24.533,0,0,1,6.747-1.03Z" transform="translate(-205.315 -223.224)" fill="#e083aa"/>
                    <path id="Path_1596" data-name="Path 1596" d="M7.533,26.961l4.948-.43,9.151-.473a22.934,22.934,0,0,1-8.505,3.585,6.842,6.842,0,0,1-5.593-2.682Z" transform="translate(15.564 50.599)" fill="#fff"/>
                  </g>
                  <path id="Path_18" data-name="Path 18" d="M316.671,313.521,294.5,306.967H260.191s-11.791,1.488-17.512,6.555c-8.475,7.493-11.463,15.913-22.653,33.9-17.788,28.607,2.812,34.244,7.385,64.882s0,64.3,0,64.3H327.692s-21.17-34.046-23.456-71.234,16.782-45.222,16.782-68.239S316.671,313.521,316.671,313.521Z" transform="translate(-212.908 -201.722)" fill="#fff"/>
                  <path id="Path_24-2" data-name="Path 24" d="M259.6,306.079v5.493s-29.042,15.394-37.26,13.042,5.7-13.865,5.7-13.865Z" transform="translate(-179.834 -205.504)" fill="#ffe2c9"/>
                  <path id="Path_25-2" data-name="Path 25" d="M-.765,89.868,26.519,13.279S55.194-5.417,63.466.74s-8.183,33.806-8.183,33.806L17.411,108.826Z" transform="matrix(0.839, -0.545, 0.545, 0.839, 63.983, 163.079)" fill="#fff" opacity="0.998"/>
                  <path id="Path_29-2" data-name="Path 29" d="M218.046,310.894l-10.615-3.168s19.04,1.235,25.741,9.846,11.683,27.748,11.683,27.748l-.579.7L213.364,373.63s-6.9-28.261-6.864-29.7.93-36.2.93-36.2" transform="translate(-116.707 -198.189)" fill="#fff"/>
                </g>
                <path id="Path_1590-2" data-name="Path 1590" d="M.3,38.13S24.267,25.2,40.819,25.039c9.152-.087,15.57,9.852,19.933,16.423S74.563,77.427,74.563,77.427l-1.419-8.652a40.816,40.816,0,0,0,5.741-27.49C76.227,26.23,75.8,7.721,56.816,1.184,40.9-1.954,45.622,5.1,38.425,5.4c-9.053.372-15.477-.134-23.911,4.421C.387,17.452.3,38.13.3,38.13Z" transform="matrix(0.891, 0.454, -0.454, 0.891, 47.617, 3.77)" fill="#e8c583"/>
                <path id="Path_1591-2" data-name="Path 1591" d="M39.335,11.04,35.188,35.81S35.5,50.461,20.331,71.749C15.342,78.752,2,52,2,52S-6.157,14.931,13.564,3.813,39.335,11.04,39.335,11.04Z" transform="translate(60.358 1.095) rotate(46.986)" fill="#e8c583"/>
                <path id="Path_1592" data-name="Path 1592" d="M0,1.707A11.749,11.749,0,0,1,5.16.013C7.072.227,9.447,3.4,8.319,8.815S.642,21.672.642,21.672Z" transform="translate(86.762 66.897) rotate(8)" fill="#ffe2c9"/>
              </g>
            </g>
          </g>
        </g>
      </g>
      <path id="Path_1594-2" data-name="Path 1594" d="M1,5.812C-1.766,13.142.39,31.1,29.23,43.7s63.4,29.216,63.4,29.216l7.052-9.568S68.343,36.335,39.2,15.636,3.759-1.515,1,5.812Z" transform="translate(1510.083 2163.215) rotate(-135)" fill="#fafafa"/>
      <path id="Path_1595-2" data-name="Path 1595" d="M25.361,41.837s5.14-20.39,4.23-25.234S20.215,21.2,20.215,21.2,17.551,1.377,12.632.133-.69,9.591.11,21.272,14.047,46.423,14.047,46.423Z" transform="translate(1477.646 2000.963) rotate(9)" fill="#f5c5a4"/>
      <g id="Group_1240-2" data-name="Group 1240" transform="translate(1462.985 1986.258)">
        <g id="Rectangle_1119-2" data-name="Rectangle 1119" transform="translate(17.912 0) rotate(19)" fill="#fff">
          <path d="M 6.500463962554932 54.98281860351562 C 5.069704055786133 54.98281860351562 3.737864255905151 54.43471145629883 2.750284194946289 53.43946075439453 C 1.795064210891724 52.4768180847168 1.274774193763733 51.20132827758789 1.285244107246399 49.84796142578125 L 1.620674133300781 6.512439727783203 C 1.642894148826599 3.642079830169678 4.051204204559326 1.288729906082153 6.989194393157959 1.266429901123047 L 23.82573509216309 1.1386399269104 L 23.8680248260498 1.138479828834534 C 25.29879379272461 1.138479828834534 26.63063430786133 1.68658983707428 27.61821365356445 2.681839942932129 C 28.57342338562012 3.644479990005493 29.09371376037598 4.919970035552979 29.08324432373047 6.273339748382568 L 28.7478141784668 49.60886001586914 C 28.72559356689453 52.47920989990234 26.31729507446289 54.83256149291992 23.37929344177246 54.8548698425293 L 6.542754173278809 54.98265838623047 L 6.500463962554932 54.98281860351562 Z" stroke="none"/>
          <path d="M 23.8680248260498 2.138481140136719 L 23.83332443237305 2.13861083984375 L 6.996784210205078 2.266399383544922 C 4.60179328918457 2.284580230712891 2.638664245605469 4.192821502685547 2.620643615722656 6.520179748535156 L 2.285213470458984 49.85569000244141 C 2.276824951171875 50.94049835205078 2.694074630737305 51.96310043334961 3.460124969482422 52.73508834838867 C 4.258533477783203 53.53969955444336 5.338274002075195 53.98281860351562 6.500463485717773 53.98281860351562 L 6.535163879394531 53.98268890380859 L 23.3717041015625 53.85490036010742 C 25.76669311523438 53.83670806884766 27.72982406616211 51.9284782409668 27.74784469604492 49.60111999511719 L 28.08327484130859 6.265598297119141 C 28.0916633605957 5.180789947509766 27.67441368103027 4.158199310302734 26.90836334228516 3.386199951171875 C 26.10996437072754 2.581600189208984 25.03021430969238 2.138481140136719 23.8680248260498 2.138481140136719 M 23.86802864074707 0.1384811401367188 C 27.33149147033691 0.1384811401367188 30.10954856872559 2.878536224365234 30.08321380615234 6.281078338623047 L 29.74778366088867 49.61660003662109 C 29.7213134765625 53.03540802001953 26.87344360351562 55.828369140625 23.38688468933105 55.85483932495117 L 6.550344467163086 55.98263168334961 C 6.533744812011719 55.98275756835938 6.51702880859375 55.98281860351562 6.500459671020508 55.98281860351562 C 3.037006378173828 55.98281860351562 0.2589397430419922 53.24276351928711 0.2852745056152344 49.8402099609375 L 0.6207046508789062 6.50469970703125 C 0.6471748352050781 3.085880279541016 3.495044708251953 0.2929191589355469 6.981603622436523 0.2664604187011719 L 23.81814384460449 0.1386680603027344 C 23.83474349975586 0.1385421752929688 23.85145950317383 0.1384811401367188 23.86802864074707 0.1384811401367188 Z" stroke="none" fill="#434343"/>
        </g>
        <path id="Path_1684-2" data-name="Path 1684" d="M6.468,13.393S6.231.994,4.229.086.712,6.35.1,12.455A29.965,29.965,0,0,0,1.766,24.53Z" transform="matrix(0.994, 0.105, -0.105, 0.994, 36.21, 22.777)" fill="#f5c5a4"/>
        <path id="Path_1685-2" data-name="Path 1685" d="M.972.156,12.481.072c.577,0,.471.789.467,1.358S12.4,2.81,11.823,2.814L1.2,3.055C.62,3.059,0,2,.008,1.428S.389.16.972.156Z" transform="translate(26.179 3.92) rotate(19)" fill="#434343"/>
      </g>
      <g id="Mask_Group_2-3" data-name="Mask Group 2" transform="translate(1481.384 2007.201) rotate(20)" clip-path="url(#clip-path-3)">
        <g id="gift_2_3" data-name="gift (2)" transform="translate(0 0.508)">
          <path id="Path_8-5" data-name="Path 8" d="M11.669,1.828C11.21.919,10.661.457,10.036.457c-.72,0-1.467.623-2.223,1.852-.1.157-.187.315-.271.466-.084-.152-.174-.309-.271-.466C6.517,1.08,5.769.457,5.049.457c-.625,0-1.175.46-1.633,1.371a1.48,1.48,0,0,0-.055,1.458A2.763,2.763,0,0,0,5.382,4.363a12.106,12.106,0,0,0,2.125.178h.074a12.106,12.106,0,0,0,2.125-.178,2.76,2.76,0,0,0,2.021-1.077,1.481,1.481,0,0,0-.057-1.458Z" transform="translate(0.161 -0.457)" fill="#da4453"/>
          <path id="Path_9-5" data-name="Path 9" d="M14.4,6.432a.662.662,0,0,0-.642-.68H1.559a.662.662,0,0,0-.642.68v8.049a.662.662,0,0,0,.642.68h12.2a.662.662,0,0,0,.642-.68Z" transform="translate(0.046 0.138)" fill="#ffca3b"/>
          <path id="Path_10-3" data-name="Path 10" d="M15.406,7.288a.662.662,0,0,1-.642.68H.642A.662.662,0,0,1,0,7.288v-3.4a.662.662,0,0,1,.642-.68H14.764a.662.662,0,0,1,.642.68Z" transform="translate(0 -0.147)" fill="#ffdb57"/>
          <rect id="Rectangle_10-3" data-name="Rectangle 10" width="3.21" height="4.759" transform="translate(6.098 3.061)" fill="#ed5564"/>
          <path id="Path_11-5" data-name="Path 11" d="M.917,8.156H14.4V7.506H.917Z" transform="translate(0.046 0.336)" opacity="0.134"/>
          <rect id="Rectangle_11-3" data-name="Rectangle 11" width="3.21" height="7.479" transform="translate(6.098 7.82)" fill="#da4453"/>
          <path id="Path_12-5" data-name="Path 12" d="M5.805,8.156h3.21V7.506H5.805Z" transform="translate(0.293 0.336)" opacity="0.134"/>
        </g>
      </g>
    </g>
    <g id="square2" transform="translate(31.967 399.68)">
      <path id="Path_1698" data-name="Path 1698" d="M26,0H229a26,26,0,0,1,26,26V229a26,26,0,0,1-26,26H26A26,26,0,0,1,0,229V26A26,26,0,0,1,26,0Z" transform="translate(0.033 0.319)" fill="#3a20d9"/>
      <path id="Subtraction_6" data-name="Subtraction 6" d="M12.457,250.644h0A25.979,25.979,0,0,1,0,228.445V26A25.978,25.978,0,0,1,26,0H228.613a26.007,26.007,0,0,1,23.875,15.689Z" transform="translate(0 0)" fill="#06002e" opacity="0.09"/>
      <g id="Mask_Group_457" data-name="Mask Group 457" transform="translate(1.033 0.319)" clip-path="url(#clip-path-8)">
        <g id="Group_1247" data-name="Group 1247" transform="translate(-78.975 0)">
          <g id="Mask_Group_454" data-name="Mask Group 454" clip-path="url(#clip-path-9)">
            <g id="Group_1195" data-name="Group 1195" transform="translate(12.975 -0.4)">
              <g id="Group_1194" data-name="Group 1194">
                <g id="Group_857" data-name="Group 857">
                  <g id="Group_855" data-name="Group 855">
                    <g id="Mask_Group_400" data-name="Mask Group 400" clip-path="url(#clip-path-10)">
                      <g id="Group_881" data-name="Group 881" transform="translate(108.448 24.212)">
                        <g id="Group_880" data-name="Group 880">
                          <path id="Path_975" data-name="Path 975" d="M545.344,269.906,561.4,156.295s-.785-30.274-14.267-39.393L506.8,96.678H470.552l-56.388,36.286,35.11,136.948Z" transform="translate(-414.164 16.909)" fill="#ffcca0"/>
                          <path id="Path_988" data-name="Path 988" d="M431.113,86.4v39.31h40.959S462,110.128,467.037,86.4Z" transform="translate(-374.905 0.385)" fill="#ffcca0"/>
                          <path id="Path_989" data-name="Path 989" d="M453.913,109.731c8.568,2.406,11.472-7.923,11.472-7.923s-.814-6.16,2.639-15.408H431.112v5.783c4.848,7.785,14.233,15.142,22.8,17.548Z" transform="translate(-374.906 0.386)" fill="#e9b287"/>
                          <path id="Path_992" data-name="Path 992" d="M443.092,266.608c.086,4.042-5.957,46.34-3.423,46.885.017,0,69.14,16.171,106.005,0l.146-43.585,15.611-56.128,1.765-20.334-.961-51.439s-1.05-10.946-3.281-17.018-5.641-7.27-5.641-7.27L507.276,96.679l3.466,10.58s-3.286,19.108-13.211,16.465-26.488-27.036-26.488-27.036l-53.715,32.2c3.449,11.61-1.169,28.067,2.271,39.681,6.369,21.4,12.566,42.871,19.127,64.215C438.718,232.784,444.156,255.933,443.092,266.608Z" transform="translate(-414.64 16.912)" fill="#fff"/>
                          <path id="Path_1002" data-name="Path 1002" d="M435.411,53.12" transform="translate(-368.161 -53.12)" fill="#cc753c"/>
                        </g>
                      </g>
                    </g>
                  </g>
                  <path id="Path_966" data-name="Path 966" d="M0,24.622a60.866,60.866,0,0,0,10.368,1.591c2.172-.262,4.887-4.112,3.6-10.666S5.286,0,5.286,0Z" transform="matrix(-0.996, -0.087, 0.087, -0.996, 163.248, 94.648)" fill="#ffcca0"/>
                  <path id="Path_967" data-name="Path 967" d="M5.166,21.461,0,1.954,11,0Z" transform="translate(207.176 90.546) rotate(169.982)" fill="#ffcca0"/>
                  <g id="Group_856" data-name="Group 856" transform="translate(172.872 74.724) rotate(-12.007)">
                    <path id="Path_968" data-name="Path 968" d="M0,0,.687.8A10.941,10.941,0,0,0,7.833,4.729,50.252,50.252,0,0,0,18.41,2.955" transform="translate(18.072 8.155) rotate(-169)" fill="none" stroke="#360e0e" stroke-width="0.662"/>
                    <path id="Path_969" data-name="Path 969" d="M3.208,0C4.973,0,8,1.294,7.99,3.079s-3.043,3.389-4.807,3.4A3.2,3.2,0,0,1,.915,5.523,3.165,3.165,0,0,1,0,3.251,3.247,3.247,0,0,1,3.209,0Z" transform="translate(7.906 1.938) rotate(-4.012)" fill="#360e0e"/>
                  </g>
                  <path id="Path_970" data-name="Path 970" d="M20.011,0l1.167,3.743S14.849,5.169,9.383,6.5A24.414,24.414,0,0,0,0,11.318a10.431,10.431,0,0,1,6.36-6.9C11.709,2.238,20.011,0,20.011,0Z" transform="matrix(0.883, 0.469, -0.469, 0.883, 177.587, 56.416)" fill="#6a2c14"/>
                  <path id="Path_971" data-name="Path 971" d="M6.511,5.613a13.385,13.385,0,0,1,1.7,0c1.455.031,3.177,0,3.177,0l7.293-.746S12.108.452,8.213.028,0,4.063,0,4.063a19.732,19.732,0,0,0,6.511,1.55Z" transform="translate(208.192 106.461) rotate(177.993)" fill="#e3a275"/>
                  <path id="Path_972" data-name="Path 972" d="M11.007,0S7.188,4.385,4.155,4.376A21.207,21.207,0,0,1,0,4.1" transform="translate(214.243 79.332) rotate(-169)" fill="none" stroke="#360e0e" stroke-width="0.662"/>
                  <path id="Path_973" data-name="Path 973" d="M2.544,0c1.4,0,3.437.433,3.436,1.984A4.373,4.373,0,0,1,2.543,5.6,2.678,2.678,0,0,1,0,2.808,2.716,2.716,0,0,1,.7.874,2.636,2.636,0,0,1,2.544,0Z" transform="translate(207.24 73.712) rotate(0.974)" fill="#360e0e"/>
                  <path id="Path_974" data-name="Path 974" d="M12.634,3.526,12.377.02S8.872.79,5.818,1.361A8.6,8.6,0,0,1,0,0S1.58,4.057,4.77,4.3a34.092,34.092,0,0,0,7.864-.777Z" transform="translate(216.967 68.773) rotate(177.993)" fill="#6a2c14"/>
                </g>
                <path id="Path_964" data-name="Path 964" d="M459.674,100.271c-2.54,2.57-3.493,6.443-4.723,9.863-9.49-12.7-16.471-37.647-2.957-49.083C472.3,43.87,472.709,87.1,459.674,100.271Z" transform="translate(-243.379 -9.596)" fill="#261008"/>
                <g id="face-3" data-name="face" transform="translate(228.419 120.721) rotate(172)">
                  <path id="Path_4-3" data-name="Path 4" d="M73.454,41.771c8.788,22.654-4.529,45.855-12.506,50.277S35.311,103.586,21.48,95.615-2.576,78.11.573,54.368,16.881.386,33.746.006,64.665,19.106,73.454,41.771Z" transform="translate(0.003 0)" fill="#ffcca0"/>
                  <path id="Intersection_1-3" data-name="Intersection 1" d="M0,96.454c5.019-2.469,10.168-7.8,14.372-15.231A113.261,113.261,0,0,0,26.7,43.649C29.86,19.912,19.629,10.383,5.8,2.414A25.945,25.945,0,0,0,.124,0Z" transform="translate(27.278 97.978) rotate(180)" fill="#e9b287"/>
                  <path id="Path_6-3" data-name="Path 6" d="M6.318,20.737,0,1.864,10.983,0Z" transform="translate(22.079 26.478) rotate(3)" fill="#ffcca0"/>
                  <path id="Path_7-3" data-name="Path 7" d="M0,0,.686.8A10.915,10.915,0,0,0,7.828,4.719,50.314,50.314,0,0,0,18.407,2.936" transform="translate(38.696 43.493)" fill="none" stroke="#360e0e" stroke-width="1"/>
                  <path id="Path_8-6" data-name="Path 8" d="M16.358,0S11.4,5,7.627,5.008C4.439,4.8,3.048,3.938,0,2.981" transform="translate(6.548 43.514)" fill="none" stroke="#360e0e" stroke-width="1"/>
                  <path id="Path_9-6" data-name="Path 9" d="M2.677,0A3.121,3.121,0,0,1,5.438,3.134a2.7,2.7,0,0,1-.895,1.854A2.438,2.438,0,0,1,2.652,5.6a2.612,2.612,0,0,1-1.89-.819A2.788,2.788,0,0,1,0,2.812,2.762,2.762,0,0,1,2.677,0Z" transform="matrix(-0.777, 0.629, -0.629, -0.777, 48.669, 45.852)" fill="#360e0e"/>
                  <path id="Path_9-7" data-name="Path 9" d="M2.677,0A3.121,3.121,0,0,1,5.438,3.134a2.7,2.7,0,0,1-.895,1.854A2.438,2.438,0,0,1,2.652,5.6a2.612,2.612,0,0,1-1.89-.819A2.788,2.788,0,0,1,0,2.812,2.762,2.762,0,0,1,2.677,0Z" transform="matrix(-0.777, 0.629, -0.629, -0.777, 17.66, 46.475)" fill="#360e0e"/>
                  <path id="Path_12-6" data-name="Path 12" d="M20.706,3.508,20.288,0S14.536.784,9.535,1.363A21.11,21.11,0,0,1,0,.021,10.243,10.243,0,0,0,7.813,4.311a90.42,90.42,0,0,0,12.893-.8Z" transform="translate(3.439 54.598) rotate(-4.012)" fill="#261008"/>
                  <path id="Path_34" data-name="Path 34" d="M20.009,0l1.164,3.747S14.846,5.178,9.382,6.518A24.426,24.426,0,0,0,0,11.343,10.457,10.457,0,0,1,6.361,4.429C11.71,2.246,20.009,0,20.009,0Z" transform="translate(53.072 66.544) rotate(-151.001)" fill="#261008"/>
                  <path id="Path_13-3" data-name="Path 13" d="M7.727,5.61a18.7,18.7,0,0,1,2.01,0c1.719.03,3.756,0,3.756,0l8.769,1.1S14.352.443,9.744.024,0,4.929,0,4.929a44.471,44.471,0,0,0,7.727.682Z" transform="translate(20.151 14.09)" fill="#d6905f"/>
                </g>
                <path id="Path_1001" data-name="Path 1001" d="M34.711,13.77S18.492,31.783,15.139,43.647s2.294,25.885,2.3,25.892c-.085-.432-1.928-1.5-2.3-1.816A70.9,70.9,0,0,1,6.971,56.712C-.824,43.756,2.361,41.879.268,34.229-1.162,29.006,3.2,7.138,11.59.012,11.59.012,31.2-.929,34.711,13.77Z" transform="translate(136.603 34.445) rotate(-3)" fill="#261008"/>
                <path id="Path_1017" data-name="Path 1017" d="M50.144,38.967c-30.069,7.4-35.762-9.061-35.762-9.061L0,19.644S4.271,6.59,26.47.481c0,0,18.889-3.044,34.774,6.186S83.846,29.324,81.071,37.4,80.21,31.569,50.144,38.967Z" transform="matrix(0.996, 0.087, -0.087, 0.996, 149.963, 14.768)" fill="#261008"/>
                <path id="Path_975-2" data-name="Path 975" d="M0,20.945A11.482,11.482,0,0,0,5.195,22.7c1.929-.23,4.336-3.565,3.212-9.24S.7,0,.7,0Z" transform="matrix(-0.996, 0.087, -0.087, -0.996, 156.989, 96.407)" fill="#ffcca0"/>
              </g>
            </g>
          </g>
        </g>
      </g>
      <g id="Group_1246" data-name="Group 1246" transform="matrix(0.996, 0.087, -0.087, 0.996, 143.567, 202.414)">
        <path id="Rectangle_1140" data-name="Rectangle 1140" d="M4.052.023,22.43,0a3.971,3.971,0,0,1,3.99,3.965l-.052,41.293a4,4,0,0,1-4,3.975L3.99,49.257A3.971,3.971,0,0,1,0,45.291L.052,4A4,4,0,0,1,4.052.023Z" transform="translate(0 0)" fill="#e0e0e0"/>
        <path id="Rectangle_1141" data-name="Rectangle 1141" d="M1.608.008,8,0A1.588,1.588,0,0,1,9.6,1.586L9.588,7.939a1.6,1.6,0,0,1-1.6,1.59L1.6,9.537A1.588,1.588,0,0,1,0,7.951L.008,1.6A1.6,1.6,0,0,1,1.608.008Z" transform="translate(1.615 1.631)" fill="#fff" opacity="0.211"/>
        <g id="Ellipse_28" data-name="Ellipse 28" transform="translate(2.407 2.446)" fill="#2b2b2b">
          <path d="M 1.595911145210266 3.041603088378906 L 1.594011068344116 3.041603088378906 C 1.201711058616638 3.041603088378906 0.8337011337280273 2.889462947845459 0.5577811002731323 2.613193035125732 C 0.2845211029052734 2.339593172073364 0.1342911124229431 1.976343035697937 0.1347811073064804 1.590363025665283 C 0.1357811093330383 0.7887530326843262 0.793191134929657 0.1357830613851547 1.600251078605652 0.1347830593585968 C 1.99445116519928 0.1347830593585968 2.362461090087891 0.2869230508804321 2.638381004333496 0.5631930828094482 C 2.911641120910645 0.836793065071106 3.06187105178833 1.200043082237244 3.061381101608276 1.586023092269897 C 3.060381174087524 2.387633085250854 2.402971029281616 3.040603160858154 1.595911145210266 3.041603088378906 Z" stroke="none"/>
          <path d="M 1.600421071052551 0.2695629596710205 C 0.8674910068511963 0.2704730033874512 0.2704710960388184 0.8630630970001221 0.2695610523223877 1.590533018112183 C 0.2691211700439453 1.940473079681396 0.4053411483764648 2.269843101501465 0.6531410217285156 2.517952919006348 C 0.9036011695861816 2.768723011016846 1.237741112709045 2.90682315826416 1.595741152763367 2.90682315826416 C 2.328670978546143 2.905913114547729 2.9256911277771 2.313323020935059 2.92660117149353 1.585853099822998 C 2.927041053771973 1.235913038253784 2.790821075439453 0.9065430164337158 2.543021202087402 0.6584329605102539 C 2.292561054229736 0.407663106918335 1.958421111106873 0.2695629596710205 1.602151155471802 0.2695629596710205 L 1.600421071052551 0.2695629596710205 M 1.602147459983826 1.668930053710938e-06 C 2.483844757080078 1.668930053710938e-06 3.19726037979126 0.7097055912017822 3.196161031723022 1.586193084716797 C 3.195061206817627 2.463333129882812 2.478681087493896 3.175282955169678 1.596081137657166 3.176383018493652 C 1.595434665679932 3.176383972167969 1.594661116600037 3.176384449005127 1.594014763832092 3.176384449005127 C 0.7123174667358398 3.176384449005127 -0.001098155975341797 2.466680526733398 1.192092895507812e-06 1.590193033218384 C 0.001101016998291016 0.7130529880523682 0.7174811363220215 0.00110316276550293 1.600081086158752 3.099441528320312e-06 C 1.600727558135986 2.145767211914062e-06 1.601501107215881 1.668930053710938e-06 1.602147459983826 1.668930053710938e-06 Z" stroke="none" fill="#262626"/>
        </g>
        <g id="Ellipse_29" data-name="Ellipse 29" transform="translate(2.332 6.416)" fill="#2b2b2b">
          <path d="M 1.595911145210266 3.041603088378906 L 1.594011068344116 3.041603088378906 C 1.201711058616638 3.041603088378906 0.8337011337280273 2.889462947845459 0.5577811002731323 2.613193035125732 C 0.2845211029052734 2.339593172073364 0.1342911124229431 1.976343035697937 0.1347811073064804 1.590363025665283 C 0.1357811093330383 0.7887530326843262 0.793191134929657 0.1357830613851547 1.600251078605652 0.1347830593585968 C 1.99445116519928 0.1347830593585968 2.362461090087891 0.2869230508804321 2.638381004333496 0.5631930828094482 C 2.911641120910645 0.836793065071106 3.06187105178833 1.200043082237244 3.061381101608276 1.586023092269897 C 3.060381174087524 2.387633085250854 2.402971029281616 3.040603160858154 1.595911145210266 3.041603088378906 Z" stroke="none"/>
          <path d="M 1.600421071052551 0.2695629596710205 C 0.8674910068511963 0.2704730033874512 0.2704710960388184 0.8630630970001221 0.2695610523223877 1.590533018112183 C 0.2691211700439453 1.940473079681396 0.4053411483764648 2.269843101501465 0.6531410217285156 2.517952919006348 C 0.9036011695861816 2.768723011016846 1.237741112709045 2.90682315826416 1.595741152763367 2.90682315826416 C 2.328670978546143 2.905913114547729 2.9256911277771 2.313323020935059 2.92660117149353 1.585853099822998 C 2.927041053771973 1.235913038253784 2.790821075439453 0.9065430164337158 2.543021202087402 0.6584329605102539 C 2.292561054229736 0.407663106918335 1.958421111106873 0.2695629596710205 1.602151155471802 0.2695629596710205 L 1.600421071052551 0.2695629596710205 M 1.602147459983826 1.668930053710938e-06 C 2.483844757080078 1.668930053710938e-06 3.19726037979126 0.7097055912017822 3.196161031723022 1.586193084716797 C 3.195061206817627 2.463333129882812 2.478681087493896 3.175282955169678 1.596081137657166 3.176383018493652 C 1.595434665679932 3.176383972167969 1.594661116600037 3.176384449005127 1.594014763832092 3.176384449005127 C 0.7123174667358398 3.176384449005127 -0.001098155975341797 2.466680526733398 1.192092895507812e-06 1.590193033218384 C 0.001101016998291016 0.7130529880523682 0.7174811363220215 0.00110316276550293 1.600081086158752 3.099441528320312e-06 C 1.600727558135986 2.145767211914062e-06 1.601501107215881 1.668930053710938e-06 1.602147459983826 1.668930053710938e-06 Z" stroke="none" fill="#262626"/>
        </g>
        <g id="Ellipse_30" data-name="Ellipse 30" transform="translate(7.201 2.523)" fill="#2b2b2b">
          <path d="M 1.595911145210266 3.041603088378906 L 1.594011068344116 3.041603088378906 C 1.201711058616638 3.041603088378906 0.8337011337280273 2.889462947845459 0.5577811002731323 2.613193035125732 C 0.2845211029052734 2.339593172073364 0.1342911124229431 1.976343035697937 0.1347811073064804 1.590363025665283 C 0.1357811093330383 0.7887530326843262 0.793191134929657 0.1357830613851547 1.600251078605652 0.1347830593585968 C 1.99445116519928 0.1347830593585968 2.362461090087891 0.2869230508804321 2.638381004333496 0.5631930828094482 C 2.911641120910645 0.836793065071106 3.06187105178833 1.200043082237244 3.061381101608276 1.586023092269897 C 3.060381174087524 2.387633085250854 2.402971029281616 3.040603160858154 1.595911145210266 3.041603088378906 Z" stroke="none"/>
          <path d="M 1.600421071052551 0.2695629596710205 C 0.8674910068511963 0.2704730033874512 0.2704710960388184 0.8630630970001221 0.2695610523223877 1.590533018112183 C 0.2691211700439453 1.940473079681396 0.4053411483764648 2.269843101501465 0.6531410217285156 2.517952919006348 C 0.9036011695861816 2.768723011016846 1.237741112709045 2.90682315826416 1.595741152763367 2.90682315826416 C 2.328670978546143 2.905913114547729 2.9256911277771 2.313323020935059 2.92660117149353 1.585853099822998 C 2.927041053771973 1.235913038253784 2.790821075439453 0.9065430164337158 2.543021202087402 0.6584329605102539 C 2.292561054229736 0.407663106918335 1.958421111106873 0.2695629596710205 1.602151155471802 0.2695629596710205 L 1.600421071052551 0.2695629596710205 M 1.602147459983826 1.668930053710938e-06 C 2.483844757080078 1.668930053710938e-06 3.19726037979126 0.7097055912017822 3.196161031723022 1.586193084716797 C 3.195061206817627 2.463333129882812 2.478681087493896 3.175282955169678 1.596081137657166 3.176383018493652 C 1.595434665679932 3.176383972167969 1.594661116600037 3.176384449005127 1.594014763832092 3.176384449005127 C 0.7123174667358398 3.176384449005127 -0.001098155975341797 2.466680526733398 1.192092895507812e-06 1.590193033218384 C 0.001101016998291016 0.7130529880523682 0.7174811363220215 0.00110316276550293 1.600081086158752 3.099441528320312e-06 C 1.600727558135986 2.145767211914062e-06 1.601501107215881 1.668930053710938e-06 1.602147459983826 1.668930053710938e-06 Z" stroke="none" fill="#262626"/>
        </g>
      </g>
      <g id="Group_861" data-name="Group 861" transform="translate(20.237 164.986)">
        <path id="Path_986" data-name="Path 986" d="M29.639,143.168,56.886,31.944C56.29,4.3,34.856.188,34.856.188,14.7-2.238,10.27,19.655,10.27,19.655L.447,130.988s-3.32,25.028,8.135,25.383C8.588,156.371,27.813,158.993,29.639,143.168Z" transform="matrix(0.966, -0.259, 0.259, 0.966, 0, 14.723)" fill="#ffcca0"/>
        <path id="Path_987" data-name="Path 987" d="M34.016,9.9s-.217,28.852-3.78,53.583a289.266,289.266,0,0,1-10.473,45.338l-11.584-.863S-5.1,29.776,2.185,3.8C2.183,3.8,23.965-7.96,34.016,9.9Z" transform="matrix(-0.695, -0.719, 0.719, -0.695, 53.915, 166.08)" fill="#ffcca0"/>
      </g>
      <path id="Path_1694" data-name="Path 1694" d="M35.9,16.34V26.69l-7.821,8.242,1.4-8.245L0,33.472V19.411L18.7,5.2,33.962,0l5.446,9.143Z" transform="matrix(-0.995, 0.105, -0.105, -0.995, 174.1, 252.546)" fill="#ffcca0"/>
      <path id="Path_1667" data-name="Path 1667" d="M74.764,0S15.324,13.6,5.928,31.1,1.119,85.14,1.119,85.14l44.4,21.074L63.787,32.276l-2.522-2.122Z" transform="matrix(0.985, -0.174, 0.174, 0.985, 25.309, 151.584)" fill="#fff"/>
    </g>
    <g id="square4" transform="translate(785 -1840)">
      <path id="Path_1696" data-name="Path 1696" d="M26,0H229a26,26,0,0,1,26,26V229a26,26,0,0,1-26,26H26A26,26,0,0,1,0,229V26A26,26,0,0,1,26,0Z" transform="translate(356 2240)" fill="#f0518a"/>
      <path id="Subtraction_5" data-name="Subtraction 5" d="M0,255.331H0V26A25.979,25.979,0,0,1,26,0H234.115A25.94,25.94,0,0,1,254.13,9.4L0,255.33Z" transform="translate(610.523 2495.332) rotate(180)" fill="#fff" opacity="0.09"/>
      <g id="Mask_Group_455" data-name="Mask Group 455" transform="translate(115 -43)" clip-path="url(#clip-path-11)">
        <g id="Group_1245" data-name="Group 1245" transform="translate(236 2303.854)">
          <g id="Group_850" data-name="Group 850" transform="translate(114.827 0)">
            <g id="Group_848" data-name="Group 848" transform="translate(0 0.085)">
              <path id="Path_952" data-name="Path 952" d="M.15,105.754,34.79,13.008S60.423-4.372,67.717,1.191s-7.568,31.031-7.568,31.031L25.854,100.581Z" transform="translate(7.249 143.402) rotate(4.012)" fill="#956442" opacity="0.998"/>
              <g id="Group_840" data-name="Group 840" transform="translate(25.349 0)">
                <g id="hair-back" transform="matrix(0.97, 0.242, -0.242, 0.97, 25.626, 1.289)">
                  <path id="Ellipse_1" data-name="Ellipse 1" d="M38.194.186C59.287.289,76.483,20.335,76.6,44.96s-16.886,44.5-37.98,44.4S.332,69.212.214,44.587,17.1.083,38.194.186Z" transform="translate(0 0)" fill="#140665"/>
                </g>
                <g id="neck-3" data-name="neck" transform="translate(42.627 73.899)">
                  <rect id="Rectangle_2-3" data-name="Rectangle 2" width="27.912" height="45.59" fill="#b47a52"/>
                  <path id="Intersection_2-3" data-name="Intersection 2" d="M18.817,2.591A42.21,42.21,0,0,0,0,23.121v10.17H27.912V0a23.962,23.962,0,0,0-9.1,2.591Z" transform="translate(27.912 42.789) rotate(180)" fill="#956442"/>
                </g>
                <g id="face-4" data-name="face" transform="matrix(0.97, 0.242, -0.242, 0.97, 26.18, 12.467)">
                  <path id="Path_4-4" data-name="Path 4" d="M64.555,50.76c7.628-19.884-4.105-40.318-11.11-44.228S30.955-3.689,18.866,3.273-2.154,18.582.684,39.46,18.466,87.794,29.908,87.341,56.928,70.654,64.555,50.76Z" transform="translate(0.001 0)" fill="#b47a52"/>
                  <path id="Intersection_1-4" data-name="Intersection 1" d="M.4,84.376A22.51,22.51,0,0,0,5.367,82.27c12.089-6.96,21.02-15.309,18.181-36.175C21.163,28.55,10.223,6.361,0,0Z" transform="translate(24.232 85.589) rotate(180)" fill="#1c0b00" opacity="0.2"/>
                  <path id="Path_6-4" data-name="Path 6" d="M5.349.026.071,14.8,8.52,21.785Z" transform="translate(19.323 45.586)" fill="#b47a52"/>
                  <path id="Path_7-4" data-name="Path 7" d="M.02,4.157l.6-.7A9.468,9.468,0,0,1,6.861.034a44.081,44.081,0,0,1,9.271,1.6" transform="translate(34.432 43.12)" fill="none" stroke="#190c0c" stroke-width="1.309"/>
                  <path id="Path_8-7" data-name="Path 8" d="M14.347,4.227S11.532.056,8.23.04A34.914,34.914,0,0,0,.007,1.556" transform="translate(6.274 42.983)" fill="none" stroke="#190c0c" stroke-width="1.309"/>
                  <path id="Path_9-8" data-name="Path 9" d="M2.821,5.706C4.363,5.713,7.007,4.576,7,3S4.337.02,2.8.013A2.79,2.79,0,0,0,.013,2.847a2.852,2.852,0,0,0,2.808,2.86Z" transform="translate(43.667 48.283) rotate(179.026)" fill="#190c0c"/>
                  <path id="Path_10-4" data-name="Path 10" d="M2.821,5.706c1.542.007,3.786-.427,3.779-2A4.685,4.685,0,0,0,2.8.013,2.79,2.79,0,0,0,.013,2.847a2.852,2.852,0,0,0,2.808,2.86Z" transform="translate(15.72 48.147) rotate(179.026)" fill="#190c0c"/>
                  <path id="Path_11-6" data-name="Path 11" d="M23.818,2.958,22.773.081a27.116,27.116,0,0,1-10.71,3.641A34.392,34.392,0,0,1,.007,2,22.5,22.5,0,0,0,10.8,5.648a36.917,36.917,0,0,0,13.018-2.69Z" transform="translate(55.597 39.246) rotate(175.988)" fill="#140665"/>
                  <path id="Path_12-7" data-name="Path 12" d="M18.35,2.845l-.779,2.863A18.576,18.576,0,0,0,9.29,1.988,20.856,20.856,0,0,0,.022,3.6,14.851,14.851,0,0,1,8.3.051,23.471,23.471,0,0,1,18.349,2.845Z" transform="translate(3.769 33.795) rotate(4.012)" fill="#140665"/>
                  <path id="Path_13-4" data-name="Path 13" d="M7.15.036C8.655.015,19.384.808,19.384.808S12,6.722,7.967,7.076.006,1.286.006,1.286A46.3,46.3,0,0,1,7.15.036Z" transform="translate(17.748 68.317)" fill="#900707"/>
                </g>
                <g id="hair-front" transform="matrix(0.934, 0.358, -0.358, 0.934, 29.474, 0)">
                  <path id="Path_14" data-name="Path 14" d="M54.7,5.375s4.025,7.36-8.318,19.473S13.274,38.16,10.522,56.427-3.846,40.659,1.758,26.811,16.538,5.543,29.716,1.43,54.7,5.375,54.7,5.375Z" transform="translate(0)" fill="#140665"/>
                  <path id="Path_15" data-name="Path 15" d="M.065,9.52A236.983,236.983,0,0,1,13.622,41.834a56.818,56.818,0,0,1,.2,29.931s13.709-25.407,8.994-42.943S0,0,0,0Z" transform="translate(51.554 2.644)" fill="#140665"/>
                </g>
                <path id="Path_18-2" data-name="Path 18" d="M589.531,724.082l-19.552-6.05h-30.26s-10.4,1.373-15.445,6.05C516.8,731,514.163,738.77,504.3,755.373c-15.689,26.4,2.477,31.607,6.515,59.886.186,1.244,7.628,10.92,7.841,12.748a87.484,87.484,0,0,1-7.845,47.166s29.009,18.006,51.119,18.006a116.814,116.814,0,0,0,39.727-7.159s-21.074-42.833-23.089-77.158,14.8-41.739,14.8-62.983S589.531,724.082,589.531,724.082Z" transform="translate(-498.017 -598.971)" fill="#fff"/>
                <path id="Path_24-3" data-name="Path 24" d="M549.161,715.955v5.07s-25.613,14.208-32.861,12.037,5.024-12.8,5.024-12.8Z" transform="translate(-478.809 -601.204)" fill="#b47a52"/>
                <path id="Path_25-3" data-name="Path 25" d="M-.723,77.167,25.111,12.647S51.1-4.918,58.382.535,50.431,31.48,50.431,31.48L13.779,99.888Z" transform="matrix(0.839, -0.545, 0.545, 0.839, 45.736, 164.347)" fill="#b47a52" opacity="0.998"/>
                <path id="Path_29-3" data-name="Path 29" d="M484.531,721.9s17-1.274,22.906,6.674,10.3,25.614,10.3,25.614l-.512.642-27.262,25.485s-15.423-42.274-13.158-51.74a22.514,22.514,0,0,0,0,2.685" transform="translate(-413.46 -604.572)" fill="#fff"/>
              </g>
            </g>
            <path id="Ellipse_9" data-name="Ellipse 9" d="M19.774.2C30.695.312,39.634,8.81,39.74,19.181S31.078,37.869,20.157,37.758.3,29.149.192,18.778,8.853.09,19.774.2Z" transform="translate(119.335 0) rotate(49.013)" fill="#140665"/>
          </g>
          <g id="Group_1244" data-name="Group 1244" transform="translate(0 147.296)">
            <g id="laptop" transform="translate(0 0)">
              <g id="Group_4" data-name="Group 4" transform="translate(0)">
                <path id="Path_49" data-name="Path 49" d="M1813.249,1276.83l-18.317-74.943a9.971,9.971,0,0,0-5.769-5.936c-4.566-1.809-12.5-1.3-12.5-1.3H1675.336s-4.537.143-6.413,3.015-1.092,8.476-1.092,8.476l15.557,69.6a16.379,16.379,0,0,0,3.83,6.957,13.792,13.792,0,0,0,6.923,2.916h117.836Z" transform="translate(-1667.669 -1194.586)" fill="#d8d8d8"/>
                <path id="Path_49-2" data-name="Path 49" d="M1802.825,1271.12l-17-69.739a9.269,9.269,0,0,0-5.355-5.524c-4.24-1.683-11.6-1.209-11.6-1.209h-94.074s-4.211.132-5.953,2.805-1.014,7.888-1.014,7.888l14.443,64.77a15.253,15.253,0,0,0,3.556,6.473,12.793,12.793,0,0,0,6.427,2.713h109.4Z" transform="translate(-1661.881 -1191.72)" fill="#fff"/>
              </g>
            </g>
            <path id="Path_1687" data-name="Path 1687" d="M-694.733,713.77l16.076,74.862h22.905l-16.3-74.862Z" transform="translate(704.851 -705.542)" fill="#ededff"/>
            <path id="Path_1688" data-name="Path 1688" d="M-672.411,711.379h26.005l1.4,4.088h-26.23Z" transform="translate(712.679 -702.178)" fill="#575757" opacity="0.138"/>
            <path id="Path_1689" data-name="Path 1689" d="M-672.411,711.379h26.005l1.4,4.088h-26.23Z" transform="translate(766.708 -702.178)" fill="#575757" opacity="0.138"/>
            <path id="Path_1690" data-name="Path 1690" d="M-670.053,720.547h60.4l18.936,64.826h-65.772Z" transform="translate(712.208 -702.326)" fill="#a4a5f5" opacity="0.395"/>
            <path id="Path_1691" data-name="Path 1691" d="M-609.872,719.849h15.5l2.1,5.48-17.606.616-1.66-6.1Z" transform="translate(716.259 -701.627)" fill="#3d21e3" opacity="0.209"/>
            <path id="Path_1692" data-name="Path 1692" d="M-609.872,719.849h15.5l2.1,5.48-17.606.616-1.66-6.1Z" transform="translate(719.438 -691.894)" fill="#3d21e3" opacity="0.209"/>
            <path id="Path_1693" data-name="Path 1693" d="M-609.872,719.849h15.5l2.1,5.48-17.606.616-1.66-6.1Z" transform="translate(722.616 -682.161)" fill="#3d21e3" opacity="0.209"/>
          </g>
        </g>
      </g>
      <g id="Group_1248" data-name="Group 1248" transform="translate(116 -1)">
        <path id="Path_26" data-name="Path 26" d="M.7,5.1C-1.772,11.735.213,28,26.165,39.5s57.054,26.63,57.054,26.63l5.646-8.37S61.3,32.929,35.053,14.1,3.156-1.525.7,5.1Z" transform="translate(489.811 2494.799) rotate(146)" fill="#b47a52"/>
        <path id="Path_32" data-name="Path 32" d="M39.512,7.031,18.528-.027s-8.01,2.8-10.075,3.857c-.979.5-8.659,4.894-8.466,8.007.131,2.109,8.77-1.4,15.312-1.761,2.291-.129,3.733,2.429,4.868,2.938a40.189,40.189,0,0,0,14.988,2.828Z" transform="translate(351.456 2483.586) rotate(-4.012)" fill="#b47a52"/>
      </g>
    </g>
    <g id="square5" transform="translate(954.967 50.681)">
      <path id="Path_1698-2" data-name="Path 1698" d="M229,0H26A26,26,0,0,0,0,26V229a26,26,0,0,0,26,26H229a26,26,0,0,0,26-26V26A26,26,0,0,0,229,0Z" transform="translate(1 0.319)" fill="#fa8380"/>
      <path id="Subtraction_6-2" data-name="Subtraction 6" d="M228.614,250.644H26a25.979,25.979,0,0,1-26-26V22.2A25.987,25.987,0,0,1,12.456,0L252.489,234.955a26.007,26.007,0,0,1-23.875,15.689Z" transform="translate(256.033 250.644) rotate(180)" fill="#fff" opacity="0.09"/>
      <g id="Mask_Group_457-2" data-name="Mask Group 457" transform="translate(0 0.319)" clip-path="url(#clip-path-8)">
        <g id="Group_1247-2" data-name="Group 1247" transform="translate(-60.047)">
          <g id="Mask_Group_454-2" data-name="Mask Group 454" transform="translate(0 0)" clip-path="url(#clip-path-13)">
            <g id="Group_1195-2" data-name="Group 1195" transform="translate(13.01 -0.4)">
              <g id="Group_1194-2" data-name="Group 1194">
                <g id="Group_857-2" data-name="Group 857">
                  <g id="Group_855-2" data-name="Group 855">
                    <g id="Mask_Group_400-2" data-name="Mask Group 400" clip-path="url(#clip-path-14)">
                      <g id="Group_881-2" data-name="Group 881" transform="translate(103.568 24.212)">
                        <g id="Group_880-2" data-name="Group 880">
                          <path id="Path_975-3" data-name="Path 975" d="M430.215,269.906,410.643,148.554s-6.744-18.244,6.737-27.363l51.379-24.514h36.248L561.4,132.964l-35.11,136.948Z" transform="translate(-405.375 16.909)" fill="#ffcca0"/>
                          <path id="Path_988-2" data-name="Path 988" d="M472.072,86.4v39.31H431.113s10.07-15.583,5.035-39.311Z" transform="translate(-372.259 0.385)" fill="#ffcca0"/>
                          <path id="Path_989-2" data-name="Path 989" d="M445.223,109.731c-8.568,2.406-11.472-7.923-11.472-7.923s.814-6.16-2.639-15.408h36.912v5.783c-4.848,7.785-14.233,15.142-22.8,17.548Z" transform="translate(-368.209 0.386)" fill="#e9b287"/>
                          <path id="primary-2" data-name="primary" d="M537.431,266.608c-.086,4.042,5.957,46.34,3.423,46.884-.017,0-69.14,16.171-106.005,0l-.146-43.585L411.025,213.7s-4.686-80.367,4.757-89.971l57.465-27.045-3.466,10.58s3.286,19.108,13.211,16.465,26.488-27.036,26.488-27.036l53.715,32.2c-3.449,11.61,1.169,28.067-2.271,39.681-6.369,21.4-12.566,42.871-19.127,64.215C541.805,232.784,536.367,255.932,537.431,266.608Z" transform="translate(-409.862 16.912)" fill="#5d48f8"/>
                          <path id="Path_1002-2" data-name="Path 1002" d="M435.411,53.12" transform="translate(-346.641 -53.12)" fill="#cc753c"/>
                        </g>
                      </g>
                    </g>
                  </g>
                  <path id="Path_966-2" data-name="Path 966" d="M0,1.591A60.866,60.866,0,0,1,10.368,0c2.172.262,4.887,4.112,3.6,10.666S5.286,26.214,5.286,26.214Z" transform="translate(202.507 68.533) rotate(-4.992)" fill="#ffcca0"/>
                  <path id="Path_967-2" data-name="Path 967" d="M5.166,0,0,19.508l11,1.954Z" transform="translate(164.594 69.412) rotate(10.018)" fill="#ffcca0"/>
                  <g id="Group_856-2" data-name="Group 856" transform="translate(193.418 82.938) rotate(-167.993)">
                    <path id="Path_968-2" data-name="Path 968" d="M0,4.729l.687-.8A10.941,10.941,0,0,1,7.833,0,50.252,50.252,0,0,1,18.41,1.773" transform="translate(18.974 4.885) rotate(169)" fill="none" stroke="#360e0e" stroke-width="0.662"/>
                    <path id="Path_969-2" data-name="Path 969" d="M3.208,6.473C4.973,6.48,8,5.181,7.99,3.4S4.947.007,3.183,0A3.2,3.2,0,0,0,.915.952,3.165,3.165,0,0,0,0,3.224,3.247,3.247,0,0,0,3.209,6.475Z" transform="translate(8.359 0) rotate(4.012)" fill="#360e0e"/>
                  </g>
                  <path id="Path_970-2" data-name="Path 970" d="M20.011,11.318l1.167-3.743S14.849,6.149,9.383,4.815A24.414,24.414,0,0,1,0,0,10.431,10.431,0,0,0,6.36,6.9C11.709,9.079,20.011,11.318,20.011,11.318Z" transform="matrix(-0.883, 0.469, -0.469, -0.883, 195.759, 66.411)" fill="#6a2c14"/>
                  <path id="Path_971-2" data-name="Path 971" d="M6.511.015a13.385,13.385,0,0,0,1.7,0c1.455-.031,3.177,0,3.177,0L18.682.76S12.108,5.176,8.213,5.6,0,1.565,0,1.565A19.732,19.732,0,0,1,6.511.015Z" transform="translate(160.042 100.837) rotate(2.007)" fill="#e3a275"/>
                  <path id="Path_972-2" data-name="Path 972" d="M11.007,4.387S7.188,0,4.155.011A21.207,21.207,0,0,0,0,.286" transform="translate(152.957 75.025) rotate(-11)" fill="none" stroke="#360e0e" stroke-width="0.662"/>
                  <path id="Path_973-2" data-name="Path 973" d="M2.544,5.6c1.4,0,3.437-.433,3.436-1.984A4.373,4.373,0,0,0,2.543,0,2.678,2.678,0,0,0,0,2.791,2.716,2.716,0,0,0,.7,4.725,2.636,2.636,0,0,0,2.544,5.6Z" transform="translate(160.892 79.309) rotate(179.026)" fill="#360e0e"/>
                  <path id="Path_974-2" data-name="Path 974" d="M12.634.782l-.257,3.507s-3.505-.77-6.559-1.342A8.6,8.6,0,0,0,0,4.309S1.58.251,4.77.005a34.092,34.092,0,0,1,7.864.777Z" transform="translate(151.22 64.467) rotate(2.007)" fill="#6a2c14"/>
                </g>
                <path id="Path_964-2" data-name="Path 964" d="M453.313,100.271c2.54,2.57,3.493,6.443,4.723,9.863,9.49-12.7,16.471-37.647,2.957-49.083C440.685,43.87,440.279,87.1,453.313,100.271Z" transform="translate(-301.572 -9.596)" fill="#502d1f"/>
                <g id="face-5" data-name="face" transform="translate(143.607 29.366) rotate(-3)">
                  <path id="Path_4-5" data-name="Path 4" d="M73.454,57.446c8.788-22.654-4.529-45.855-12.506-50.277S35.311-4.37,21.48,3.6-2.576,21.107.573,44.849,16.881,98.83,33.746,99.211,64.665,80.111,73.454,57.446Z" transform="translate(0.003 0)" fill="#ffcca0"/>
                  <path id="Intersection_1-5" data-name="Intersection 1" d="M0,0C5.019,2.469,10.168,7.8,14.372,15.231A113.261,113.261,0,0,1,26.7,52.806C29.86,76.543,19.629,86.071,5.8,94.04A25.945,25.945,0,0,1,.124,96.454Z" transform="translate(27.278 97.693) rotate(180)" fill="#e9b287"/>
                  <path id="Path_6-5" data-name="Path 6" d="M6.318,0,0,18.873l10.983,1.864Z" transform="translate(20.994 52.03) rotate(-3)" fill="#ffcca0"/>
                  <path id="Path_7-5" data-name="Path 7" d="M0,4.719l.686-.8A10.915,10.915,0,0,1,7.828,0,50.314,50.314,0,0,1,18.407,1.783" transform="translate(38.696 51.005)" fill="none" stroke="#360e0e" stroke-width="1"/>
                  <path id="Path_8-8" data-name="Path 8" d="M16.358,5.008S11.4,0,7.627,0C4.439.21,3.048,1.07,0,2.027" transform="translate(6.548 50.695)" fill="none" stroke="#360e0e" stroke-width="1"/>
                  <path id="Path_9-9" data-name="Path 9" d="M2.677,5.609A3.121,3.121,0,0,0,5.438,2.477,2.7,2.7,0,0,0,4.544.622,2.437,2.437,0,0,0,2.652.015,2.612,2.612,0,0,0,.762.834,2.788,2.788,0,0,0,0,2.8,2.762,2.762,0,0,0,2.677,5.611Z" transform="translate(45.138 57.726) rotate(-141)" fill="#360e0e"/>
                  <path id="Path_9-10" data-name="Path 9" d="M2.677,5.609A3.121,3.121,0,0,0,5.438,2.477,2.7,2.7,0,0,0,4.544.622,2.437,2.437,0,0,0,2.652.015,2.612,2.612,0,0,0,.762.834,2.788,2.788,0,0,0,0,2.8,2.762,2.762,0,0,0,2.677,5.611Z" transform="translate(14.129 57.102) rotate(-141)" fill="#360e0e"/>
                  <path id="Path_12-8" data-name="Path 12" d="M20.706.807l-.418,3.508S14.536,3.53,9.535,2.951A21.11,21.11,0,0,0,0,4.293,10.243,10.243,0,0,1,7.813,0a90.42,90.42,0,0,1,12.893.8Z" transform="translate(3.741 40.315) rotate(4.012)" fill="#502d1f"/>
                  <path id="Path_34-2" data-name="Path 34" d="M20.009,11.343,21.174,7.6S14.846,6.165,9.382,4.825A24.426,24.426,0,0,1,0,0,10.457,10.457,0,0,0,6.361,6.914C11.71,9.1,20.009,11.343,20.009,11.343Z" transform="translate(58.572 42.594) rotate(151.001)" fill="#502d1f"/>
                  <path id="Path_13-5" data-name="Path 13" d="M7.727,1.093a18.7,18.7,0,0,0,2.01,0c1.719-.03,3.756,0,3.756,0L22.263,0S14.352,6.26,9.744,6.68,0,1.774,0,1.774a44.471,44.471,0,0,1,7.727-.682Z" transform="translate(20.151 78.424)" fill="#d6905f"/>
                </g>
                <path id="Path_1001-2" data-name="Path 1001" d="M34.711,55.77S18.492,37.757,15.139,25.892,17.432.007,17.434,0c-.085.432-1.928,1.5-2.3,1.816A70.9,70.9,0,0,0,6.971,12.828C-.824,25.783,2.361,27.66.268,35.31-1.162,40.533,3.2,62.4,11.59,69.527,11.59,69.527,31.2,70.468,34.711,55.77Z" transform="translate(230.17 99.91) rotate(177)" fill="#502d1f"/>
                <path id="Path_975-4" data-name="Path 975" d="M0,1.758A11.482,11.482,0,0,1,5.195,0C7.124.23,9.53,3.565,8.406,9.24S.7,22.7.7,22.7Z" transform="translate(211.627 72.284) rotate(-2)" fill="#ffcca0"/>
              </g>
            </g>
          </g>
          <path id="Path_61746" data-name="Path 61746" d="M9.941-4.2S36.047-5.548,48.5-4.22C60.256-2.967,67.958-2.853,75.077,6.911S79.7,31.469,79.7,31.469a66,66,0,0,0-23.138-7.315C43.048,22.492,9.941-4.2,9.941-4.2Z" transform="matrix(-0.995, 0.105, -0.105, -0.995, 227.058, 45.183)" fill="#502d1f"/>
          <path id="Path_61747" data-name="Path 61747" d="M164.642,51.058Z" fill="none" stroke="#707070" stroke-width="1"/>
          <path id="Path_61748" data-name="Path 61748" d="M160.437,48.815l3.672,2.008a25.462,25.462,0,0,0-3.672,8.654A108.746,108.746,0,0,0,158.3,73.871l-1.132-14.394Z" fill="#502d1f"/>
        </g>
      </g>
      <g id="Group_1246-2" data-name="Group 1246" transform="translate(139.014 254.355) rotate(169)">
        <path id="Rectangle_1140-2" data-name="Rectangle 1140" d="M4.052,49.234l18.378.023a3.971,3.971,0,0,0,3.99-3.965L26.368,4a4,4,0,0,0-4-3.975L3.99,0A3.971,3.971,0,0,0,0,3.965L.052,45.258A4,4,0,0,0,4.052,49.234Z" transform="translate(0 0)" fill="#e0e0e0"/>
        <path id="Rectangle_1141-2" data-name="Rectangle 1141" d="M1.608,9.529,8,9.537A1.588,1.588,0,0,0,9.6,7.951L9.588,1.6a1.6,1.6,0,0,0-1.6-1.59L1.6,0A1.588,1.588,0,0,0,0,1.586L.008,7.939A1.6,1.6,0,0,0,1.608,9.529Z" transform="translate(1.615 38.089)" fill="#fff" opacity="0.211"/>
        <g id="Ellipse_28-2" data-name="Ellipse 28" transform="translate(2.407 43.635)" fill="#2b2b2b">
          <path d="M 1.602257490158081 3.041603326797485 C 1.602209568023682 3.041603326797485 1.602189302444458 3.041603326797485 1.602141499519348 3.041603326797485 L 1.600251436233521 3.041603326797485 C 0.7931914925575256 3.040603399276733 0.135781466960907 2.387633323669434 0.1347814649343491 1.586023449897766 C 0.1342914700508118 1.200053453445435 0.2845214605331421 0.8368034362792969 0.557781457901001 0.5632033944129944 C 0.833701491355896 0.286933422088623 1.201721429824829 0.1347834169864655 1.594031453132629 0.1347834169864655 C 2.402971506118774 0.1357834190130234 3.060381412506104 0.7887533903121948 3.061381578445435 1.590363383293152 C 3.061871528625488 1.976373434066772 2.911621570587158 2.339643478393555 2.638331413269043 2.613253355026245 C 2.362445116043091 2.889469623565674 1.994473695755005 3.041603326797485 1.602257490158081 3.041603326797485 Z" stroke="none"/>
          <path d="M 1.602241516113281 2.906823396682739 C 1.95846152305603 2.906823396682739 2.292561531066895 2.768733501434326 2.543001413345337 2.51797342300415 C 2.790811538696289 2.269853353500366 2.927041530609131 1.940483450889587 2.926601409912109 1.590533375740051 C 2.925691366195679 0.8630633950233459 2.328671455383301 0.2704734206199646 1.594031453132629 0.2695634067058563 C 1.237751483917236 0.2695634067058563 0.9036014676094055 0.4076734185218811 0.6531414985656738 0.6584433913230896 C 0.4053414762020111 0.9065533876419067 0.2691214680671692 1.235913395881653 0.2695614695549011 1.585853457450867 C 0.2704714834690094 2.313323497772217 0.8674914836883545 2.905913352966309 1.600081443786621 2.906823396682739 L 1.602131485939026 2.906823396682739 L 1.602241516113281 2.906823396682739 M 1.602129220962524 3.176384687423706 C 1.60148298740387 3.176384687423706 1.600727915763855 3.176384210586548 1.600081443786621 3.176383495330811 C 0.7174814939498901 3.175283432006836 0.001101469504646957 2.463333368301392 1.469535845899372e-06 1.586193442344666 C -0.00109772477298975 0.7097058296203613 0.7123363614082336 2.166595550079364e-06 1.594033718109131 2.166595550079364e-06 C 1.594679951667786 2.166595550079364e-06 1.5954350233078 2.610931460367283e-06 1.596081495285034 3.416595518501708e-06 C 2.478681564331055 0.001103416550904512 3.195061445236206 0.7130534052848816 3.196161508560181 1.590193390846252 C 3.197260618209839 2.466681003570557 2.483826637268066 3.176443099975586 1.602129220962524 3.176384687423706 Z" stroke="none" fill="#262626"/>
        </g>
        <g id="Ellipse_29-2" data-name="Ellipse 29" transform="translate(2.332 39.664)" fill="#2b2b2b">
          <path d="M 1.602257490158081 3.041603326797485 C 1.602209568023682 3.041603326797485 1.602189302444458 3.041603326797485 1.602141499519348 3.041603326797485 L 1.600251436233521 3.041603326797485 C 0.7931914925575256 3.040603399276733 0.135781466960907 2.387633323669434 0.1347814649343491 1.586023449897766 C 0.1342914700508118 1.200053453445435 0.2845214605331421 0.8368034362792969 0.557781457901001 0.5632033944129944 C 0.833701491355896 0.286933422088623 1.201721429824829 0.1347834169864655 1.594031453132629 0.1347834169864655 C 2.402971506118774 0.1357834190130234 3.060381412506104 0.7887533903121948 3.061381578445435 1.590363383293152 C 3.061871528625488 1.976373434066772 2.911621570587158 2.339643478393555 2.638331413269043 2.613253355026245 C 2.362445116043091 2.889469623565674 1.994473695755005 3.041603326797485 1.602257490158081 3.041603326797485 Z" stroke="none"/>
          <path d="M 1.602241516113281 2.906823396682739 C 1.95846152305603 2.906823396682739 2.292561531066895 2.768733501434326 2.543001413345337 2.51797342300415 C 2.790811538696289 2.269853353500366 2.927041530609131 1.940483450889587 2.926601409912109 1.590533375740051 C 2.925691366195679 0.8630633950233459 2.328671455383301 0.2704734206199646 1.594031453132629 0.2695634067058563 C 1.237751483917236 0.2695634067058563 0.9036014676094055 0.4076734185218811 0.6531414985656738 0.6584433913230896 C 0.4053414762020111 0.9065533876419067 0.2691214680671692 1.235913395881653 0.2695614695549011 1.585853457450867 C 0.2704714834690094 2.313323497772217 0.8674914836883545 2.905913352966309 1.600081443786621 2.906823396682739 L 1.602131485939026 2.906823396682739 L 1.602241516113281 2.906823396682739 M 1.602129220962524 3.176384687423706 C 1.60148298740387 3.176384687423706 1.600727915763855 3.176384210586548 1.600081443786621 3.176383495330811 C 0.7174814939498901 3.175283432006836 0.001101469504646957 2.463333368301392 1.469535845899372e-06 1.586193442344666 C -0.00109772477298975 0.7097058296203613 0.7123363614082336 2.166595550079364e-06 1.594033718109131 2.166595550079364e-06 C 1.594679951667786 2.166595550079364e-06 1.5954350233078 2.610931460367283e-06 1.596081495285034 3.416595518501708e-06 C 2.478681564331055 0.001103416550904512 3.195061445236206 0.7130534052848816 3.196161508560181 1.590193390846252 C 3.197260618209839 2.466681003570557 2.483826637268066 3.176443099975586 1.602129220962524 3.176384687423706 Z" stroke="none" fill="#262626"/>
        </g>
        <g id="Ellipse_30-2" data-name="Ellipse 30" transform="translate(7.201 43.557)" fill="#2b2b2b">
          <path d="M 1.602257490158081 3.041603326797485 C 1.602209568023682 3.041603326797485 1.602189302444458 3.041603326797485 1.602141499519348 3.041603326797485 L 1.600251436233521 3.041603326797485 C 0.7931914925575256 3.040603399276733 0.135781466960907 2.387633323669434 0.1347814649343491 1.586023449897766 C 0.1342914700508118 1.200053453445435 0.2845214605331421 0.8368034362792969 0.557781457901001 0.5632033944129944 C 0.833701491355896 0.286933422088623 1.201721429824829 0.1347834169864655 1.594031453132629 0.1347834169864655 C 2.402971506118774 0.1357834190130234 3.060381412506104 0.7887533903121948 3.061381578445435 1.590363383293152 C 3.061871528625488 1.976373434066772 2.911621570587158 2.339643478393555 2.638331413269043 2.613253355026245 C 2.362445116043091 2.889469623565674 1.994473695755005 3.041603326797485 1.602257490158081 3.041603326797485 Z" stroke="none"/>
          <path d="M 1.602241516113281 2.906823396682739 C 1.95846152305603 2.906823396682739 2.292561531066895 2.768733501434326 2.543001413345337 2.51797342300415 C 2.790811538696289 2.269853353500366 2.927041530609131 1.940483450889587 2.926601409912109 1.590533375740051 C 2.925691366195679 0.8630633950233459 2.328671455383301 0.2704734206199646 1.594031453132629 0.2695634067058563 C 1.237751483917236 0.2695634067058563 0.9036014676094055 0.4076734185218811 0.6531414985656738 0.6584433913230896 C 0.4053414762020111 0.9065533876419067 0.2691214680671692 1.235913395881653 0.2695614695549011 1.585853457450867 C 0.2704714834690094 2.313323497772217 0.8674914836883545 2.905913352966309 1.600081443786621 2.906823396682739 L 1.602131485939026 2.906823396682739 L 1.602241516113281 2.906823396682739 M 1.602129220962524 3.176384687423706 C 1.60148298740387 3.176384687423706 1.600727915763855 3.176384210586548 1.600081443786621 3.176383495330811 C 0.7174814939498901 3.175283432006836 0.001101469504646957 2.463333368301392 1.469535845899372e-06 1.586193442344666 C -0.00109772477298975 0.7097058296203613 0.7123363614082336 2.166595550079364e-06 1.594033718109131 2.166595550079364e-06 C 1.594679951667786 2.166595550079364e-06 1.5954350233078 2.610931460367283e-06 1.596081495285034 3.416595518501708e-06 C 2.478681564331055 0.001103416550904512 3.195061445236206 0.7130534052848816 3.196161508560181 1.590193390846252 C 3.197260618209839 2.466681003570557 2.483826637268066 3.176443099975586 1.602129220962524 3.176384687423706 Z" stroke="none" fill="#262626"/>
        </g>
      </g>
      <g id="Group_861-2" data-name="Group 861" transform="translate(130.863 168.655)">
        <path id="Path_986-2" data-name="Path 986" d="M29.639,13.366,56.886,124.589c-.6,27.643-22.029,31.756-22.029,31.756C14.7,158.771,10.27,136.878,10.27,136.878L.447,25.545S-2.873.517,8.582.162C8.588.162,27.813-2.459,29.639,13.366Z" transform="translate(110.995 155.939) rotate(175.008)" fill="#ffcca0"/>
        <path id="Path_987-2" data-name="Path 987" d="M34.016,109.514s-.217-31.942-3.78-59.32A349.49,349.49,0,0,0,19.763,0L8.179.956S-5.1,87.505,2.185,116.263C2.183,116.262,23.965,129.282,34.016,109.514Z" transform="matrix(0.602, -0.799, 0.799, 0.602, 0, 95.574)" fill="#ffcca0"/>
      </g>
      <path id="Path_1694-2" data-name="Path 1694" d="M-309.72,314.807v-10.35l-7.821-8.242,1.4,8.245-29.48-6.785v14.062l18.7,14.211,15.26,5.2,5.446-9.143Z" transform="translate(450.109 -72.096)" fill="#ffcca0"/>
      <path id="primary-3" data-name="primary" d="M29.38,106.061S6.826,90.76,1.918,77.2,3.069,22.742,3.069,22.742L45.824,0l15.75,76.06Z" transform="translate(236.175 249.675) rotate(166)" fill="#5d48f8"/>
      <path id="Path_61745" data-name="Path 61745" d="M-.6,17.259-3.642,3.007s34.106,4.964,46.271,12.8S62.2,41.2,62.2,41.2a55.336,55.336,0,0,0-19.576-7.26C31,31.973,25.96,34.7,15.948,31.373S-.6,17.259-.6,17.259Z" transform="matrix(-0.978, 0.208, -0.208, -0.978, 173.514, 48.563)" fill="#502d1f"/>
    </g>
  </g>
</svg>
