<svg width="144" height="40" viewBox="0 0 144 40" fill="none" xmlns="http://www.w3.org/2000/svg">
<path fill-rule="evenodd" clip-rule="evenodd" d="M8.81814 19.8807C8.81814 20.1521 9.03837 20.3722 9.30994 20.3722H14.1445C14.4161 20.3722 14.6363 20.1521 14.6363 19.8807V17.4652H17.0536C17.3251 17.4652 17.5454 17.2451 17.5454 16.9737V15.0496C17.5454 14.7782 17.3251 14.5582 17.0536 14.5582H9.30994C9.03837 14.5582 8.81814 14.7782 8.81814 15.0496V19.8807ZM8.81814 9.21898C8.81814 8.9476 8.59792 8.72754 8.32635 8.72754H3.49179C3.22022 8.72754 3 8.9476 3 9.21898V14.0501C3 14.3215 3.22022 14.5415 3.49179 14.5415H5.41728C5.68885 14.5415 5.90907 14.3215 5.90907 14.0501V11.6345H8.32635C8.59792 11.6345 8.81814 11.4145 8.81814 11.1431V9.21898ZM11.7272 26.6609C11.7272 26.3895 11.507 26.1695 11.2354 26.1695H9.30994C9.03837 26.1695 8.81814 26.3895 8.81814 26.6609V28.585C8.81814 28.8564 9.03837 29.0765 9.30994 29.0765H11.2354C11.507 29.0765 11.7272 28.8564 11.7272 28.585V26.6609ZM46.1443 8.72754H41.3097C41.0382 8.72754 40.8179 8.9476 40.8179 9.21898V11.1431C40.8179 11.4145 41.0382 11.6345 41.3097 11.6345H43.727V14.0501C43.727 14.3215 43.9472 14.5415 44.2188 14.5415H46.1443C46.4159 14.5415 46.6361 14.3215 46.6361 14.0501V9.21898C46.6361 8.9476 46.4159 8.72754 46.1443 8.72754ZM40.3261 14.5415H32.5825C32.3109 14.5415 32.0907 14.7616 32.0907 15.033V16.9571C32.0907 17.2284 32.3109 17.4485 32.5825 17.4485H34.9998V19.8641C34.9998 20.1354 35.22 20.3555 35.4916 20.3555H40.3261C40.5977 20.3555 40.8179 20.1354 40.8179 19.8641V15.033C40.8179 14.7616 40.5977 14.5415 40.3261 14.5415ZM37.4171 29.0931H34.9998V26.6776C34.9998 26.4062 34.7796 26.1861 34.508 26.1861H32.0907V20.8636C32.0907 20.5922 31.8705 20.3722 31.5989 20.3722H29.1817V15.0496C29.1817 14.7782 28.9614 14.5582 28.6899 14.5582H20.9462C20.6747 14.5582 20.4544 14.7782 20.4544 15.0496V20.3722H18.0372C17.7655 20.3722 17.5454 20.5922 17.5454 20.8636V26.1861H15.1281C14.8565 26.1861 14.6363 26.4062 14.6363 26.6776V29.0931H12.219C11.9474 29.0931 11.7272 29.3132 11.7272 29.5846V31.5087C11.7272 31.7801 11.9474 32.0001 12.219 32.0001H17.0536C17.3251 32.0001 17.5454 31.7801 17.5454 31.5087V29.0931H19.9626C20.2342 29.0931 20.4544 28.8731 20.4544 28.6017V23.2791H29.1817V28.6017C29.1817 28.8731 29.4019 29.0931 29.6734 29.0931H32.0907V31.5087C32.0907 31.7801 32.3109 32.0001 32.5825 32.0001H37.4171C37.6886 32.0001 37.9089 31.7801 37.9089 31.5087V29.5846C37.9089 29.3132 37.6886 29.0931 37.4171 29.0931ZM40.3261 26.1695H38.4007C38.1291 26.1695 37.9089 26.3895 37.9089 26.6609V28.585C37.9089 28.8564 38.1291 29.0765 38.4007 29.0765H40.3261C40.5977 29.0765 40.8179 28.8564 40.8179 28.585V26.6609C40.8179 26.3895 40.5977 26.1695 40.3261 26.1695Z" fill="#002366"/>
<path fill-rule="evenodd" clip-rule="evenodd" d="M15.1266 8.72722H34.5065C34.778 8.72722 34.9983 8.507 34.9983 8.23543V6.30994C34.9983 6.03828 34.778 5.81815 34.5065 5.81815H32.0892V3.40086C32.0892 3.1293 31.869 2.90907 31.5974 2.90907H29.1801V0.491792C29.1801 0.220223 28.9599 0 28.6883 0H20.9447C20.6731 0 20.4529 0.220223 20.4529 0.491792V2.90907H18.0356C17.7641 2.90907 17.5438 3.1293 17.5438 3.40086V5.81815H15.1266C14.855 5.81815 14.6348 6.03828 14.6348 6.30994V8.23543C14.6348 8.507 14.855 8.72722 15.1266 8.72722Z" fill="#2BD4AB"/>
<path fill-rule="evenodd" clip-rule="evenodd" d="M93.8523 14.2523C92.3219 14.2523 90.9394 14.8819 89.9667 15.8916C89.0163 14.878 87.6626 14.2445 86.1623 14.2445C85.3205 14.2445 84.4616 14.5528 83.7992 14.9982V14.8506C83.7992 14.6377 83.6225 14.4757 83.4169 14.4757H81.2827C81.0785 14.4757 80.9004 14.6377 80.9004 14.8506V25.4827C80.9004 25.6956 81.0772 25.8576 81.2827 25.8576H83.4221C83.6264 25.8576 83.8044 25.6956 83.8044 25.4827V19.4456C83.8044 18.1447 84.8609 17.0919 86.1623 17.0919C87.4649 17.0919 88.5201 18.146 88.5201 19.4456V25.4827C88.5201 25.6956 88.6968 25.8576 88.9024 25.8576H90.9918C90.997 25.8576 91.001 25.8576 91.0036 25.8576H91.0507C91.2549 25.8576 91.433 25.6956 91.433 25.4827V19.4495C91.433 18.1551 92.5117 17.0972 93.8523 17.0972C95.1929 17.0972 96.2717 18.1551 96.2717 19.4495V25.4814C96.2717 25.6943 96.4484 25.8563 96.654 25.8563H98.801C99.0066 25.8563 99.1833 25.6943 99.1833 25.4814V19.4495C99.182 16.5747 96.7914 14.2523 93.8523 14.2523ZM109.858 19.9629C109.043 19.4678 107.997 19.2301 107.085 19.0237L107.067 19.0198C106.405 18.8696 105.823 18.7364 105.404 18.5405C104.989 18.3471 104.801 18.1251 104.801 17.8195C104.801 17.5556 104.9 17.3218 105.136 17.1376C105.378 16.9483 105.779 16.802 106.398 16.7654C107.453 16.7654 108.27 16.7902 108.823 16.815C109.1 16.8268 109.311 16.8398 109.451 16.849C109.522 16.8542 109.575 16.8568 109.611 16.8594C109.629 16.8607 109.642 16.862 109.65 16.862L109.659 16.8634H109.662L109.671 16.8647H109.68C109.844 16.8647 109.993 16.8333 110.095 16.7275C110.185 16.6335 110.204 16.5133 110.212 16.4545C110.212 16.4506 110.213 16.4467 110.213 16.4441C110.217 16.4193 110.22 16.401 110.223 16.384L110.229 16.3618V15.0517C110.229 14.8924 110.218 14.7461 110.157 14.6337C110.081 14.494 109.954 14.4496 109.852 14.4274L109.842 14.4261L109.833 14.4248H109.829L109.819 14.4234C109.81 14.4221 109.797 14.4208 109.78 14.4195C109.744 14.4156 109.692 14.4104 109.623 14.4039C109.482 14.3908 109.273 14.3738 108.99 14.3568C108.425 14.3229 107.566 14.2889 106.39 14.2889H106.386H106.382C104.877 14.3451 103.735 14.763 102.967 15.424C102.196 16.0862 101.816 16.9796 101.816 17.9462C101.816 18.5823 101.963 19.1034 102.222 19.5331C102.48 19.9616 102.842 20.2868 103.256 20.5415C104.072 21.0418 105.116 21.2834 106.026 21.4937L106.045 21.4976C106.708 21.6504 107.291 21.7863 107.71 21.9848C108.124 22.1807 108.316 22.4067 108.316 22.7215C108.316 22.984 108.194 23.2178 107.9 23.3968C107.593 23.5822 107.097 23.7063 106.367 23.7063C105.537 23.7063 104.631 23.6175 103.929 23.5274C103.578 23.483 103.281 23.4373 103.07 23.4033C102.965 23.3863 102.882 23.3719 102.825 23.3628C102.81 23.3602 102.796 23.3576 102.785 23.3563C102.776 23.355 102.766 23.3537 102.76 23.3524L102.744 23.3497L102.739 23.3484L102.721 23.3445H102.702C102.553 23.3445 102.412 23.3719 102.312 23.4725C102.224 23.56 102.205 23.6763 102.197 23.7298C102.196 23.7338 102.196 23.7377 102.196 23.7403C102.19 23.769 102.186 23.7873 102.182 23.8056L102.177 23.8265L102.095 25.3051V25.3103C102.095 25.4069 102.109 25.5219 102.162 25.6251C102.215 25.7348 102.312 25.8328 102.46 25.8706L102.465 25.8719L102.471 25.8732L102.477 25.8393C102.471 25.8732 102.471 25.8732 102.471 25.8732H102.472L102.476 25.8746C102.478 25.8759 102.484 25.8759 102.49 25.8772C102.502 25.8798 102.52 25.8824 102.544 25.8876C102.591 25.8968 102.659 25.9085 102.749 25.9229C102.93 25.9516 103.193 25.9895 103.534 26.0287C104.212 26.1057 105.191 26.1815 106.395 26.1815H106.405C106.553 26.1828 107.756 26.1919 108.93 25.7518C109.519 25.531 110.113 25.1927 110.561 24.6729C111.013 24.1491 111.305 23.4503 111.305 22.5334C111.305 21.9038 111.157 21.3866 110.898 20.9608C110.636 20.535 110.273 20.2137 109.858 19.9629ZM133.985 14.4822C132.79 14.4822 131.673 14.8179 130.735 15.3991V10.5277C130.735 10.3148 130.558 10.1528 130.352 10.1528H128.21C128.006 10.1528 127.828 10.3148 127.828 10.5277V25.4853C127.828 25.6982 128.005 25.8602 128.21 25.8602H130.352C130.557 25.8602 130.735 25.6982 130.735 25.4853V24.9877C131.62 25.6773 132.793 26.1802 133.985 26.1802C137.318 26.1802 140.031 23.5679 140.031 20.3312C140.031 17.0945 137.318 14.4822 133.985 14.4822ZM133.985 23.3563C132.257 23.3563 130.855 22.0018 130.855 20.3312C130.855 18.6606 132.256 17.3061 133.985 17.3061C135.713 17.3061 137.115 18.6606 137.115 20.3312C137.115 22.0018 135.715 23.3563 133.985 23.3563ZM124.533 14.4822H122.386C122.18 14.4822 122.003 14.6442 122.003 14.8571V21.0405C122.003 22.3166 120.927 23.3628 119.584 23.3628C119.578 23.3628 119.572 23.3628 119.566 23.3628C119.559 23.3628 119.554 23.3628 119.547 23.3628C118.204 23.3628 117.128 22.3166 117.128 21.0405V14.8571C117.128 14.6442 116.951 14.4822 116.746 14.4822H114.599C114.393 14.4822 114.216 14.6442 114.216 14.8571V21.0405C114.216 23.8853 116.61 26.1789 119.547 26.1789C119.554 26.1789 119.559 26.1789 119.566 26.1789C119.572 26.1789 119.578 26.1789 119.584 26.1789C122.521 26.1789 124.915 23.8853 124.915 21.0405V14.8571C124.915 14.6442 124.738 14.4822 124.533 14.4822ZM62.9433 19.9629C62.1277 19.4678 61.0817 19.2301 60.1705 19.0237L60.1521 19.0198C59.4897 18.8696 58.9084 18.7364 58.4895 18.5405C58.0745 18.3471 57.886 18.1251 57.886 17.8195C57.886 17.5556 57.9855 17.3218 58.2211 17.1376C58.4633 16.9483 58.8639 16.802 59.4831 16.7654C60.5383 16.7654 61.3553 16.7902 61.9077 16.815C62.1853 16.8268 62.3961 16.8398 62.5361 16.849C62.6068 16.8542 62.6605 16.8568 62.6959 16.8594C62.7142 16.8607 62.7273 16.862 62.7351 16.862L62.7443 16.8634H62.7469L62.7561 16.8647H62.7653C62.9289 16.8647 63.0781 16.8333 63.1803 16.7275C63.2706 16.6335 63.2889 16.5133 63.2968 16.4545C63.2968 16.4506 63.2981 16.4467 63.2981 16.4441C63.302 16.4193 63.3046 16.401 63.3086 16.384L63.3138 16.3618V15.0517C63.3138 14.8924 63.3033 14.7461 63.2418 14.6337C63.1659 14.494 63.0389 14.4496 62.9368 14.4274L62.9276 14.4261L62.9184 14.4248H62.9145L62.904 14.4234C62.8949 14.4221 62.8818 14.4208 62.8647 14.4195C62.8294 14.4156 62.777 14.4104 62.7076 14.4039C62.5676 14.3908 62.3581 14.3738 62.0753 14.3568C61.5098 14.3229 60.6509 14.2889 59.4753 14.2889H59.4714H59.4674C57.9619 14.3451 56.8203 14.763 56.0518 15.424C55.282 16.0862 54.9023 16.9796 54.9023 17.9462C54.9023 18.5823 55.049 19.1034 55.3082 19.5331C55.5661 19.9616 55.9287 20.2868 56.3424 20.5415C57.1581 21.0418 58.2028 21.2834 59.1127 21.4937L59.131 21.4976C59.7947 21.6504 60.3773 21.7863 60.7963 21.9848C61.21 22.1807 61.4024 22.4067 61.4024 22.7215C61.4024 22.984 61.2806 23.2178 60.9861 23.3968C60.6797 23.5822 60.1836 23.7063 59.453 23.7063C58.623 23.7063 57.7171 23.6175 57.0154 23.5274C56.6645 23.483 56.3673 23.4373 56.1565 23.4033C56.0518 23.3863 55.968 23.3719 55.9117 23.3628C55.896 23.3602 55.8829 23.3576 55.8711 23.3563C55.862 23.355 55.8528 23.3537 55.8463 23.3524L55.8305 23.3497L55.8253 23.3484L55.807 23.3445H55.7873C55.6381 23.3445 55.4967 23.3719 55.3972 23.4725C55.3095 23.56 55.2899 23.6763 55.282 23.7298C55.2807 23.7338 55.2807 23.7377 55.2807 23.7403C55.2755 23.769 55.2715 23.7873 55.2676 23.8056L55.2624 23.8265L55.1773 25.3038V25.309C55.1773 25.4056 55.1917 25.5206 55.244 25.6238C55.2977 25.7335 55.3946 25.8314 55.5425 25.8693L55.5478 25.8706L55.553 25.8719L55.5595 25.838C55.553 25.8719 55.553 25.8719 55.553 25.8719H55.5543L55.5582 25.8732C55.5609 25.8746 55.5661 25.8745 55.5726 25.8759C55.5844 25.8785 55.6028 25.8811 55.6263 25.8863C55.6734 25.8954 55.7415 25.9072 55.8319 25.9216C56.0125 25.9503 56.2757 25.9882 56.6161 26.0274C57.2942 26.1044 58.2735 26.1802 59.4779 26.1802H59.4871C59.635 26.1815 60.8381 26.1906 62.0125 25.7505C62.6016 25.5297 63.196 25.1914 63.6437 24.6716C64.0954 24.1478 64.3873 23.449 64.3873 22.5321C64.3873 21.9025 64.2394 21.3853 63.9802 20.9595C63.7209 20.535 63.3583 20.2137 62.9433 19.9629ZM77.6095 14.4822H75.4625C75.2569 14.4822 75.0802 14.6442 75.0802 14.8571V21.0405C75.0802 22.3166 74.0041 23.3628 72.6608 23.3628C72.6543 23.3628 72.6491 23.3628 72.6425 23.3628C72.636 23.3628 72.6307 23.3628 72.6242 23.3628C71.281 23.3628 70.2048 22.3166 70.2048 21.0405V14.8571C70.2048 14.6442 70.0281 14.4822 69.8225 14.4822H67.6755C67.47 14.4822 67.2932 14.6442 67.2932 14.8571V21.0405C67.2932 23.8853 69.6864 26.1789 72.6242 26.1789C72.6307 26.1789 72.636 26.1789 72.6425 26.1789C72.6491 26.1789 72.6543 26.1789 72.6608 26.1789C75.5973 26.1789 77.9918 23.8853 77.9918 21.0405V14.8571C77.9918 14.6442 77.8151 14.4822 77.6095 14.4822Z" fill="#002366"/>
</svg>
