<?xml version="1.0" encoding="utf-8"?>
<!-- Generator: Adobe Illustrator 24.0.2, SVG Export Plug-In . SVG Version: 6.00 Build 0)  -->
<svg version="1.1" id="Layer_1" xmlns="http://www.w3.org/2000/svg" xmlns:xlink="http://www.w3.org/1999/xlink" x="0px" y="0px"
	 viewBox="0 0 1200 1200" style="enable-background:new 0 0 1200 1200;" xml:space="preserve">
<style type="text/css">
	.st0{fill:#FEFEFE;}
	.st1{fill:#010101;}
</style>
<g>
	<path fill="#010101" d="M600,1001.1c-109.3,0-218.6,0-327.9,0c-66.4,0-123.5-39-147.6-100.6c-35.7-91.2,23.2-194.8,119.7-210.7
		c10.1-1.7,20.2-2.3,30.3-2.3c29.5,0,59-0.1,88.5,0.1c4.1,0,5.2-0.9,5.2-5.1c-0.1-70.3-0.1-140.6-0.1-211c0-8.5,1.3-9.8,9.8-9.8
		c23.2,0,46.3-0.2,69.5,0.1c4.8,0.1,5.6-1.5,5.6-5.8c-0.1-38-0.4-76,0-114c0.8-69.2,53.6-130.1,121.8-141.1
		c73.9-11.9,142.9,30.1,165.5,100.8c4.8,15,6.8,30.5,6.8,46.2c-0.1,36.2,0.1,72.3-0.2,108.5c0,4.6,1.4,5.4,5.6,5.3
		c23.2-0.2,46.3-0.1,69.5-0.1c8.6,0,9.9,1.3,9.9,9.8c0,70.2,0,140.3-0.1,210.5c0,4.6,1.1,5.7,5.7,5.7c32.5-0.1,65-0.6,97.5,0.2
		c67.3,1.6,126.9,48.6,145,113.6c24.4,87.5-28.7,176.3-117.2,196.1c-11.7,2.6-23.7,3.5-35.7,3.5C818,1001.1,709,1001.1,600,1001.1z"
		/>
	<path fill="#010101" class="st0" d="M599.8,474c45.6,0,91.3,0,136.9,0c26.2,0,52.3-0.1,78.5-0.3c3.5,0,4.8,0.6,4.8,4.5
		c-0.1,68.1-0.1,136.3,0,204.4c0,3.8-0.9,4.6-4.7,4.6c-143.6-0.1-287.2-0.1-430.8,0c-3.4,0-4.5-0.7-4.5-4.3
		c0.1-68.3,0.1-136.6,0-204.9c0-3.5,0.9-4.4,4.4-4.4c26.2,0.2,52.3,0.2,78.5,0.3C508.5,474,554.2,474,599.8,474z"/>
	<path fill="#010101" class="st0" d="M599.9,699.8c73,0,146,0.2,219-0.1c38.8-0.1,77.7-0.9,116.5,0.1c63.5,1.7,119.6,47.9,134.4,109.6
		c18.5,77.4-26.8,154-103.4,174.8c-12.3,3.3-24.8,4.8-37.5,4.8c-219.1,0-438.3,0-657.4-0.1c-73.3,0-133.8-52.9-144.1-125.3
		c-10.8-76.4,42.1-148.7,118.3-162c9.4-1.6,18.8-2.2,28.3-2.2c31.3-0.1,62.7,0,94,0c77.3,0,154.6,0,231.9,0
		C599.9,699.6,599.9,699.7,599.9,699.8z"/>
	<path fill="#010101" class="st0" d="M599.9,461.8c-24.6,0-49.3-0.1-73.9,0.1c-3.6,0-4.8-0.7-4.8-4.6c0.2-37-0.1-73.9,0.1-110.9
		c0.3-44.7,35.7-79.6,79.8-79.2c42.3,0.4,76.7,34.4,77.5,77.4c0.7,37.8,0.1,75.6,0.3,113.4c0,3.8-1.8,3.8-4.5,3.8
		C649.5,461.7,624.7,461.8,599.9,461.8z"/>
	<path fill="#010101" class="st0" d="M465,396.3c0-18.2-0.2-36.3,0-54.5c0.9-62.7,49.1-118.6,110.9-128.9c70.4-11.7,135.2,29.2,154.4,97.5
		c3.3,11.8,4.8,23.8,4.7,36c0,36.8-0.1,73.6,0.1,110.5c0,3.9-1,4.6-4.7,4.6c-11.8-0.2-23.7-0.2-35.5,0c-3.6,0.1-4.3-1.1-4.3-4.5
		c0.1-36.7,0.4-73.3,0-110c-0.4-35.5-15.9-62.9-46.9-80.4c-56.5-32-128.2,6-134,70.6c-1.1,12.3-0.5,24.6-0.5,37
		c-0.1,27.5-0.1,55,0.1,82.5c0,4-1.2,4.9-5,4.8c-11.8-0.2-23.7-0.2-35.5,0c-3.4,0.1-4.1-1-4-4.2C465,437,464.9,416.7,465,396.3
		C464.9,396.3,465,396.3,465,396.3z"/>
	<path fill="#010101" class="st1" fill="#010101" d="M600.2,574.7c55,0,110,0,165,0c7.4,0,10.1,1.6,10.1,5.9c0,4.4-2.8,6.1-10,6.1c-110.1,0-220.3,0-330.4,0
		c-0.2,0-0.3,0-0.5,0c-6.8,0-9.6-1.7-9.6-6c0-4.3,2.6-6,9.5-6C489.5,574.7,544.9,574.7,600.2,574.7z"/>
	<path fill="#010101" d="M600.1,643c-55.1,0-110.2,0-165.4,0c-1.5,0-3,0.1-4.5-0.1c-3.2-0.3-5.2-2.2-5.4-5.4c-0.3-3.5,1.7-5.7,5-6.4
		c1.4-0.3,3-0.1,4.5-0.1c110.4,0,220.8,0,331.2,0c1.3,0,2.7-0.1,4,0.1c3.7,0.4,5.8,2.5,5.7,6.3c-0.1,3.5-2.3,5.4-5.8,5.6
		c-1.3,0.1-2.7,0-4,0C710.3,643,655.2,643,600.1,643z"/>
	<path fill="#010101" d="M599.7,530.1c-55,0-109.9,0-164.9,0c-1.5,0-3,0.1-4.5,0c-3.3-0.2-5.2-2.1-5.5-5.3c-0.3-3.5,1.6-5.7,4.9-6.5
		c1.4-0.3,3-0.2,4.5-0.2c110.6,0,221.1,0,331.7,0c1.7,0,3.4-0.1,4.9,0.3c3.1,0.9,4.7,3.1,4.3,6.4c-0.3,3-2.1,4.8-5.1,5.2
		c-1.5,0.2-3,0.1-4.5,0.1C710.2,530.1,655,530.1,599.7,530.1z"/>
	<path fill="#010101" d="M600.5,728.8c109,0,218,0,326.9,0c52.2,0,96,31.6,111.8,80.5c22.2,68.6-24.4,141.3-95.9,149.8c-5.3,0.6-10.6,0.9-15.9,0.9
		c-218.3,0-436.6,0-654.9,0c-56.7,0-102.6-36.9-114.9-92.1c-13.7-62,28.7-125.8,91.1-137.1c8.2-1.5,16.5-2.1,24.8-2.1
		C382.6,728.8,491.5,728.8,600.5,728.8z"/>
	<path fill="#010101" class="st0" d="M600.2,740.8c109.1,0,218.3,0,327.4,0c48.7,0,89,30.5,101.5,76.8c16.4,60.3-24.6,121.5-86.8,129.6
		c-4.8,0.6-9.6,0.8-14.4,0.8c-218.6,0-437.2,0-655.9,0c-50.2,0-91.1-32.7-102.4-81.4c-13.5-58.1,27.4-116.8,86.7-124.8
		c5.8-0.8,11.6-0.9,17.4-1C382.6,740.8,491.4,740.8,600.2,740.8z"/>
	<path fill="#010101" d="M456.9,840.2c0-11.3,0-22.1,0-32.9c0-5.3,2.2-8.1,6-8.1c3.7,0,6,3,6,8.2c0,10.8,0,21.5,0,32.8c10.9-3.5,21.3-6.9,31.7-10.3
		c2.5-0.8,4.8-1.2,7.1,0.5c4,3.1,2.8,8.7-2.4,10.5c-9.2,3.2-18.5,6.3-27.9,9c-4.5,1.3-4.4,2.7-1.8,6c5.5,7.1,10.6,14.5,15.9,21.7
		c3.4,4.7,3.5,8.1,0.4,10.5c-3.3,2.5-6.6,1.3-10.2-3.6c-6.2-8.4-12.3-16.9-18.8-25.8c-6.6,9.1-12.9,17.7-19.2,26.4
		c-3.1,4.3-6.4,5.4-9.6,3.3c-3.2-2.2-3.3-5.9,0-10.4c5.6-7.7,11-15.4,16.8-23c2.3-3,1.6-3.8-1.7-4.8c-9.4-2.8-18.6-6-27.9-9.1
		c-4.6-1.5-6.6-4.6-5-8.1c1.7-3.9,4.7-4.5,8.7-3.2C435.4,833.4,446,836.7,456.9,840.2z"/>
	<path fill="#010101" d="M868.2,840.2c0-10.2,0-20,0-29.8c0-1.7-0.1-3.3,0-5c0.3-3.6,2.3-6.1,6-6.1c3.9,0,6,2.5,6,6.5c0,9.7,0,19.3,0,29
		c0,1.6,0,3.2,0,5.4c10.2-3.3,20-6.4,29.8-9.6c0.9-0.3,1.9-0.6,2.8-0.9c3.8-1.4,6.8-0.3,8.1,3.4c1.4,4-0.5,6.7-4.5,8
		c-9.3,3-18.6,6.2-28,9c-3.9,1.2-4.1,2.3-1.6,5.4c5.8,7.5,11.1,15.3,16.8,23c2.5,3.4,3.4,6.6-0.2,9.6c-3,2.5-6.5,1.5-9.6-2.8
		c-6.4-8.7-12.7-17.5-19.4-26.7c-6,8.2-11.8,16.2-17.7,24.2c-0.9,1.2-1.7,2.4-2.7,3.6c-2.4,3.1-5.5,4-8.7,1.6
		c-3.3-2.4-3.1-5.7-0.9-8.8c5.6-7.8,11.1-15.8,17.1-23.3c3.2-4,2.1-5-2.2-6.2c-9.1-2.6-18-5.9-27-8.7c-3.9-1.3-6.2-3.7-4.8-7.7
		c1.3-4,4.4-4.9,8.4-3.6C846.5,833.3,857.1,836.6,868.2,840.2z"/>
	<path fill="#010101" d="M737.1,858.8c-6.6,9.1-13,17.8-19.3,26.5c-1.5,2.1-3.1,4-5.9,4.1c-2.3,0-4.3-0.8-5.4-2.9c-1.4-2.7-0.8-5.1,0.9-7.4
		c5.8-7.9,11.5-15.9,17.4-23.7c2.3-3,1.9-4-1.7-5.1c-9.2-2.8-18.3-6-27.5-8.8c-4-1.3-6.6-3.4-5.5-7.9c0.9-3.7,4.5-5,9.4-3.4
		c9.5,3,19,6,28.4,9.3c2.7,0.9,3,0.2,3-2.2c-0.1-10.2-0.1-20.3,0-30.5c0.1-5.9,4.8-9.1,9.1-6.4c2.4,1.5,2.9,3.8,2.9,6.5
		c-0.1,11,0,22,0,33.6c9.1-2.9,17.9-5.8,26.7-8.6c1.6-0.5,3.1-1.1,4.7-1.6c4.9-1.5,8.4-0.3,9.4,3.4c1.1,3.8-0.8,6.5-5.9,8.2
		c-8.7,2.8-17.3,5.9-26.1,8.3c-4.8,1.3-4.8,2.7-2,6.3c5.7,7.3,11.1,15,16.5,22.6c2.8,3.9,2.6,7.7-0.5,9.6c-3.9,2.4-6.8,0.8-9.3-2.7
		C750.3,876.8,743.8,868,737.1,858.8z"/>
	<path fill="#010101" d="M325.8,858.8c-6.8,9.3-13.2,18-19.5,26.8c-2.5,3.5-5.3,5.1-9.3,2.8c-3.3-2-3.4-5.7-0.4-9.9c5.6-7.8,11.2-15.7,17.1-23.4
		c2.3-3,1.6-3.8-1.7-4.8c-9.4-2.9-18.6-6-27.9-9.1c-4.6-1.5-6.5-4.6-5-8.1c1.7-3.9,4.8-4.5,8.7-3.2c8.8,3,17.7,5.8,26.5,8.6
		c1.7,0.5,3.3,1.6,5.5,1.2c0-10.8,0-21.6,0-32.4c0-5.3,2.2-8.1,6-8c3.7,0.1,5.9,3.1,6,8.2c0,10.6,0,21.3,0,32.6
		c6.9-2.2,13.5-4.3,20-6.4c3.6-1.2,7.2-2.5,10.9-3.6c5.3-1.7,8.6-0.6,9.9,3.3c1.2,3.7-0.9,6.6-6.4,8.3c-8.8,2.9-17.6,5.8-26.6,8.4
		c-3.6,1.1-3.9,2.1-1.6,5.1c5.9,7.7,11.4,15.5,17.1,23.4c2.9,4,2.6,7.4-0.4,9.6c-3,2.2-6.4,1.3-9.3-2.6
		C338.9,876.9,332.5,868,325.8,858.8z"/>
	<path fill="#010101" d="M606,840.2c11.5-3.7,22.2-7.1,32.9-10.6c3.7-1.2,6.4,0.1,7.7,3.4c1.4,3.4-0.2,6.2-3.5,7.8c-1,0.5-2.2,0.8-3.3,1.1
		c-8.7,2.8-17.3,5.8-26.1,8.3c-3.8,1.1-3.6,2.4-1.5,5.1c5.7,7.6,11.2,15.3,16.8,23c3.1,4.2,2.9,7.9-0.2,10c-3.2,2.2-6.5,1.1-9.6-3.1
		c-5.4-7.4-11-14.6-16-22.3c-2.8-4.3-4.1-3.3-6.5,0.2c-5.1,7.4-10.5,14.6-15.8,21.8c-3.3,4.6-6.7,5.6-9.9,3.2c-3-2.3-3-5.8,0.1-10.1
		c6.2-8.6,12.5-17.2,19.2-26.4c-7.9-2.6-15.6-5.1-23.2-7.7c-3.2-1-6.3-2-9.5-3.1c-3.8-1.3-5.6-4-4.3-7.7c1.2-3.7,4.2-4.9,8-3.6
		c10.7,3.5,21.4,6.9,32.7,10.5c0-10.4,0-20.3,0-30.2c0-1.5,0-3,0-4.5c0.1-3.8,2.2-6.1,5.8-6.2c3.9,0,6.1,2.4,6.1,6.4
		c0.1,9.3,0,18.7,0,28C606,835.7,606,837.7,606,840.2z"/>
</g>
</svg>
