<svg xmlns="http://www.w3.org/2000/svg" xmlns:xlink="http://www.w3.org/1999/xlink" width="500" height="500" viewBox="0 0 500 500">
  <defs>
    <clipPath id="clip-path">
      <rect id="Rectangle_9" data-name="Rectangle 9" width="310" height="318" transform="translate(158.66 59)" fill="#fff" stroke="#707070" stroke-width="1"/>
    </clipPath>
    <clipPath id="clip-no-email">
      <rect width="500" height="500"/>
    </clipPath>
  </defs>
  <g id="no-email" clip-path="url(#clip-no-email)">
    <g id="Group_50" data-name="Group 50">
      <g id="Mask_Group_4" data-name="Mask Group 4" transform="translate(-63.66 32)" clip-path="url(#clip-path)">
        <g id="mail" transform="translate(160.289 59)">
          <path id="Path_10" data-name="Path 10" d="M308.356,291.916a12.309,12.309,0,0,1-12.842,13.263H12.988A15.046,15.046,0,0,1,4,301.863a13.73,13.73,0,0,1-3.852-9.947V97.607h308.21Z" transform="translate(-0.146 13.474)" fill="#d5d5d5"/>
          <path id="Path_11" data-name="Path 11" d="M304.147,293.256a13.654,13.654,0,0,1-8.99,3.315H12.631a15.046,15.046,0,0,1-8.99-3.315l150.252-133.3Z" transform="translate(0.211 22.081)" fill="#959595"/>
          <path id="Path_12" data-name="Path 12" d="M308.356,111.081l-43.663,32.5L162.6,219.178a14.082,14.082,0,0,1-17.337,0l-101.453-75.6L.146,111.081l43.663-32.5,95.032-70.3L145.9,2.984a14.082,14.082,0,0,1,17.337,0L170.3,8.289l45.59,33.822L238.366,58.69l26.326,19.9Z" transform="translate(-0.146 0)" fill="#3c3b41"/>
          <path id="Path_13" data-name="Path 13" d="M260.655,48.4v94.17l-102.095,75.6a14.082,14.082,0,0,1-17.337,0L39.771,142.57V20.547A13.1,13.1,0,0,1,52.613,7.284H220.2Z" transform="translate(3.892 1.005)" fill="#f2f2f2"/>
          <path id="Path_14" data-name="Path 14" d="M204.1,37.79A10.312,10.312,0,0,0,214.373,48.4H243.91L204.1,7.284V37.79Z" transform="translate(20.636 1.005)" fill="#cdd6e0"/>
        </g>
      </g>
      <circle id="Ellipse_5" data-name="Ellipse 5" cx="9.5" cy="9.5" r="9.5" transform="translate(194 197)" fill="#707070"/>
      <circle id="Ellipse_6" data-name="Ellipse 6" cx="9.5" cy="9.5" r="9.5" transform="translate(287 197)" fill="#707070"/>
      <path id="Path_77" data-name="Path 77" d="M797.154,3400.413c-18.167,14.05,5.163-11.733,44.622-12.033s60.891,26.639,44.726,12.033" transform="translate(-591 -3155)" fill="none" stroke="#707070" stroke-width="12"/>
    </g>
  </g>
</svg>
