<svg xmlns="http://www.w3.org/2000/svg" xmlns:xlink="http://www.w3.org/1999/xlink" width="450" height="450" viewBox="0 0 450 450">
  <defs>
    <clipPath id="clip-path">
      <path id="Rectangle_12" data-name="Rectangle 12" d="M0,0,44.792,0l0,44.786L0,44.786Z" transform="translate(0 0)" fill="#fff" stroke="#707070" stroke-width="1.1"/>
    </clipPath>
    <clipPath id="clip-path-2">
      <path id="Rectangle_12-2" data-name="Rectangle 12" d="M.24.242l44.795,0,0,44.79-44.795,0Z" transform="translate(0 0)" fill="#fff" stroke="#707070" stroke-width="1.1"/>
    </clipPath>
    <clipPath id="clip-path-3">
      <path id="Rectangle_12-3" data-name="Rectangle 12" d="M.083.085H44.878V44.872H.082Z" transform="translate(0 0)" fill="#fff" stroke="#707070" stroke-width="1.1"/>
    </clipPath>
    <clipPath id="clip-path-4">
      <path id="Rectangle_12-4" data-name="Rectangle 12" d="M0,0,44.814,0l0,44.811L0,44.811Z" transform="translate(0 0)" fill="#fff" stroke="#707070" stroke-width="1.101"/>
    </clipPath>
    <clipPath id="clip-path-5">
      <path id="Rectangle_15" data-name="Rectangle 15" d="M0,0,61.87,0l0,62.645L0,62.645Z" transform="translate(0 0)" fill="#fff" stroke="#707070" stroke-width="1.1"/>
    </clipPath>
    <clipPath id="clip-path-6">
      <path id="Rectangle_16" data-name="Rectangle 16" d="M.013.015H62.131V56.788H.013Z" transform="translate(0 0)" fill="#fff" stroke="#707070" stroke-width="1.1"/>
    </clipPath>
    <clipPath id="clip-path-7">
      <rect id="Rectangle_41" data-name="Rectangle 41" width="428" height="409" transform="translate(117.751 126)" fill="#fff" stroke="#707070" stroke-width="1"/>
    </clipPath>
    <clipPath id="clip-path-8">
      <rect id="Rectangle_42" data-name="Rectangle 42" width="402" height="409" transform="translate(-0.065)"/>
    </clipPath>
    <clipPath id="clip-path-9">
      <rect id="Rectangle_43" data-name="Rectangle 43" width="218" height="229" transform="translate(86.545 69.49)" fill="#fff" stroke="#707070" stroke-width="1"/>
    </clipPath>
    <clipPath id="clip-Tier2">
      <rect width="450" height="450"/>
    </clipPath>
  </defs>
  <g id="Tier2" clip-path="url(#clip-Tier2)">
    <path id="primary" d="M225,0C349.264,0,450,100.736,450,225S349.264,450,225,450,0,349.264,0,225,100.736,0,225,0Z" transform="translate(0.451 0.258)" fill="#5d48f8" opacity="0.3"/>
    <path id="primary-2" data-name="primary" d="M175,0A175,175,0,1,1,0,175,175,175,0,0,1,175,0Z" transform="translate(50.451 50.258)" fill="#5d48f8" opacity="0.3"/>
    <g id="Mask_Group_3" data-name="Mask Group 3" transform="matrix(0.951, -0.309, 0.309, 0.951, 133.896, 54.593)" clip-path="url(#clip-path)">
      <path id="star" d="M22.332-.089,29.252,13.93l15.476,2.24-11.2,10.923L36.174,42.5,22.333,35.23,8.493,42.5l2.642-15.411-11.2-10.91,15.475-2.239Z" transform="translate(0.064 1.187)" fill="#ffeb00"/>
    </g>
    <g id="Mask_Group_4" data-name="Mask Group 4" transform="matrix(0.899, 0.438, -0.438, 0.899, 394.247, 221.674)" clip-path="url(#clip-path-2)">
      <path id="star-2" data-name="star" d="M22.485.119,29.4,14.138l15.476,2.239L33.682,27.3l2.642,15.412L22.482,35.441,8.64,42.716,11.284,27.3.086,16.393l15.477-2.24Z" transform="translate(0.152 1.218)" fill="#ffeb00"/>
    </g>
    <g id="Mask_Group_5" data-name="Mask Group 5" transform="translate(340.203 74.921) rotate(8)" clip-path="url(#clip-path-3)">
      <path id="star-3" data-name="star" d="M22.428.042l6.92,14.018L44.825,16.3l-11.2,10.924,2.643,15.411L22.427,35.362,8.585,42.635l2.643-15.412L.03,16.314l15.477-2.24Z" transform="translate(0.053 1.14)" fill="#ffeb00"/>
    </g>
    <g id="Mask_Group_8" data-name="Mask Group 8" transform="matrix(0.839, -0.545, 0.545, 0.839, 87.238, 370.83)" clip-path="url(#clip-path-4)">
      <path id="star-4" data-name="star" d="M22.307-.137l6.925,14.026,15.483,2.242-11.2,10.929,2.645,15.42L22.31,35.2,8.463,42.477l2.643-15.419L-.1,16.141,15.384,13.9Z" transform="translate(0.1 1.237)" fill="#ffeb00"/>
    </g>
    <g id="Mask_Group_6" data-name="Mask Group 6" transform="translate(14.429 212.078) rotate(-17)" clip-path="url(#clip-path-5)">
      <path id="star-5" data-name="star" d="M30.849-.116,40.409,19.5l21.376,3.136L46.318,37.9,49.97,59.462,30.851,49.285,11.734,59.464l3.65-21.556L-.084,22.639,21.291,19.5Z" transform="translate(0.086 1.654)" fill="#ffeb00"/>
    </g>
    <g id="Mask_Group_7" data-name="Mask Group 7" transform="matrix(1, 0.017, -0.017, 1, 301.692, 343.213)" clip-path="url(#clip-path-6)">
      <path id="star-6" data-name="star" d="M31.066.007l9.6,17.772,21.461,2.853L46.592,34.463,50.256,54l-19.19-9.222L11.871,54l3.664-19.536L0,20.632l21.461-2.853Z" transform="translate(0.009 1.396)" fill="#ffeb00"/>
    </g>
    <g id="Group_29" data-name="Group 29">
      <g id="Mask_Group_11" data-name="Mask Group 11" transform="translate(29.455 48.51)" clip-path="url(#clip-path-9)">
        <g id="surface1" transform="translate(86.993 73.832)">
          <path id="Path_21" data-name="Path 21" d="M206.16,139.421a6.43,6.43,0,0,1-.018-12.859c16.01-.05,31.242-9.8,42.889-27.459,11.179-16.948,17.747-39.111,18.747-62.982H239.7a6.43,6.43,0,0,1,0-12.859h34.582a6.4,6.4,0,0,1,6.374,6.429c0,28.809-7.464,55.988-21.015,76.536-14.078,21.341-33.065,33.13-53.464,33.194Zm0,0" transform="translate(-63.107 -7.423)" fill="#9cb4b5"/>
          <path id="Path_22" data-name="Path 22" d="M74.5,139.421h-.02c-20.4-.064-39.387-11.853-53.464-33.194C7.464,85.68,0,58.5,0,29.691a6.4,6.4,0,0,1,6.374-6.429H40.956a6.43,6.43,0,0,1,0,12.859H12.882c1,23.871,7.569,46.034,18.747,62.982,11.647,17.658,26.879,27.409,42.889,27.459a6.43,6.43,0,0,1-.018,12.859Zm0,0" transform="translate(0 -7.423)" fill="#c6d7d8"/>
          <path id="Path_23" data-name="Path 23" d="M192.806.311H56.267A6.4,6.4,0,0,0,49.894,6.74c0,37.768,7.341,73.378,20.669,100.268C79.1,124.235,89.546,136.741,101.1,143.9v35.005a6.4,6.4,0,0,0,6.374,6.429H141.6a6.4,6.4,0,0,0,6.374-6.429V143.9c11.549-7.158,21.994-19.665,30.532-36.892,13.328-26.89,20.669-62.5,20.669-100.268A6.4,6.4,0,0,0,192.806.311Zm0,0" transform="translate(-15.76 -0.311)" fill="#c6d7d8"/>
          <path id="Path_24" data-name="Path 24" d="M182.441,178.906V143.9c11.549-7.158,21.994-19.665,30.532-36.892,13.328-26.89,20.669-62.5,20.669-100.268A6.4,6.4,0,0,0,227.269.311H159V185.335h17.068A6.4,6.4,0,0,0,182.441,178.906Zm0,0" transform="translate(-50.223 -0.311)" fill="#9cb4b5"/>
          <path id="Path_25" data-name="Path 25" d="M166.551,249.782H98.283a23.572,23.572,0,0,0-23.441,23.647v17.217a6.4,6.4,0,0,0,6.374,6.428h102.4a6.4,6.4,0,0,0,6.374-6.428V273.428A23.571,23.571,0,0,0,166.551,249.782Zm0,0" transform="translate(-23.64 -77.616)" fill="#c6d7d8"/>
          <path id="Path_26" data-name="Path 26" d="M193.134,249.782H159v47.292h51.2a6.4,6.4,0,0,0,6.374-6.428V273.428A23.571,23.571,0,0,0,193.134,249.782Zm0,0" transform="translate(-50.223 -77.616)" fill="#9cb4b5"/>
          <path id="Path_27" data-name="Path 27" d="M187.293,312.535H71.237a6.429,6.429,0,0,1,0-12.857H187.293a6.429,6.429,0,0,1,0,12.857Zm0,0" transform="translate(-20.488 -93.078)" fill="#6b8e90"/>
          <rect id="Rectangle_44" data-name="Rectangle 44" width="62" height="11" rx="5.5" transform="translate(77.552 161.658)" fill="#6b8e90"/>
        </g>
      </g>
      <text id="_2" data-name="2" transform="translate(200 224)" fill="#4b7e81" font-size="86" font-family="Montserrat-Bold, Montserrat" font-weight="700"><tspan x="0" y="0">2</tspan></text>
    </g>
  </g>
</svg>
