<svg xmlns="http://www.w3.org/2000/svg" xmlns:xlink="http://www.w3.org/1999/xlink" width="390" height="336" viewBox="0 0 390 336">
  <defs>
    <clipPath id="clip-path">
      <rect id="Rectangle_3275" data-name="Rectangle 3275" width="390" height="336" fill="#fff" stroke="#707070" stroke-width="1"/>
    </clipPath>
    <clipPath id="clip-path-2">
      <rect id="Rectangle_1579" data-name="Rectangle 1579" width="49.298" height="49.298" fill="#fff" stroke="#707070" stroke-width="0.657"/>
    </clipPath>
    <clipPath id="clip-path-3">
      <rect id="Rectangle_1146" data-name="Rectangle 1146" width="13.146" height="13.146" fill="#fff" stroke="#707070" stroke-width="0.657"/>
    </clipPath>
  </defs>
  <g id="welcome-svg" clip-path="url(#clip-path)">
    <g id="Ellipse_1140" data-name="Ellipse 1140" transform="translate(-63 -63)" fill="none" stroke="#5d48f8" stroke-width="1" opacity="0.752">
      <circle cx="90" cy="90" r="90" stroke="none"/>
      <circle cx="90" cy="90" r="89.5" fill="none"/>
    </g>
    <circle id="Ellipse_1141" data-name="Ellipse 1141" cx="90" cy="90" r="90" transform="translate(300 148)" fill="#5d48f8" opacity="0.2"/>
    <g id="payout" transform="translate(16.564 0)">
      <path id="Union_1" data-name="Union 1" d="M-1282.564,1643.5c0-6.351,16.341-11.5,36.5-11.5,11.669,0,24.392-1.884,34.791-3.2a2.3,2.3,0,0,1-.02-.3c0-6.351,26.236-11.5,58.6-11.5s78.481,5.148,78.481,11.5c0,1.286-1.889,2.521-5.17,3.676A144.144,144.144,0,0,1-1047,1628.5c33.995,0,89.861,9.481,89.13,14.081s-45.573,8.354-92.057,4.316-53.718-6.428-53.718-6.428a96.44,96.44,0,0,1,15.935-6.093c-16.111,3.367-43.561,5.624-64.984,5.624-18.738,0-35.423-1.726-46.15-4.412-11.134,8.056-33.847,19.413-47.22,19.413C-1266.223,1655-1282.564,1649.851-1282.564,1643.5Z" transform="translate(1318 -1319)" fill="#110181" opacity="0.05"/>
      <g id="premade1" transform="translate(14.898)">
        <g id="phone" transform="translate(88.667 37.026)">
          <g id="Group_1470" data-name="Group 1470">
            <g id="phone-2" data-name="phone">
              <g id="Group_2" data-name="Group 2">
                <rect id="Rectangle_4" data-name="Rectangle 4" width="138.414" height="275.968" rx="20.901" transform="translate(2.508)" fill="#898fff"/>
                <rect id="Rectangle_6" data-name="Rectangle 6" width="8.36" height="22.572" rx="4.18" transform="translate(135.07 45.683)" fill="#898fff"/>
                <rect id="Rectangle_7" data-name="Rectangle 7" width="8.36" height="22.572" rx="4.18" transform="translate(135.07 67.81)" fill="#898fff"/>
                <rect id="Rectangle_8" data-name="Rectangle 8" width="8.36" height="42.637" rx="4.18" transform="translate(0 49.345)" fill="#898fff"/>
              </g>
              <path id="Rectangle_835" data-name="Rectangle 835" d="M20.9,0h80.727a20.9,20.9,0,0,1,20.9,20.9V238.347a20.9,20.9,0,0,1-20.9,20.9H20.9A20.9,20.9,0,0,1,0,238.347V20.9A20.9,20.9,0,0,1,20.9,0Z" transform="translate(10.032 8.36)" fill="#f5f5ff"/>
            </g>
          </g>
          <g id="Group_10571" data-name="Group 10571" transform="translate(39.255 7.928)">
            <g id="iphone-thing">
              <path id="Path_462" data-name="Path 462" d="M1251.529,59.209a4.176,4.176,0,0,1,2.6.9c1.219.962.925,4.069.925,4.069l.526-4.965Z" transform="translate(-1251.529 -59.208)" fill="#898fff"/>
              <path id="Path_463" data-name="Path 463" d="M1255.585,59.208a4.175,4.175,0,0,0-2.607.9c-1.219.962-.925,4.069-.925,4.069l-.526-4.967Z" transform="translate(-1190.512 -59.207)" fill="#898fff"/>
              <path id="Rectangle_538" data-name="Rectangle 538" d="M0,0H58.325V5.068c0,2.985-3.165,5.406-7.07,5.406H7.07C3.165,10.473,0,8.053,0,5.068Z" transform="translate(3.57 0.001)" fill="#898fff"/>
            </g>
          </g>
          <rect id="Rectangle_1577" data-name="Rectangle 1577" width="107.14" height="67.702" rx="9.202" transform="translate(18.216 32.989)" fill="#deddff"/>
          <rect id="Rectangle_1578" data-name="Rectangle 1578" width="107.14" height="33.522" rx="7.888" transform="translate(18.216 107.264)" fill="#5a4ded"/>
          <path id="Path_61875" data-name="Path 61875" d="M-17.557-5.928V0h-3.466V-16.823h6.563a7.592,7.592,0,0,1,3.333.693,5.109,5.109,0,0,1,2.212,1.972,5.493,5.493,0,0,1,.774,2.906,4.831,4.831,0,0,1-1.693,3.9,7.05,7.05,0,0,1-4.685,1.427Zm0-2.807h3.1a3.045,3.045,0,0,0,2.1-.647,2.353,2.353,0,0,0,.723-1.848,2.775,2.775,0,0,0-.728-2,2.719,2.719,0,0,0-2.011-.789h-3.177ZM3.194-3.466H-2.883L-4.038,0H-7.724l6.262-16.823H1.75L8.047,0H4.362ZM-1.947-6.274H2.26l-2.115-6.3ZM15.2-9.244l3.5-7.579h3.79L16.97-6.1V0H13.444V-6.1L7.922-16.822h3.8Z" transform="translate(71.052 132.437)" fill="#fff"/>
          <g id="Mask_Group_44" data-name="Mask Group 44" transform="translate(47.137 42.192)" clip-path="url(#clip-path-2)">
            <g id="paid_black_24dp_1_" data-name="paid_black_24dp (1)">
              <g id="Group_10700" data-name="Group 10700">
                <rect id="Rectangle_1580" data-name="Rectangle 1580" width="49.298" height="49.298" fill="none"/>
              </g>
              <g id="Group_10701" data-name="Group 10701" transform="translate(4.108 4.108)">
                <path id="Path_61876" data-name="Path 61876" d="M24.649,4.108A20.541,20.541,0,1,0,45.19,24.649,20.541,20.541,0,0,0,24.649,4.108Zm0,36.973A16.433,16.433,0,1,1,41.081,24.649,16.433,16.433,0,0,1,24.649,41.081ZM26.477,22.8c-3.656-1.212-5.423-1.972-5.423-3.9,0-2.1,2.28-2.855,3.718-2.855a3.969,3.969,0,0,1,3.9,2.753l3.246-1.377a7.033,7.033,0,0,0-5.463-4.581V10.27H22.862v2.588a6.334,6.334,0,0,0-5.381,6.08c0,4.663,4.621,5.978,6.881,6.8,3.245,1.15,4.683,2.2,4.683,4.169,0,2.321-2.157,3.307-4.067,3.307-3.738,0-4.806-3.841-4.93-4.293L16.638,30.3a8.292,8.292,0,0,0,6.2,6.08v2.65h3.595V36.48c1.068-.185,6.2-1.212,6.2-6.614C32.66,27.011,31.407,24.5,26.477,22.8Z" transform="translate(-4.108 -4.108)" fill="#fd4d7c"/>
              </g>
            </g>
          </g>
        </g>
        <g id="ui-element3" transform="translate(106.483 186.234)">
          <rect id="Rectangle_1376" data-name="Rectangle 1376" width="107.798" height="34.837" rx="5.258" fill="#fff"/>
          <rect id="Rectangle_1377" data-name="Rectangle 1377" width="70.989" height="7.23" rx="3.615" transform="translate(32.208 7.888)" fill="#704bff" opacity="0.523"/>
          <rect id="Rectangle_1378" data-name="Rectangle 1378" width="48.64" height="7.23" rx="3.615" transform="translate(32.208 20.376)" fill="#704bff" opacity="0.25"/>
          <circle id="Ellipse_33" data-name="Ellipse 33" cx="11.503" cy="11.503" r="11.503" transform="translate(4.601 5.916)" fill="#ffc92f" opacity="0.574"/>
        </g>
        <g id="ui-element3-2" data-name="ui-element3" transform="translate(106.483 186.234)">
          <rect id="Rectangle_1376-2" data-name="Rectangle 1376" width="107.798" height="34.837" rx="5.258" fill="#fff"/>
          <rect id="Rectangle_1377-2" data-name="Rectangle 1377" width="70.989" height="7.23" rx="3.615" transform="translate(32.208 7.888)" fill="#5f67ff" opacity="0.523"/>
          <rect id="Rectangle_1378-2" data-name="Rectangle 1378" width="48.64" height="7.23" rx="3.615" transform="translate(32.208 20.376)" fill="#5f67ff" opacity="0.25"/>
          <circle id="Ellipse_33-2" data-name="Ellipse 33" cx="11.503" cy="11.503" r="11.503" transform="translate(4.601 5.916)" fill="#ffc92f" opacity="0.684"/>
        </g>
        <g id="ui-element3-3" data-name="ui-element3" transform="translate(106.483 234.874)">
          <rect id="Rectangle_1376-3" data-name="Rectangle 1376" width="107.798" height="34.837" rx="5.258" fill="#fff"/>
          <rect id="Rectangle_1377-3" data-name="Rectangle 1377" width="70.989" height="7.23" rx="3.615" transform="translate(32.208 7.888)" fill="#5f67ff" opacity="0.523"/>
          <rect id="Rectangle_1378-3" data-name="Rectangle 1378" width="48.64" height="7.23" rx="3.615" transform="translate(32.208 20.376)" fill="#5f67ff" opacity="0.25"/>
          <circle id="Ellipse_33-3" data-name="Ellipse 33" cx="11.503" cy="11.503" r="11.503" transform="translate(4.601 5.916)" fill="#ffc92f" opacity="0.684"/>
        </g>
      </g>
      <g id="kim" transform="translate(14.898 119.446)">
        <path id="hairback" d="M1.09,27.739C.122,43.077,6.3,53.14,2.735,62.423s-3.9,16.834.5,22.348,14.714,7,22.176.708S31.133,64.961,43.4,54.327,60.786,25.3,49.473,16.212-3.242-5.59,6.223,2.672,2.058,12.4,1.09,27.739Z" transform="translate(75.82 88.218) rotate(169)" fill="#5b2039"/>
        <path id="torso" d="M67.32,94.437a50.707,50.707,0,0,1-4.887,2c-2.032.713-4.677,1.249-6.546,2.876-3.166,2.755,2.548,13.105,3.914,21.247s1.549,11.319,1.549,11.319l-4.615,15.447a154.5,154.5,0,0,0,19.375,1.044,42.394,42.394,0,0,0,14.176-2.556l-6.173-13.935a124.949,124.949,0,0,1,1.562-13.439c.979-4.463,7.786-15.428,4.021-19.127-1.736-1.705-4.71-2.054-7.475-2.876a43.817,43.817,0,0,1-5.3-2Z" transform="translate(-26.453 -57.01)" fill="#eeb07b"/>
        <g id="neck" transform="translate(40.774 23.838)">
          <rect id="Rectangle_2" data-name="Rectangle 2" width="9.86" height="15.775" fill="#eeb07b"/>
          <path id="Intersection_2" data-name="Intersection 2" d="M7.77,9.823A11,11,0,0,1,1.831,6.432,13.463,13.463,0,0,1,0,4.056V0H9.86V8.927a1.709,1.709,0,0,1-1.664.92,3.972,3.972,0,0,1-.425-.024Z" transform="translate(0 3.287)" fill="#af5323" opacity="0.2"/>
        </g>
        <g id="face" transform="translate(34.762 6.105)">
          <path id="Path_4" data-name="Path 4" d="M.771,16.835C-1.615,9.443,2.085,3.387,4.424,2.093s7.523-3.375,11.586-1.032,7.07,5.143,6.153,12.105-5.786,16.1-9.77,15.891S3.157,24.226.771,16.835Z" transform="translate(0.675 0.782) rotate(-2.007)" fill="#eeb07b"/>
          <path id="face-shadow" d="M0,0A7.662,7.662,0,0,1,1.829.687c4.145,2.2,7.249,4.9,6.573,11.888-.629,6.539-4.731,15.1-8.4,16.158Z" transform="translate(14.89 0.598)" fill="#c37146" opacity="0.3"/>
          <path id="Path_6" data-name="Path 6" d="M1.032,0,2.779,5.791,0,6.538Z" transform="translate(13.707 14.366) rotate(-2.007)" fill="#eeb07b"/>
          <path id="Path_7" data-name="Path 7" d="M5.807,1.63,5.6,1.385A4.418,4.418,0,0,0,3.079,0,17.251,17.251,0,0,0,0,.4" transform="translate(5.71 14.21) rotate(-4.992)" fill="none" stroke="#360e0e" stroke-width="0.526"/>
          <path id="Path_8" data-name="Path 8" d="M0,1.441S.986,0,2.152,0a12.587,12.587,0,0,1,2.9.539" transform="translate(16.428 14.208) rotate(6.024)" fill="none" stroke="#360e0e" stroke-width="0.526"/>
          <path id="Path_9" data-name="Path 9" d="M.765,0C1.184,0,1.9.4,1.9.944a.875.875,0,0,1-.807.963A1.066,1.066,0,0,1,.006.986.9.9,0,0,1,.765,0Z" transform="translate(7.593 14.376) rotate(-24.003)" fill="#360e0e"/>
          <path id="Path_1638" data-name="Path 1638" d="M.767,0c.422,0,1.141.4,1.141.943a.876.876,0,0,1-.808.963A1.067,1.067,0,0,1,.006.986.9.9,0,0,1,.767,0Z" transform="translate(17.016 14.482) rotate(-13)" fill="#360e0e"/>
          <path id="Path_11" data-name="Path 11" d="M7.49.857,7.53,2A10.132,10.132,0,0,0,3.855.677,10.024,10.024,0,0,0,0,1.31,5.1,5.1,0,0,1,3.124,0,13.929,13.929,0,0,1,7.49.857Z" transform="translate(4.844 10.995) rotate(2.007)" fill="#5b2039"/>
          <path id="Path_4019" data-name="Path 4019" d="M5.976,1.039,5.957,0A12.425,12.425,0,0,1,2.4.936,3.5,3.5,0,0,1,0,.1,3.724,3.724,0,0,0,2.416,1.677a8.559,8.559,0,0,0,3.56-.638Z" transform="translate(22.429 13.421) rotate(-179.026)" fill="#5b2039"/>
          <path id="Path_13" data-name="Path 13" d="M4.546.147c-.112.007-.465.014-.783,0-.531-.01-.472.037-1.413,0S0,0,0,0,1.8,2.514,3.763,2.731,6.648.476,6.648.476a7.47,7.47,0,0,0-2.1-.329Z" transform="translate(10.599 22.558) rotate(-2.007)" fill="#be4851"/>
          <path id="Path_1592" data-name="Path 1592" d="M0,6.377a3.581,3.581,0,0,0,1.606.535c.6-.07,1.341-1.086.994-2.814S.22,0,.22,0Z" transform="translate(3.849 20.269) rotate(169.982)" fill="#eeb07b"/>
        </g>
        <g id="leg2" transform="translate(45.972 89.007)">
          <path id="Path_4017" data-name="Path 4017" d="M.243,29.327c1.821,24.118.415,43.419,8.5,36.762S21.8,13.2,19.678,4.011C18.115-2.756,6.49-1.3,1.56,11-.107,15.16-.237,22.962.243,29.327Z" transform="matrix(0.982, -0.191, 0.191, 0.982, 0, 3.851)" fill="#2a35bf"/>
          <path id="Path_4018" data-name="Path 4018" d="M5.85,46.109S1.827,30.565.4,18.865,1.782.145,1.782.145L11.775,0a163.536,163.536,0,0,1,1.267,20.644c0,11.7-.447,26.414-.447,26.414Z" transform="translate(11.753 60.364) rotate(-8)" fill="#2a35bf"/>
        </g>
        <g id="leg1" transform="translate(27.389 89.48)">
          <path id="Path_4015" data-name="Path 4015" d="M64.727,146.82c-14.489-2.744-13.947,12.006-12.1,30.06s3.488,38.027,10.222,35.44c4.781-1.837,9.938-33.148,7.953-52.018C70.017,152.8,68.928,147.616,64.727,146.82Z" transform="translate(-51.683 -146.49)" fill="#2a35bf"/>
          <path id="Path_4016" data-name="Path 4016" d="M61.823,252.945s-6.184-18.874-6.5-26.3,1.512-22.089,1.512-22.089l9.825,1.057s.723,9.334.723,21.034-.991,26.3-.991,26.3Z" transform="translate(-51.683 -146.49)" fill="#2a35bf"/>
        </g>
        <path id="pelvis" d="M56.462,140.717A81.944,81.944,0,0,0,73.1,142.19a35.915,35.915,0,0,0,12.461-2.6l4.783,10.4s-6.929,15.272-16.4,16.295-21.494-11.9-21.494-11.9Z" transform="translate(-24.294 -57.01)" fill="#2a35bf"/>
        <path id="shoe-front" d="M336.04,261.33c-1.023-1.593-3.166-10.277-3.166-10.277l-4.733-.143-2.962,9.561s-.475,1.6.49,2.2c0,0,5.9,2.049,10.945-.1a3.462,3.462,0,0,0-.575-1.242Z" transform="translate(-290.665 -54.998)" fill="#002c52"/>
        <path id="shoe-back" d="M367,248.815s1.169,4.551,2.606,5.784,6.919,3.05,6.919,3.05l3.878,1.635s1.268.315-4.526,1.906-17.539-1.906-17.539-1.906l1.354-10.47Z" transform="translate(-290.007 -54.998)" fill="#002c52"/>
        <path id="top" d="M67.32,94.437a50.46,50.46,0,0,1-4.887,2.016c-2.032.719-4.677,1.261-6.546,2.9-3.166,2.78,2.548,13.224,3.914,21.439s1.549,11.421,1.549,11.421l-5.463,15.2s10.353,3.722,19.118,3.471,15.237-6.259,15.237-6.259l-6.129-12.411a127.162,127.162,0,0,1,1.562-13.559c.979-4.5,7.786-15.568,4.021-19.3-1.736-1.721-4.507-2.072-7.272-2.9a56.833,56.833,0,0,1-5.5-2.016s.357,4.854-4.179,4.919S67.32,94.437,67.32,94.437Z" transform="translate(-26.453 -57.01)" fill="#a6a4ff"/>
        <g id="hair-front" transform="translate(35.061)">
          <path id="Path_1591" data-name="Path 1591" d="M11.594,19.065S8.849,17.542,9.658,9.41,10.129,0,10.129,0A12.492,12.492,0,0,0,2.681,5.807C-.165,10.639-.884,13.621,1.2,17.871S7.432,23.59,9.9,23.006C10.379,22.9,11.594,19.065,11.594,19.065Z" transform="translate(29.721 16.355) rotate(135)" fill="#5b2039"/>
          <path id="Path_4021" data-name="Path 4021" d="M67.581,68.352s-4.135,3.628-5.29,6.77a9.1,9.1,0,0,0,0,6s-2.157-2.512-2.464-4.181-1.278-3.549.977-7.867,5.254-4.76,5.254-4.76Z" transform="translate(-59.355 -57.668)" fill="#5b2039"/>
        </g>
        <g id="arm1" transform="matrix(-0.588, -0.809, 0.809, -0.588, 28.605, 95.106)">
          <path id="Path_25" data-name="Path 25" d="M0,32.165,9.007,8.7S12.3,2.81,15.221,1.26C18.935-.713,22.173-.678,21.7,3.606,20.88,10.93,6.327,34.594,6.327,34.594Z" transform="matrix(-0.326, 0.945, -0.945, -0.326, 48.665, 12.953)" fill="#a6a4ff" opacity="0.998"/>
          <path id="Path_26" data-name="Path 26" d="M.012,15.986C-.375,11.254,8.367,7.492,14.989,3.892S25.527,0,25.527,0l3.6,2.7s-3.8,3.906-13.075,10.55S.4,20.722.012,15.986Z" transform="translate(30.729 9.206) rotate(119)" fill="#a6a4ff"/>
          <g id="phone-3" data-name="phone" transform="matrix(-0.629, 0.777, -0.777, -0.629, 28.734, 40.962)">
            <rect id="Rectangle_1134" data-name="Rectangle 1134" width="7.885" height="15.113" rx="1.314" transform="translate(4.92 0) rotate(19)" fill="#9cd9e8"/>
            <g id="Ellipse_26" data-name="Ellipse 26" transform="translate(4.514 1.607) rotate(-2.98)" fill="#f5feff" stroke="#4bb3ff" stroke-width="0.657">
              <circle cx="1.315" cy="1.315" r="1.315" stroke="none"/>
              <circle cx="1.315" cy="1.315" r="0.986" fill="none"/>
            </g>
          </g>
          <path id="Path_4035" data-name="Path 4035" d="M0,5.551S4.948.72,5.916.1s-.074,2,.723,2.352C6.8,2.518,8.274,3.789,9.531,3.8c1.206,0,5.127-.479,4.913,1.553C14.36,5.37,10.4,8.466,6.778,8.71A23.746,23.746,0,0,0,2.423,9.2Z" transform="matrix(-0.259, 0.966, -0.966, -0.259, 23.607, 32.538)" fill="#eeb07b"/>
        </g>
        <g id="arm2" transform="matrix(1, -0.017, 0.017, 1, 52.608, 40.709)">
          <path id="Path_25-2" data-name="Path 25" d="M.012,26.491c.3-5.93,7.336-21.618,7.336-21.618A14.957,14.957,0,0,1,12,1.157C15.717-.717,21.023.249,21.023.249S13.019,16.81,8.988,23.1-.283,32.418.012,26.491Z" transform="matrix(0.391, -0.92, 0.92, 0.391, 0, 19.351)" fill="#a6a4ff" opacity="0.998"/>
          <path id="Path_26-2" data-name="Path 26" d="M.006,14.555c-.159-2.113,2.727-3.373,6.383-5.612A83.824,83.824,0,0,1,16.7,3.437,79.314,79.314,0,0,1,25.1,0l1.2,3.4s-3.168,3.129-12.037,9.126S.363,19.3.006,14.555Z" transform="translate(22.726 12.574) rotate(-3)" fill="#a6a4ff"/>
          <path id="Path_134" data-name="Path 134" d="M16.175,3.656,12.663,5.526S7.565,7.8,6,6.831-1.05,8.515.178,6.8c.6-.848,6.252-4.033,7.584-4.224C8.99,2.393,5.719.73,6.937.376,9.522-.273,12.7.131,15.285.058Z" transform="translate(63.323 10.839) rotate(164)" fill="#eeb07b"/>
        </g>
      </g>
      <g id="lia4" transform="translate(209.449 205.236)">
        <g id="arm2-2" data-name="arm2" transform="translate(49.526 42.963) rotate(-36.011)">
          <path id="Path_25-3" data-name="Path 25" d="M.011,30.721C.306,24.8,7.989,8.005,7.989,8.005s3.7-6.1,6.617-7.57c3.711-1.872,7.552,2.9,7.552,2.9s-8.5,16.594-12.53,22.881S-.284,36.644.011,30.721Z" transform="translate(0.776 31.068) rotate(-92.007)" fill="#b47a52" opacity="0.998"/>
          <path id="Path_26-3" data-name="Path 26" d="M.007,14.518c-.172-2.108,2.958-3.364,6.92-5.6A93.744,93.744,0,0,1,18.1,3.429,90.494,90.494,0,0,1,27.206,0l1.3,3.387s-3.435,3.121-13.05,9.1S.395,19.253.007,14.518Z" transform="translate(28.016 12.54) rotate(-3)" fill="#b47a52"/>
          <path id="Path_61786" data-name="Path 61786" d="M3.2,0,.882,5.448s-1.61,4.2-.48,6.005,4.3,4.245,5,1.228a28.5,28.5,0,0,0,.284-7.428S6.321,8.364,6.8,8.089,8.172,4.261,8.172,4.261L7.9,3,7.348.5Z" transform="translate(56.739 18.35) rotate(-112)" fill="#b47a52"/>
          <g id="phone-4" data-name="phone" transform="translate(61.678 0) rotate(23)">
            <g id="Rectangle_1134-2" data-name="Rectangle 1134" transform="translate(4.922 0) rotate(19)" fill="#e8eaff" stroke="#757ef5" stroke-width="0.657">
              <rect width="7.888" height="15.12" rx="1.315" stroke="none"/>
              <rect x="0.329" y="0.329" width="7.231" height="14.462" rx="0.986" fill="none"/>
            </g>
            <path id="Path_4119" data-name="Path 4119" d="M4.412,4.91c0-1.1-.955-1.373-1.831-1.587V1.729a3.266,3.266,0,0,1,1.279.426l.324-.8a3.384,3.384,0,0,0-1.6-.481V0H1.934V.892C.7,1.013.118,1.713.118,2.518c0,1.1.939,1.381,1.815,1.594V5.691a3.032,3.032,0,0,1-1.579-.6L0,5.888a3.456,3.456,0,0,0,1.934.658V7.42h.647V6.538C3.82,6.407,4.412,5.715,4.412,4.91ZM1.137,2.471c0-.347.237-.631.8-.718v1.4C1.476,3.023,1.137,2.849,1.137,2.471Zm1.447,3.2v-1.4c.474.132.821.316.821.7,0,.339-.247.608-.824.695Z" transform="matrix(0.945, 0.326, -0.326, 0.945, 5.109, 4.209)" fill="#757ef5"/>
          </g>
          <path id="Path_61787" data-name="Path 61787" d="M0,8.013S2.624-.661,2.9.04c1.11.257.671,5.087.415,6.383a6.88,6.88,0,0,1-1.139,3Z" transform="translate(59.696 4.451) rotate(36.011)" fill="#b47a52"/>
        </g>
        <path id="hair-back" d="M15.8.954C11.627,2.2,7.988,5.484,6.3,12.26S5.07,23.965,4.174,25.852c-1.936,4.075-5.626,6.294-3.569,6.5S25.783,38.9,30.3,35.634s4.141-8.369,4.842-15.425S35.41,8.631,30.182,3.76,19.969-.291,15.8.954Z" transform="translate(26.509 10.757) rotate(-13)" fill="#140062"/>
        <path id="torso-2" data-name="torso" d="M67.32,94.437a50.71,50.71,0,0,1-4.887,2c-2.032.713-4.677,1.249-6.546,2.876-3.166,2.755,2.548,13.105,3.914,21.247s1.549,11.319,1.549,11.319l-4.615,15.447a154.5,154.5,0,0,0,19.375,1.044,42.394,42.394,0,0,0,14.176-2.556l-6.173-13.935a124.949,124.949,0,0,1,1.562-13.439c.979-4.463,7.807-14.907,4.042-18.606-1.736-1.705-4.572-2.379-7.336-3.2a36.794,36.794,0,0,1-5.456-2.193Z" transform="translate(-22.079 -53.325)" fill="#b47a52"/>
        <g id="neck-2" data-name="neck" transform="translate(45.148 27.524)">
          <rect id="Rectangle_2-2" data-name="Rectangle 2" width="9.86" height="15.775" fill="#b47a52"/>
          <path id="Intersection_2-2" data-name="Intersection 2" d="M1.6,5.682A15.1,15.1,0,0,1,0,3.751V0H9.86V7.924A2.139,2.139,0,0,1,8.4,8.964a3.011,3.011,0,0,1-.352.02C6.072,8.984,3.122,7.274,1.6,5.682Z" transform="translate(0 3.287)" fill="#673115" opacity="0.2"/>
        </g>
        <g id="face-2" data-name="face" transform="translate(36.497 11.122) rotate(-8)">
          <path id="Path_4-2" data-name="Path 4" d="M.771,16.835C-1.615,9.443,2.085,3.387,4.425,2.093s7.523-3.375,11.586-1.032S23.082,6.2,22.164,13.168a26.642,26.642,0,0,1-4.417,11.22c-1.577,2.244-3.524,3.832-5.305,3.739C8.459,27.918,3.157,24.226.771,16.835Z" transform="translate(0.62 0.782) rotate(-2.007)" fill="#b47a52"/>
          <path id="face-shadow-2" data-name="face-shadow" d="M0,0A7.761,7.761,0,0,1,1.345.571C5.486,2.805,8.1,4.159,8.432,9.748A23.6,23.6,0,0,1,3.518,25.129,7.211,7.211,0,0,1,0,27.806Z" transform="translate(14.887 0.701)" fill="#673115" opacity="0.3"/>
          <path id="Path_6-2" data-name="Path 6" d="M1.032,0,2.779,5.791,0,6.538Z" transform="translate(13.647 14.36) rotate(-2.007)" fill="#b47a52"/>
          <path id="Path_7-2" data-name="Path 7" d="M5.807,1.63,5.6,1.385A4.419,4.419,0,0,0,3.079,0,17.251,17.251,0,0,0,0,.4" transform="translate(5.627 14.31) rotate(-4.992)" fill="none" stroke="#360e0e" stroke-width="0.526"/>
          <path id="Path_8-2" data-name="Path 8" d="M0,1.441S.986,0,2.152,0a12.587,12.587,0,0,1,2.9.539" transform="translate(16.397 14.554) rotate(6.024)" fill="none" stroke="#360e0e" stroke-width="0.526"/>
          <path id="Path_9-2" data-name="Path 9" d="M.764,0C1.183,0,1.9.4,1.9.943a.874.874,0,0,1-.807.963A1.065,1.065,0,0,1,.006.986.9.9,0,0,1,.764,0Z" transform="matrix(0.914, -0.407, 0.407, 0.914, 8.248, 14.497)" fill="#360e0e"/>
          <path id="Path_1638-2" data-name="Path 1638" d="M.767,0c.422,0,1.141.4,1.141.943a.876.876,0,0,1-.808.963A1.067,1.067,0,0,1,.006.986.9.9,0,0,1,.767,0Z" transform="translate(17.669 14.602) rotate(-13)" fill="#360e0e"/>
          <path id="Path_13-2" data-name="Path 13" d="M4.068.142C3.538.132,0,0,0,0S2.009,2.753,3.97,2.971,7.584.265,7.584.265,4.386.156,4.068.142Z" transform="translate(9.996 21.998) rotate(-2.007)" fill="#91163b"/>
          <path id="Path_1592-2" data-name="Path 1592" d="M0,6.376a3.58,3.58,0,0,0,1.605.534c.6-.07,1.34-1.086.994-2.813S.22,0,.22,0Z" transform="translate(3.846 20.39) rotate(170)" fill="#b47a52"/>
          <path id="Path_4022" data-name="Path 4022" d="M6.772,0l.352,1.141s-1.952.448-3.638.866A12.4,12.4,0,0,0,0,3.707,5.768,5.768,0,0,1,2.559,1.374C4.211.7,6.772,0,6.772,0Z" transform="matrix(0.899, 0.438, -0.438, 0.899, 6.752, 8.446)" fill="#140662"/>
          <path id="Path_4023" data-name="Path 4023" d="M5.445,3.34l.31-1.09s-1.718-.428-3.2-.827A6.6,6.6,0,0,1,0,0,3.062,3.062,0,0,0,1.733,2.027,38.487,38.487,0,0,0,5.445,3.34Z" transform="matrix(-0.899, 0.438, -0.438, -0.899, 22.244, 12.048)" fill="#140662"/>
        </g>
        <path id="pelvis-2" data-name="pelvis" d="M56.462,140.717A81.938,81.938,0,0,0,73.1,142.19a35.91,35.91,0,0,0,12.461-2.6l4.782,10.4s-6.929,15.272-16.4,16.295-21.494-11.9-21.494-11.9Z" transform="translate(-19.92 -53.325)" fill="#6e6e6e"/>
        <path id="top-2" data-name="top" d="M67.32,94.437a50.46,50.46,0,0,1-4.887,2.016c-2.032.719-4.677,1.261-6.546,2.9-3.166,2.78,2.548,13.224,3.914,21.439s1.549,11.421,1.549,11.421l-5.463,15.2s10.352,3.722,19.118,3.471,15.237-6.259,15.237-6.259l-6.129-12.411a127.162,127.162,0,0,1,1.562-13.559c.979-4.5,8.156-14.89,4.391-18.623-1.736-1.721-4.78-2.629-7.545-3.46a48.947,48.947,0,0,1-5.6-2.136s.357,4.854-4.179,4.919S67.32,94.437,67.32,94.437Z" transform="translate(-22.079 -53.325)" fill="#a6a4ff"/>
        <g id="hair-front-2" data-name="hair-front" transform="translate(36.192 8.391) rotate(-8)">
          <path id="Path_14" data-name="Path 14" d="M.884,4.927c3.375,4.912,6.284,3.6,10.662,7.83s3.429,13.375,3.429,13.375,4.913-11.663,2.908-16.48S13.862,2.105,9.211.648-2.491.015.884,4.927Z" transform="translate(6.507)" fill="#140062"/>
          <path id="Path_15" data-name="Path 15" d="M8.918,4.407a23.041,23.041,0,0,0-5.591,8.958c-1.619,5.247,0,6.042,0,6.042S-1.275,13.951.346,7.88A11.646,11.646,0,0,1,6.829,0Z" transform="translate(0 2.136)" fill="#140062"/>
        </g>
        <g id="arm1-2" data-name="arm1" transform="translate(54.741 119.969) rotate(177)">
          <path id="Path_1641" data-name="Path 1641" d="M0,6.359,6.8,31.366s3.7,7.081,6.621,8.786c3.713,2.17,8.035,1.348,7.557-3.369C20.162,28.72,10.382,10.232,5.138,2.626S0,6.359,0,6.359Z" transform="translate(24.848 30.224) rotate(36.996)" fill="#b47a52" opacity="0.998"/>
          <path id="Path_1642" data-name="Path 1642" d="M.129,16.435C-.752,11.153,2.8,9.446,13.769,4.429S26.164.024,26.164.024L29.1,3.092a81.769,81.769,0,0,0-13.778,8.514C8.614,16.816,1.009,21.716.129,16.435Z" transform="matrix(0.866, -0.5, 0.5, 0.866, 14.455, 25.616)" fill="#b47a52"/>
          <path id="Path_1643" data-name="Path 1643" d="M0,4.715,6.908,0s-.09,3.239.667,3.667c.359.2,9.712,1.948,8.968,5.428A39.617,39.617,0,0,0,10,8.247a68.33,68.33,0,0,0-7.968.3Z" transform="translate(32.358 10.88) rotate(-41)" fill="#b47a52"/>
        </g>
        <g id="leg2-2" data-name="leg2" transform="translate(42.933 63.641)">
          <path id="Path_4017-2" data-name="Path 4017" d="M.133,33.256C.983,46.7-.261,72.7,7.824,66.048S20.88,13.177,18.757,3.99C17.194-2.771,9.3-1.268,4.374,11.029,2.7,15.187-.716,19.814.133,33.256Z" transform="matrix(-0.643, -0.766, 0.766, -0.643, 12.372, 57.888)" fill="#9d633f"/>
          <path id="Path_4018-2" data-name="Path 4018" d="M7.3,42.1A53.382,53.382,0,0,1,.4,21.828c-1.423-11.7,1.38-18.722,1.38-18.722A5.22,5.22,0,0,1,6.167.009c3.233-.2,5.609,2.952,5.609,2.952A163.536,163.536,0,0,1,13.043,23.6c0,11.7-.447,26.414-.447,26.414Z" transform="matrix(0.766, -0.643, 0.643, 0.766, 49.087, 15.176)" fill="#9d633f"/>
        </g>
        <g id="leg1-2" data-name="leg1" transform="translate(27.761 65.614)">
          <path id="Path_4015-2" data-name="Path 4015" d="M18.025.719C-.033-3.518-1.215,11.6.638,29.66S7.659,67.968,14.4,65.379c4.783-1.837,11.871-33.583,9.888-52.463C23.492,5.407,22.229,1.514,18.025.719Z" transform="matrix(-0.545, -0.839, 0.839, -0.545, 13.414, 56.388)" fill="#b47a52"/>
          <path id="Path_4016-2" data-name="Path 4016" d="M6.041,52.408S.53,35.628.086,26.113A169.751,169.751,0,0,1,1.058,4.024S2.57-.587,6.374.063s4.51,5.018,4.51,5.018.723,9.334.723,21.034-.991,26.3-.991,26.3Z" transform="matrix(0.731, -0.682, 0.682, 0.731, 50.6, 13.198)" fill="#b47a52"/>
        </g>
        <path id="skirt" d="M573.273,603.914s-10.5,15.381-6.671,24.561c2.374,5.69,9.046,11.223,19.027,10.752s16.477,2.6,16.477,2.6,8.52-12.562,5.271-25.2,5.981-22.3,5.981-22.3l-14.6,5.288a27.246,27.246,0,0,1-10.714,4.294C581.671,604.988,573.273,603.914,573.273,603.914Z" transform="translate(-535.902 -519.352)" fill="#3d21e3"/>
        <path id="shoe1" d="M362.461,245.582s7.236,6.8,8.672,8.037,5.386,4.029,5.386,4.029l3.878,1.635s1.268.315-4.526,1.906-17.539-3.542-17.539-3.542l-.421-7.859Z" transform="translate(-242.909 -138.734)" fill="#5f0412"/>
        <path id="shoe2" d="M362.461,245.582s7.236,6.8,8.672,8.037,5.386,4.029,5.386,4.029l3.878,1.635s1.268.315-4.526,1.906-17.539-3.542-17.539-3.542l-.421-7.859Z" transform="translate(-234.364 -143.992)" fill="#5f0412"/>
        <path id="sleeve1" d="M575.437,565.878c-7.882-5.265-11.406,9.695-11.406,9.695l10.886,12.613S583.319,571.142,575.437,565.878Z" transform="translate(-535.902 -519.352)" fill="#a6a4ff"/>
        <path id="sleeve2" d="M597.262,563.009l7.854,1.886,2.214,11.266s-10.679.588-12.871-2.842S597.262,563.009,597.262,563.009Z" transform="translate(-535.902 -519.352)" fill="#a6a4ff"/>
      </g>
      <g id="Group_10732" data-name="Group 10732" transform="translate(317.516 182.436)">
        <path id="Union_2" data-name="Union 2" d="M3.188,18.076H2.629a2.3,2.3,0,0,1-2.3-2.3V2.629a2.3,2.3,0,0,1,2.3-2.3H22.348a2.3,2.3,0,0,1,2.3,2.3V15.775a2.3,2.3,0,0,1-2.3,2.3H7.2l-4.01,5.052Z" transform="translate(-0.329 -0.329)" fill="#fff" stroke="#fd4d7c" stroke-width="0.657"/>
        <g id="Mask_Group_1" data-name="Mask Group 1" transform="translate(5.587 2.105)" clip-path="url(#clip-path-3)">
          <g id="shopping_cart-24px">
            <path id="Path_4117" data-name="Path 4117" d="M0,0H13.146V13.146H0Z" fill="none"/>
            <path id="Path_4118" data-name="Path 4118" d="M8.517,7.121a1.09,1.09,0,0,0,.958-.564L11.437,3a.546.546,0,0,0-.477-.81H2.854L2.339,1.1H.548v1.1h1.1L3.615,6.348,2.876,7.685a1.1,1.1,0,0,0,.958,1.627h6.573v-1.1H3.834l.6-1.1ZM3.374,3.287h6.655L8.517,6.025H4.672Zm.46,6.573a1.094,1.094,0,1,0,.775.32,1.1,1.1,0,0,0-.775-.32Zm5.477,0a1.094,1.094,0,1,0,.776.321,1.1,1.1,0,0,0-.776-.321Z" fill="#acbef1"/>
          </g>
        </g>
        <circle id="Ellipse_27" data-name="Ellipse 27" cx="1.972" cy="1.972" r="1.972" transform="translate(15.447 2.105)" fill="#fd4d7c"/>
      </g>
    </g>
  </g>
</svg>
