<svg xmlns="http://www.w3.org/2000/svg" xmlns:xlink="http://www.w3.org/1999/xlink" width="100" height="100" viewBox="0 0 100 100">
  <defs>
    <clipPath id="clip-path">
      <rect id="Rectangle_30" data-name="Rectangle 30" width="100" height="100" transform="translate(711 33)" fill="#fff" stroke="#707070" stroke-width="1"/>
    </clipPath>
    <clipPath id="clip-path-2">
      <rect id="Rectangle_121" data-name="Rectangle 121" width="65.55" height="85.885" transform="translate(43.78 78.947)" fill="#fff" stroke="#707070" stroke-width="0.239"/>
    </clipPath>
    <clipPath id="clip-path-3">
      <rect id="Rectangle_33" data-name="Rectangle 33" width="49.761" height="65.072" transform="translate(83.732 220.226)" fill="#fff" stroke="#707070" stroke-width="0.239"/>
    </clipPath>
  </defs>
  <g id="birthday" transform="translate(-711 -33)" clip-path="url(#clip-path)">
    <g id="birthday-2" data-name="birthday" transform="translate(683.966 -159.943)">
      <g id="Group_44" data-name="Group 44" transform="translate(-9.091 138.995)">
        <g id="Group_27" data-name="Group 27" transform="translate(12.201 1.675)">
          <path id="Path_39" data-name="Path 39" d="M15.85,0C24.6,0,31.7,3.319,31.7,7.413s-7.96,2.651-16.866.884S8.354,8.732,1.5,6.81,7.1,0,15.85,0Z" transform="translate(38.13 130.755) rotate(2.98)" opacity="0.09"/>
          <g id="Mask_Group_1" data-name="Mask Group 1" transform="translate(-19.856 -19.617)" clip-path="url(#clip-path-2)">
            <g id="Group_603" data-name="Group 603" transform="translate(31.093 71.324)">
              <g id="Group_604" data-name="Group 604">
                <g id="Group_146" data-name="Group 146" transform="matrix(-0.875, -0.485, 0.485, -0.875, 53.482, 96.389)">
                  <path id="Path_367" data-name="Path 367" d="M39.094,17.841c-4.137,5.852.178,13.525-1.194,17.98S36.175,44.3,40.033,46.758c2.523,1.609,4.871,1.76,8.62-.9s3.528-11.106,8.407-16.166,6.312-20.161-.316-21.839-9.005.9-14.874-.109S43.23,11.988,39.094,17.841Z" transform="matrix(0.777, -0.629, 0.629, 0.777, -17.248, 62.309)" fill="#5a2c1f"/>
                  <path id="Path_126" data-name="Path 126" d="M7.54,19.07a11.042,11.042,0,0,1-3.644.654A8.391,8.391,0,0,1,0,18.478L.777,3.357,4.972,0Z" transform="matrix(0.857, -0.515, 0.515, 0.857, 9.548, 22.442)" fill="#e3a976"/>
                  <path id="Path_127" data-name="Path 127" d="M4.667,15.133A32.225,32.225,0,0,0,7.274,8.858,36.794,36.794,0,0,0,8.724,2.635c.1-3.509-1.435-2.5-1.435-2.5L6.525,1.1S-.534,15.116.032,17.664C.711,20.72,4.667,15.133,4.667,15.133Z" transform="translate(0.497 13.935) rotate(-45.972)" fill="#e3a976"/>
                  <path id="Path_135" data-name="Path 135" d="M15.875,13.331,3.261,4.028c-.506-.31-.34-1.33.293-1.858s2.11.074,2.752.071c1.284-.007,3.2,2.364,5.076,2.881a10.491,10.491,0,0,1,4.46,2.6c.607.37,2.384-.093,1.878.7C15.867,11.909,15.875,13.331,15.875,13.331Z" transform="translate(58.602 56.211) rotate(160.007)" fill="#e3a976"/>
                  <path id="Path_135-2" data-name="Path 135" d="M14.272-.964l1.923,16.233c0,.619,3.391,1.624,3.747,1.061.712-1.124.2-6.077.2-6.077s.007-2.424.115-5.38c0-.742,1.393-2.043.4-2.043-1.219-.1-2.629-1.689-3.571-2.192C15.036-.461,14.272-.964,14.272-.964Z" transform="translate(14.714 49.585) rotate(19.993)" fill="#e3a976"/>
                  <path id="Path_130" data-name="Path 130" d="M3.615,7.866,0,8.308l1.985-2.85S-.389.667.441.094C.861-.2,1.682.2,2.655,1.063A7.671,7.671,0,0,1,4.249,2.9a6.232,6.232,0,0,1,.9,1.961Z" transform="matrix(0.515, -0.857, 0.857, 0.515, 0.01, 8.798)" fill="#e3a976"/>
                  <path id="Path_125" data-name="Path 125" d="M13.528,29.243c-.675.234-1.262.368-2.047.587a10.737,10.737,0,0,1-7.423.539c-3-.495-.21.72-2.812-6.177-.721-1.911,2.361-6.18,2.272-8.775A25.292,25.292,0,0,0,0,3.69s15.417-7.911,15.88-.566a17.273,17.273,0,0,1-.117,3.74c-.548,3.628-5.187,4.409-2.712,13.292C13.745,28.359,16.6,28.2,13.528,29.243Z" transform="matrix(0.891, -0.454, 0.454, 0.891, 16.83, 34.659)" fill="#e3a976"/>
                  <path id="Path_128" data-name="Path 128" d="M8.317,18.266c-.389,4.388-.256-1.037-2.145-1.041S0,15.7,0,15.7L3.2,0,7.432.534S8.707,13.878,8.317,18.266Z" transform="matrix(0.857, -0.515, 0.515, 0.857, 15.824, 20.488)" fill="#e3a976"/>
                  <path id="Path_129" data-name="Path 129" d="M4.249,15.424C5.832,11.4,5.85.19,5.85.19L4.045,0S-.718,11.069.093,15.822,2.666,19.453,4.249,15.424Z" transform="translate(25.318 1.123) rotate(25)" fill="#e3a976"/>
                  <path id="Path_361" data-name="Path 361" d="M6.876,5.436S5.2,4.134,5.03,2.862C5.029,2.85,4.569,0,4.569,0L0,1.939s.446.913.854,1.708a6.5,6.5,0,0,1,.555,1.61Z" transform="translate(35.032 56.743) rotate(-10)" fill="#e3a976"/>
                  <path id="Path_362" data-name="Path 362" d="M-.683,2.406l.3-1.31c.6-.263,2.212-1,3.356-.69s.892,2.225.892,2.225l.01,1.22Z" transform="translate(36.422 60.015) rotate(-42)" opacity="0.089"/>
                  <path id="Path_360" data-name="Path 360" d="M14.856,14.739c3.174,0,5.605-2.177,5.605-5.88s-4.958-9.1-7.31-7.495-2.629,2.967-3.3,6.959S11.68,14.739,14.856,14.739Z" transform="translate(24.705 66.043) rotate(-29)" fill="#e3a976"/>
                  <path id="primary" d="M18.121,30.011a7.842,7.842,0,0,1-1.182.437c-.287-1.38-2.252-5.111-5.439-4.6s-1.706,4.976-2.432,5.66A4.446,4.446,0,0,1,8,31.387c-.409-.222.373-1.18-1.859-7.094-.721-1.911.989-4.516.9-7.112C6.194,14.747,0,5.426,0,5.426S5.337,2.038,8.928,1.368c3.986-.744,6.725-2.531,9.086-.242.712.691,4.455.957,4.455.957a10.529,10.529,0,0,0-2.113,4.191c-.431,2.08-3.522,7.464-3.636,8.682.366,1.408.8,4.226.939,5.38.411,3.291-.247,2.982-.607,5.407a7.262,7.262,0,0,0,1.07,4.267Z" transform="translate(13.291 34.533) rotate(-23.025)" fill="#5d48f8"/>
                  <path id="Path_364" data-name="Path 364" d="M.022,2.538s-.137-1.214.49-.446a15.281,15.281,0,0,1,2.02,3.521c.522,1.306.067,1.7.067,1.7A1.613,1.613,0,0,0,3.787,5.779,6.067,6.067,0,0,0,2.678,2.221C1.791.615,1.169-.073.506.006S.022,2.538.022,2.538Z" transform="matrix(0.259, -0.966, 0.966, 0.259, 0, 8.845)" fill="#393939"/>
                  <path id="Path_136" data-name="Path 136" d="M3.924,1.6C1.932,2.389-.887,6.25-.887,6.25l-3.718,4.378S-3.9,12.679-3.252,12c0,0,8.359-5.732,10-8.091S5.914.82,3.924,1.6Z" transform="translate(50.887 60.459) rotate(-115)" fill="#e3a976"/>
                  <path id="Path_136-2" data-name="Path 136" d="M19.6,8.06c-1.722,1.273-6.718,1.375-12.4,2.207,0,0-.658-1.493.264-1.683,0,0,9.864-4.562,12.736-4.7S21.317,6.786,19.6,8.06Z" transform="translate(13.154 84.18) rotate(-65)" fill="#e3a976"/>
                  <path id="Path_137" data-name="Path 137" d="M2.431.82.266.7S-.619.344-.972.863s.928,1.29.928,1.29a7.587,7.587,0,0,0-1.493,1.71c-.485.867-.62,1.137-.446,1.755s.3.859,1.14.712S.309,5.651,1.12,4.741A23.513,23.513,0,0,0,2.829,2.459Z" transform="translate(62.939 62.211) rotate(-130.987)" fill="#e3a976"/>
                  <path id="Path_137-2" data-name="Path 137" d="M9.675,3.28l-1.042,1.9s-.171.937-.8.961-.6-1.471-.6-1.471a7.587,7.587,0,0,1-2.241.359C4,4.984,3.7,4.954,3.267,4.481s-.569-.712,0-1.344,1.188-.617,2.389-.822A23.513,23.513,0,0,1,8.5,2.075Z" transform="translate(17.078 85.201) rotate(-49.013)" fill="#e3a976"/>
                  <path id="Path_130-2" data-name="Path 130" d="M3.615,7.868,0,8.31,1.986,5.459S-.389.667.441.094C.861-.2,1.683.2,2.656,1.063A7.672,7.672,0,0,1,4.249,2.905a6.233,6.233,0,0,1,.9,1.962Z" transform="matrix(0.994, 0.105, -0.105, 0.994, 25.881, -1.34)" fill="#e3a976"/>
                  <path id="Path_364-2" data-name="Path 364" d="M.022,2.538s-.137-1.214.49-.446a15.281,15.281,0,0,1,2.02,3.521c.522,1.306.067,1.7.067,1.7A1.613,1.613,0,0,0,3.787,5.779,6.066,6.066,0,0,0,2.678,2.221C1.791.615,1.169-.073.506.006S.022,2.538.022,2.538Z" transform="translate(25.832 -1.329) rotate(-10)" fill="#393939"/>
                </g>
                <path id="Path_366" data-name="Path 366" d="M11.962,1.861c.848,1.528-8.1,2.419-10.339,7.914-1.733,2.483-1.642,1.091-1.611,0,.056-2,1.846-7.6,3.574-8.834C6.212-.941,11.114.333,11.962,1.861Z" transform="translate(40.827 13.089) rotate(-11)" fill="#5a2c1f"/>
              </g>
            </g>
          </g>
        </g>
      </g>
      <g id="Mask_Group_6" data-name="Mask Group 6" transform="translate(-6.459 0.588)" clip-path="url(#clip-path-3)">
        <g id="bithday" transform="translate(84.362 220.093)">
          <path id="Path_5" data-name="Path 5" d="M39.187,5.6a3.069,3.069,0,1,1-6.127,0c0-1.167,1.292-3.561,2.2-5.1a.99.99,0,0,1,1.729,0C37.895,2.043,39.187,4.438,39.187,5.6Z" transform="translate(-11.835)" fill="#f9c900"/>
          <path id="Path_6" data-name="Path 6" d="M38.988,22.978H32.861a1.054,1.054,0,0,1-1.021-1.084V11.057a1.054,1.054,0,0,1,1.021-1.084h6.127a1.054,1.054,0,0,1,1.021,1.084V21.894A1.053,1.053,0,0,1,38.988,22.978Z" transform="translate(-11.636 -1.119)" fill="#80f1fa"/>
          <path id="Path_7" data-name="Path 7" d="M32.861,9.974a1.054,1.054,0,0,0-1.021,1.084V21.9a1.054,1.054,0,0,0,1.021,1.084H34.9v-13Z" transform="translate(-11.636 -1.119)" opacity="0.097"/>
          <g id="Group_7" data-name="Group 7" transform="translate(2.844 3.437)">
            <path id="Path_8" data-name="Path 8" d="M35.5,7.122a21.287,21.287,0,0,1,1.021-3.251,21.27,21.27,0,0,1,1.021,3.251,1.023,1.023,0,1,1-2.042,0Z" transform="translate(-15.078 -3.871)" fill="#f5e038"/>
            <path id="Path_9" data-name="Path 9" d="M21.861,70.706H43.209a5.135,5.135,0,0,0,4.819-3.628l5.952-18.044H11.09l5.952,18.044A5.135,5.135,0,0,0,21.861,70.706Z" transform="translate(-11.09 -8.938)" fill="#f5e038"/>
          </g>
          <g id="Group_8" data-name="Group 8" transform="translate(2.844 43.532)">
            <path id="Path_10" data-name="Path 10" d="M29.6,49.033l3.4,21.673h5.106l3.4-21.673Z" transform="translate(-14.114 -49.033)" fill="#f9aa0c"/>
            <path id="Path_11" data-name="Path 11" d="M11.09,49.033l5.952,18.045a5.136,5.136,0,0,0,4.819,3.628h3.893L19.218,49.033Z" transform="translate(-11.09 -49.033)" fill="#f9aa0c"/>
            <path id="Path_12" data-name="Path 12" d="M59.491,49.033,53.541,67.078a5.136,5.136,0,0,1-4.819,3.628H44.827l6.536-21.673Z" transform="translate(-16.602 -49.033)" fill="#f9aa0c"/>
          </g>
          <path id="Path_13" data-name="Path 13" d="M53.979,49.033H11.09l1.072,3.251H52.907Z" transform="translate(-8.246 -5.501)" fill="#f9c900"/>
          <g id="Group_9" data-name="Group 9" transform="translate(2.844 43.532)">
            <path id="Path_14" data-name="Path 14" d="M41.516,49.033H29.6l.511,3.251H41Z" transform="translate(-14.114 -49.033)" fill="#ea802c"/>
            <path id="Path_15" data-name="Path 15" d="M19.218,49.033H11.09l1.072,3.251H20.2Z" transform="translate(-11.09 -49.033)" fill="#ea802c"/>
            <path id="Path_16" data-name="Path 16" d="M60.576,49.033H52.448l-.981,3.251H59.5Z" transform="translate(-17.687 -49.033)" fill="#ea802c"/>
          </g>
          <path id="Path_17" data-name="Path 17" d="M31.979,24.621c-12.337,0-22.545,6.606-24.256,19.035a3.193,3.193,0,0,0,3.032,3.721H53.2a3.194,3.194,0,0,0,3.032-3.721C54.524,31.227,44.316,24.621,31.979,24.621Z" transform="translate(-7.69 -2.762)" fill="#623c07"/>
          <path id="Path_19" data-name="Path 19" d="M32.335,22.18A24.16,24.16,0,0,0,9.87,36.874v2.644a4.216,4.216,0,0,0,4.085,4.335,4.215,4.215,0,0,0,4.084-4.335V35.184a2.046,2.046,0,1,1,4.085,0v1.084a4.092,4.092,0,1,0,8.169,0V31.933a2.046,2.046,0,1,1,4.085,0V34.1a4.092,4.092,0,1,0,8.169,0,2.046,2.046,0,1,1,4.085,0v3.251a4.092,4.092,0,1,0,8.169,0v-.477A24.159,24.159,0,0,0,32.335,22.18Z" transform="translate(-8.046 -2.489)" fill="#f1ede8"/>
          <path id="Path_20" data-name="Path 20" d="M25.439,23.256A24.019,24.019,0,0,0,9.869,36.995v2.644a4.216,4.216,0,0,0,4.085,4.335,3.867,3.867,0,0,0,1.2-.19A31.977,31.977,0,0,1,25.439,23.256Z" transform="translate(-8.046 -2.609)" fill="#e3dcd2"/>
          <ellipse id="Ellipse_1" data-name="Ellipse 1" cx="1.021" cy="1.084" rx="1.021" ry="1.084" transform="translate(4.887 32.695)" fill="#e05161"/>
          <ellipse id="Ellipse_2" data-name="Ellipse 2" cx="1.021" cy="1.084" rx="1.021" ry="1.084" transform="translate(17.141 28.36)" fill="#40cacf"/>
          <ellipse id="Ellipse_3" data-name="Ellipse 3" cx="1.021" cy="1.084" rx="1.021" ry="1.084" transform="translate(14.078 25.11)" fill="#f5e038"/>
          <ellipse id="Ellipse_4" data-name="Ellipse 4" cx="1.021" cy="1.084" rx="1.021" ry="1.084" transform="translate(19.183 24.026)" fill="#c2de35"/>
          <ellipse id="Ellipse_5" data-name="Ellipse 5" cx="1.021" cy="1.084" rx="1.021" ry="1.084" transform="translate(27.353 22.942)" fill="#e05161"/>
          <ellipse id="Ellipse_6" data-name="Ellipse 6" cx="1.021" cy="1.084" rx="1.021" ry="1.084" transform="translate(31.438 25.11)" fill="#90bf2c"/>
          <ellipse id="Ellipse_7" data-name="Ellipse 7" cx="1.021" cy="1.084" rx="1.021" ry="1.084" transform="translate(29.395 28.36)" fill="#c971c2"/>
          <ellipse id="Ellipse_8" data-name="Ellipse 8" cx="1.021" cy="1.084" rx="1.021" ry="1.084" transform="translate(41.649 33.779)" fill="#40cacf"/>
        </g>
      </g>
    </g>
  </g>
</svg>
