<svg xmlns="http://www.w3.org/2000/svg" xmlns:xlink="http://www.w3.org/1999/xlink" width="100" height="100" viewBox="0 0 100 100">
  <defs>
    <clipPath id="clip-path">
      <rect id="Rectangle_9" data-name="Rectangle 9" width="50" height="50" transform="translate(451 83)" fill="#f5ba3d" stroke="#707070" stroke-width="1"/>
    </clipPath>
    <clipPath id="clip-path-2">
      <rect id="Rectangle_12" data-name="Rectangle 12" width="10" height="10" transform="translate(437 84)" fill="#fff" stroke="#707070" stroke-width="1"/>
    </clipPath>
    <clipPath id="clip-path-6">
      <rect id="Rectangle_15" data-name="Rectangle 15" width="13.812" height="13.987" transform="translate(437 84)" fill="#fff" stroke="#707070" stroke-width="1"/>
    </clipPath>
    <clipPath id="clip-path-7">
      <rect id="Rectangle_16" data-name="Rectangle 16" width="13.867" height="12.676" transform="translate(437 84)" fill="#fff" stroke="#707070" stroke-width="1"/>
    </clipPath>
  </defs>
  <g id="earned" transform="translate(-426 -58)">
    <g id="Group_6" data-name="Group 6">
      <rect id="primary" width="100" height="100" rx="50" transform="translate(426 58)" fill="#9110ff" opacity="0.1"/>
      <rect id="primary-2" data-name="primary" width="80" height="80" rx="40" transform="translate(436 68)" fill="#9110ff" opacity="0.1"/>
      <g id="Mask_Group_2" data-name="Mask Group 2" clip-path="url(#clip-path)">
        <g id="gift_2_" data-name="gift (2)" transform="translate(451 83)">
          <path id="Path_8" data-name="Path 8" d="M38.394,5.758c-1.489-2.785-3.273-4.2-5.3-4.2-2.336,0-4.762,1.909-7.214,5.676-.314.482-.607.964-.878,1.43-.271-.465-.565-.948-.879-1.43-2.45-3.767-4.877-5.676-7.213-5.676-2.029,0-3.814,1.411-5.3,4.2a4.316,4.316,0,0,0-.179,4.469c.96,1.6,3.105,2.679,6.559,3.3a41.555,41.555,0,0,0,6.895.545h.24a41.556,41.556,0,0,0,6.895-.545c3.453-.616,5.6-1.7,6.56-3.3A4.319,4.319,0,0,0,38.394,5.758Z" fill="#da4453"/>
          <path id="Path_9" data-name="Path 9" d="M46.875,21.689a2.084,2.084,0,0,0-2.084-2.083H5.209a2.083,2.083,0,0,0-2.084,2.083V46.354a2.083,2.083,0,0,0,2.084,2.083H44.791a2.084,2.084,0,0,0,2.084-2.083V21.689Z" fill="#ffca3b"/>
          <path id="Path_10" data-name="Path 10" d="M50,23.439a2.084,2.084,0,0,1-2.084,2.083H2.084A2.083,2.083,0,0,1,0,23.439V13.022a2.085,2.085,0,0,1,2.084-2.084H47.916A2.085,2.085,0,0,1,50,13.022V23.439Z" fill="#ffdb57"/>
          <rect id="Rectangle_10" data-name="Rectangle 10" width="10.418" height="14.582" transform="translate(19.792 10.937)" fill="#ed5564"/>
          <path id="Path_11" data-name="Path 11" d="M3.125,27.581h43.75V25.587H3.125Z" opacity="0.134"/>
          <rect id="Rectangle_11" data-name="Rectangle 11" width="10.418" height="22.917" transform="translate(19.792 25.52)" fill="#da4453"/>
          <path id="Path_12" data-name="Path 12" d="M19.791,27.581H30.209V25.587H19.791Z" opacity="0.134"/>
        </g>
      </g>
    </g>
    <g id="Mask_Group_3" data-name="Mask Group 3" transform="matrix(0.951, -0.309, 0.309, 0.951, 13.131, 123.941)" clip-path="url(#clip-path-2)">
      <path id="star" d="M5,.245,6.545,3.375l3.455.5L7.5,6.314l.59,3.441L5,8.131,1.91,9.755,2.5,6.314,0,3.878l3.455-.5Z" transform="translate(437 84)" fill="#ffeb00"/>
    </g>
    <g id="Mask_Group_4" data-name="Mask Group 4" transform="matrix(0.899, 0.438, -0.438, 0.899, 156.748, -160.753)" clip-path="url(#clip-path-2)">
      <path id="star-2" data-name="star" d="M5,.245,6.545,3.375l3.455.5L7.5,6.314l.59,3.441L5,8.131,1.91,9.755,2.5,6.314,0,3.878l3.455-.5Z" transform="translate(437 84)" fill="#ffeb00"/>
    </g>
    <g id="Mask_Group_5" data-name="Mask Group 5" transform="translate(79.688 -70.648) rotate(8)" clip-path="url(#clip-path-2)">
      <path id="star-3" data-name="star" d="M5,.245,6.545,3.375l3.455.5L7.5,6.314l.59,3.441L5,8.131,1.91,9.755,2.5,6.314,0,3.878l3.455-.5Z" transform="translate(437 84)" fill="#ffeb00"/>
    </g>
    <g id="Mask_Group_8" data-name="Mask Group 8" transform="matrix(0.839, -0.545, 0.545, 0.839, 31.835, 307.089)" clip-path="url(#clip-path-2)">
      <path id="star-4" data-name="star" d="M5,.245,6.545,3.375l3.455.5L7.5,6.314l.59,3.441L5,8.131,1.91,9.755,2.5,6.314,0,3.878l3.455-.5Z" transform="translate(437 84)" fill="#ffeb00"/>
    </g>
    <g id="Mask_Group_6" data-name="Mask Group 6" transform="translate(-14.458 151.391) rotate(-17)" clip-path="url(#clip-path-6)">
      <path id="star-5" data-name="star" d="M6.906.245,9.04,4.624l4.772.7L10.359,8.734l.815,4.813L6.906,11.275,2.638,13.548l.815-4.813L0,5.326l4.772-.7Z" transform="translate(437 84.098)" fill="#ffeb00"/>
    </g>
    <g id="Mask_Group_7" data-name="Mask Group 7" transform="translate(56.667 41.624) rotate(1)" clip-path="url(#clip-path-7)">
      <path id="star-6" data-name="star" d="M6.934.245,9.076,4.213l4.791.637L10.4,7.938l.818,4.362L6.934,10.241,2.649,12.3l.818-4.362L0,4.85l4.791-.637Z" transform="translate(437 84.065)" fill="#ffeb00"/>
    </g>
  </g>
</svg>
