<svg xmlns="http://www.w3.org/2000/svg" xmlns:xlink="http://www.w3.org/1999/xlink" width="100" height="100" viewBox="0 0 100 100">
  <defs>
    <clipPath id="clip-path">
      <rect id="Rectangle_37" data-name="Rectangle 37" width="100" height="100" transform="translate(1197 33)" fill="#fff" stroke="#707070" stroke-width="1"/>
    </clipPath>
    <clipPath id="clip-path-2">
      <rect id="Rectangle_129" data-name="Rectangle 129" width="65.905" height="67.307" transform="translate(157.892 134.838)" fill="#fff" stroke="#707070" stroke-width="0.28"/>
    </clipPath>
    <clipPath id="clip-path-3">
      <rect id="Rectangle_124" data-name="Rectangle 124" width="62.499" height="63.861" fill="#fff" stroke="#707070" stroke-width="0.513"/>
    </clipPath>
  </defs>
  <g id="Mask_Group_7" data-name="Mask Group 7" transform="translate(-1197 -33)" clip-path="url(#clip-path)">
    <g id="Group_21" data-name="Group 21" transform="translate(1150.919 -331.006)">
      <g id="Mask_Group_9" data-name="Mask Group 9" transform="translate(-82.732 261.435)" clip-path="url(#clip-path-2)">
        <g id="Group_47" data-name="Group 47" transform="translate(159.55 137.06)">
          <g id="Group_46" data-name="Group 46" transform="translate(0 1.224)">
            <g id="Mask_Group_8" data-name="Mask Group 8" clip-path="url(#clip-path-3)">
              <g id="cube" transform="translate(2.883)">
                <path id="second" d="M76.64,21.389,48.276,37.318,19.908,21.389,48.276,5.31Z" transform="translate(-19.908 -5.31)" fill="#ff2f67"/>
                <path id="second-2" data-name="second" d="M54.786,40.953,26.422,56.88V25.025L54.786,9.1Z" transform="translate(1.946 6.981)" fill="#ff2f67"/>
                <path id="overlay" d="M54.786,40.953,26.422,56.88V25.025L54.786,9.1Z" transform="translate(1.946 6.981)" opacity="0.2"/>
                <path id="second-3" data-name="second" d="M19.908,40.953,48.276,56.88V25.025L19.908,9.1Z" transform="translate(-19.908 6.981)" fill="#ff2f67"/>
                <path id="overlay-2" data-name="overlay" d="M19.908,40.953,48.276,56.88V25.025L19.908,9.1Z" transform="translate(-19.908 6.981)" opacity="0.1"/>
              </g>
            </g>
            <path id="Path_45" data-name="Path 45" d="M2418.194,1644.646v31.572l10.062,5.8v-31.473Z" transform="translate(-2407.274 -1623.828)" fill="#fff" stroke="#fff" stroke-width="0.513" opacity="0.768"/>
            <path id="Path_46" data-name="Path 46" d="M2428.255,1644.724v31.451l-10.062,5.8v-31.474Z" transform="translate(-2376.807 -1623.784)" fill="#fff" stroke="#fff" stroke-width="0.513" opacity="0.513"/>
            <path id="Path_47" data-name="Path 47" d="M2428.266,1655.794l-9.825-6,27.54-15.529,9.327,5.319Z" transform="translate(-2407.145 -1629.611)" fill="#fff" stroke="#fff" stroke-width="0.513"/>
            <path id="Path_48" data-name="Path 48" d="M10.157.33.359,5.986,27.787,21.792l10.18-5.875Z" transform="translate(13.212 4.426)" fill="#fff" stroke="#fff" stroke-width="0.513"/>
          </g>
          <g id="Group_45" data-name="Group 45" transform="translate(5.654 -1.85) rotate(0.974)">
            <path id="Path_49" data-name="Path 49" d="M2431.885,1643.7s11.86-15.843,18.661-15.513,7.915,6.483,3.248,10.361S2431.885,1643.7,2431.885,1643.7Z" transform="translate(-2405.035 -1626.553)" fill="none" stroke="#ffd474" stroke-width="3.453"/>
            <path id="Path_50" data-name="Path 50" d="M21.578,16.95S11.276-.409,5.321-.018-1.635,7.135,2.428,11.377,21.578,16.95,21.578,16.95Z" transform="translate(0.01 5.159) rotate(-12.007)" fill="none" stroke="#ffd474" stroke-width="3.453"/>
          </g>
        </g>
      </g>
      <g id="Group_20" data-name="Group 20" transform="translate(-293.068 -81.049)">
        <g id="Group_19" data-name="Group 19" transform="translate(295.692 409.424)">
          <g id="Group_146" data-name="Group 146" transform="matrix(0.961, 0.275, -0.275, 0.961, 58.752, 26.843)">
            <path id="Path_367" data-name="Path 367" d="M5.433,23.047C4.422,15.513.877,14.449.2,9.439S.212,3.366,4.124.842C6.681-.808,10.759-.273,13.679,3.747s2.449,7.311,9.883,10.96,10.091,2.135,12.278,8.06c2.247,6.089-2.132,9.511-7.766,11.143S22.2,46.429,14.087,39.219,6.445,30.581,5.433,23.047Z" transform="translate(25.691 1.387) rotate(10.018)" fill="#5a2c1f"/>
            <g id="Group_609" data-name="Group 609" transform="matrix(0.994, 0.105, -0.105, 0.994, 1.326, 13.72)">
              <path id="Path_132" data-name="Path 132" d="M.046,14.019,1.43,1.963A1.851,1.851,0,0,1,3.1.036L4.6.015c.909-.012,1.61,1.8,1.61,1.8L6.286,13.39a2.164,2.164,0,0,1-1.9,2.047l-1.5.02C1.977,15.47.031,15.072.046,14.019Z" transform="translate(17.032 12.838) rotate(-94.012)" fill="#e3a976"/>
              <path id="Path_133" data-name="Path 133" d="M13.054.317,6.278.244a15.92,15.92,0,0,1-5.1-.236C.49-.068.267.161,0,1.571c-.21,1.122,2.966.638,2.966.638L10.81,4.364l2.748.614c.92.218,1.612-.746,1.823-1.866l-.168-1.339C15.425.652,13.973.536,13.054.317Z" transform="translate(6.384 2.412) rotate(17)" fill="#e3a976"/>
            </g>
            <path id="Path_125" data-name="Path 125" d="M14.289-.014,2.165.6s2.086-.142-.53,7.189C.911,9.817,4.169,13.807,4.09,16.569a26.551,26.551,0,0,1-4.118,12.8s17.249,7.756,17.688-.061c.372-6.622-3.241-6.117-3.762-12.925a39.577,39.577,0,0,1,.349-4.463C15.072.337,14.289-.014,14.289-.014Z" transform="translate(25.986 22.925) rotate(-11)" fill="#e3a976"/>
            <g id="Group_608" data-name="Group 608" transform="translate(19.42 8.952) rotate(-33.007)">
              <path id="Path_361" data-name="Path 361" d="M6.357.02A6.176,6.176,0,0,0,5.2,2.594a6.475,6.475,0,0,0,.406,2.836L.011,3.572A12.169,12.169,0,0,0,1.167,1.81,6.26,6.26,0,0,0,1.72.178Z" transform="translate(2.625 14.883)" fill="#e3a976"/>
              <path id="Path_362" data-name="Path 362" d="M-.006,1.908.415,3.279a1.673,1.673,0,0,0,1.814-.314A5.909,5.909,0,0,0,3.9.879l-.125-.89Z" transform="translate(5.488 13.22) rotate(33.992)" opacity="0.089"/>
              <path id="Path_360" data-name="Path 360" d="M5.5-.006C8.93.011,11.57,2.451,11.59,6.579S6.28,16.693,3.73,14.894.871,11.575.12,7.12,2.068-.023,5.5-.006Z" transform="translate(6.015 0.019) rotate(23.003)" fill="#e3a976"/>
            </g>
            <g id="Group_607" data-name="Group 607" transform="translate(14.197 43.355)">
              <path id="Path_128" data-name="Path 128" d="M9.616,1.722c-.539-4.508-.278,1.058-2.478,1.022S-.019,4.173-.019,4.173L3.571,20.1l4.409-.719S10.154,6.23,9.616,1.722Z" transform="translate(22.882 -0.068) rotate(48)" fill="#dba473"/>
              <path id="Path_129" data-name="Path 129" d="M4.5,3.6C6.25,7.816,7,19.39,7,19.39l-2.54.237S-.685,8.157.048,3.253,2.748-.607,4.5,3.6Z" transform="translate(12.142 13.231) rotate(33.992)" fill="#dba473"/>
              <path id="Path_131" data-name="Path 131" d="M3.517-.02l-2.676,2s.19-.207.039,1.57S-.619,8.392.237,9.084,4.375,5.632,4.375,5.632a3.875,3.875,0,0,0,.838-2.667c-.059-.6-.589-1.077-.932-1.618A15.33,15.33,0,0,1,3.517-.02Z" transform="translate(5.374 29.142) rotate(33.007)" fill="#dba473"/>
              <path id="Path_365" data-name="Path 365" d="M.076,5.628S.054,7.1.888,6.173a16.037,16.037,0,0,0,2.253-4.11C3.817.48,3.188-.016,3.188-.016A2.177,2.177,0,0,1,4.841,1.895c.074,1.537-.252,2.379-1.416,4.319S1.435,8.977.531,8.862.076,5.628.076,5.628Z" transform="matrix(0.731, 0.682, -0.682, 0.731, 5.975, 30.263)" fill="#393939"/>
            </g>
            <path id="Path_126" data-name="Path 126" d="M11.658-.037S6.2.11,4.114.088A8.94,8.94,0,0,0,0,1.307L1.028,16.746l5.048,1.273Z" transform="translate(42.536 44.05) rotate(56.993)" fill="#e3a976"/>
            <path id="Path_127" data-name="Path 127" d="M4.471,2.307s3.41,5.265,3.69,10.541a84.094,84.094,0,0,1-.1,9.95S-.627,4.436.032,1.2,4.471,2.307,4.471,2.307Z" transform="translate(28.402 53.979) rotate(-3)" fill="#e3a976"/>
            <path id="Path_130" data-name="Path 130" d="M3.425,0,1.416.862l.031,2.295S-.643,7.668.2,8.278c.426.308,1.262-.116,2.248-1.032A8.072,8.072,0,0,0,4.068,5.283,6.789,6.789,0,0,0,4.987,3.2Z" transform="matrix(0.961, -0.276, 0.276, 0.961, 33.849, 71.402)" fill="#e3a976"/>
            <path id="Path_364" data-name="Path 364" d="M0,5.029s-.124,1.287.5.479A15.888,15.888,0,0,0,2.516,1.8c.515-1.379.046-1.805.046-1.805A1.755,1.755,0,0,1,3.793,1.637,6.512,6.512,0,0,1,2.709,5.4C1.826,7.093,1.2,7.814.523,7.721S0,5.029,0,5.029Z" transform="translate(35.862 71.802)" fill="#393939"/>
          </g>
          <path id="Path_570" data-name="Path 570" d="M16.512.617a6.074,6.074,0,0,1-1.6-.056,8.986,8.986,0,0,1-3.267,4.714C9.688,6.816,8.657,6.569,7.316,6.712,4.673,6.993,8.962.794,8.227.068a2.539,2.539,0,0,0-.9-.031C5.4,2.993,3.668,5.79,3.539,7.525s1.738,5.894,1.643,8.656C4.762,19.759.01,26.072.01,26.072S4.754,27.414,6.44,31.8s8.239,5.49,10.639,3.051c.724-.736,7.376-3.681,7.376-3.681s-4.433-2.7-4.918-5.163c-.435-2.212-3.956-7.463-4.416-8.877,1.007-5.413.757-4.613.28-8.021A65.571,65.571,0,0,1,16.25,2Z" transform="translate(74.192 56.825) rotate(-2.007)" fill="#5d48f8"/>
          <path id="Path_366" data-name="Path 366" d="M.043,2.376c-.9,2.032,9.7,2.026,12.3,9.437,1.973,3.365,3.512-.2,3.453-1.664C15.685,7.467,11.218,3,9.278,1.306,6.332-1.267.945.345.043,2.376Z" transform="translate(84.015 37.384) rotate(24.003)" fill="#5a2c1f"/>
          <path id="Path_137" data-name="Path 137" d="M2.849.961.312.816S-.726.4-1.14,1.012-.052,2.524-.052,2.524a8.892,8.892,0,0,0-1.75,2c-.569,1.016-.727,1.333-.523,2.057s.354,1.007,1.336.835,1.351-.8,2.3-1.864a27.558,27.558,0,0,0,2-2.674Z" transform="translate(63.967 44.315) rotate(77.999)" fill="#e3a976"/>
        </g>
        <g id="Group_612" data-name="Group 612" transform="translate(385.682 466.348) rotate(-4)">
          <path id="Path_135" data-name="Path 135" d="M.791,12.179.006,2.9C.013,1.991,1.29.013,2.356,0c.906.928.308,2.111.688,2.8A21.39,21.39,0,0,1,4.872,8.07a12.583,12.583,0,0,1,.435,5.312c0,.551-.388.864-.437,1.848-.026.547-.3,1.781-.767,1.7C1.833,16.71.791,12.179.791,12.179Z" transform="matrix(-0.995, 0.105, -0.105, -0.995, 7.164, 16.837)" fill="#e3a976"/>
          <path id="Path_136" data-name="Path 136" d="M12.536,2.636a24.423,24.423,0,0,0-5.892-1.5L.785,0S-.641,1.7.34,1.9c0,0,8.7,4.066,11.751,4.251S14.924,3.713,12.536,2.636Z" transform="translate(3.436 27.278) rotate(-102.007)" fill="#e3a976"/>
          <path id="Path_137-2" data-name="Path 137" d="M6.921,1.821,5.3.38S3.536-.149,3.315.03,4.607.947,4.607.947A8.466,8.466,0,0,0,2.221.561C1.166.6.847.629.392,1.107s-.6.719.011,1.367A3.691,3.691,0,0,0,2.833,3.7,5.74,5.74,0,0,0,5.52,3.351Z" transform="matrix(-0.105, -0.995, 0.995, -0.105, 2.349, 31.672)" fill="#e3a976"/>
        </g>
      </g>
    </g>
  </g>
</svg>
