<svg xmlns="http://www.w3.org/2000/svg" xmlns:xlink="http://www.w3.org/1999/xlink" width="100" height="100" viewBox="0 0 100 100">
  <defs>
    <clipPath id="clip-path">
      <rect id="Rectangle_20" data-name="Rectangle 20" width="100" height="100" transform="translate(590 58)" fill="#fff" stroke="#707070" stroke-width="1"/>
    </clipPath>
    <clipPath id="clip-path-2">
      <rect id="Rectangle_121" data-name="Rectangle 121" width="64.725" height="84.804" transform="translate(43.229 77.953)" fill="#fff" stroke="#707070" stroke-width="0.236"/>
    </clipPath>
  </defs>
  <g id="refer_friend" data-name="refer friend" transform="translate(-590 -58)" clip-path="url(#clip-path)">
    <g id="refer" transform="translate(508.831 -43.182)">
      <g id="Group_27" data-name="Group 27" transform="translate(47.481 54.095)">
        <path id="Path_39" data-name="Path 39" d="M15.651,0C24.294,0,31.3,3.277,31.3,7.319s-7.86,2.618-16.654.873-6.4.43-13.169-1.468S7.007,0,15.651,0Z" transform="translate(37.65 129.108) rotate(2.98)" opacity="0.09"/>
        <g id="Mask_Group_1" data-name="Mask Group 1" transform="translate(-19.606 -19.37)" clip-path="url(#clip-path-2)">
          <g id="Group_603" data-name="Group 603" transform="translate(30.702 70.426)">
            <g id="Group_604" data-name="Group 604">
              <g id="Group_146" data-name="Group 146" transform="matrix(-0.875, -0.485, 0.485, -0.875, 52.809, 95.175)">
                <path id="Path_367" data-name="Path 367" d="M38.6,17.617c-4.085,5.779.176,13.354-1.179,17.753s-1.7,8.37,2.107,10.8c2.492,1.589,4.81,1.738,8.511-.887s3.484-10.966,8.3-15.962,6.233-19.907-.312-21.564-8.892.887-14.687-.108S42.686,11.837,38.6,17.617Z" transform="matrix(0.777, -0.629, 0.629, 0.777, -17.03, 61.524)" fill="#5a2c1f"/>
                <path id="Path_126" data-name="Path 126" d="M7.445,18.83a10.9,10.9,0,0,1-3.6.646A8.285,8.285,0,0,1,0,18.245L.767,3.315,4.91,0Z" transform="matrix(0.857, -0.515, 0.515, 0.857, 9.428, 22.159)" fill="#e3a976"/>
                <path id="Path_127" data-name="Path 127" d="M4.608,14.943a31.819,31.819,0,0,0,2.575-6.2A36.331,36.331,0,0,0,8.614,2.6C8.715-.863,7.2.133,7.2.133l-.754.949S-.527,14.926.032,17.442C.7,20.459,4.608,14.943,4.608,14.943Z" transform="translate(0.491 13.759) rotate(-45.972)" fill="#e3a976"/>
                <path id="Path_132" data-name="Path 132" d="M0,2.681V13.916a1.708,1.708,0,0,0,1.533,1.843l.963-.275c.847,0,1.075-1.83,1.35-5.044A71.85,71.85,0,0,0,3.89,2.619C3.89,1.6,2.6.206,1.991.269L1.533.836A1.711,1.711,0,0,0,0,2.681Z" transform="translate(33.993 58.142) rotate(130.987)" fill="#e3a976"/>
                <path id="Path_135" data-name="Path 135" d="M16.136,13.811,3.231,4.1c-.518-.324-.347-1.389.3-1.941s2.159.077,2.816.074C7.661,2.22,9.62,4.7,11.54,5.237A10.688,10.688,0,0,1,16.1,7.955c.621.387,2.439-.1,1.921.731C16.128,12.326,16.136,13.811,16.136,13.811Z" transform="translate(58.584 55.93) rotate(160.007)" fill="#e3a976"/>
                <path id="Path_130" data-name="Path 130" d="M3.569,7.767,0,8.2,1.96,5.389S-.385.658.436.092C.85-.193,1.661.2,2.622,1.049A7.574,7.574,0,0,1,4.2,2.868,6.154,6.154,0,0,1,5.088,4.8Z" transform="matrix(0.515, -0.857, 0.857, 0.515, 0.01, 8.687)" fill="#e3a976"/>
                <path id="Path_125" data-name="Path 125" d="M13.357,28.875c-.666.231-1.246.363-2.021.579a10.6,10.6,0,0,1-7.33.533c-2.963-.489-.207.711-2.777-6.1C.518,22,3.561,17.786,3.472,15.223A24.973,24.973,0,0,0,0,3.643s15.223-7.811,15.68-.559a17.055,17.055,0,0,1-.115,3.693c-.541,3.583-5.121,4.354-2.678,13.124C13.572,28,16.4,27.843,13.357,28.875Z" transform="matrix(0.891, -0.454, 0.454, 0.891, 16.618, 34.222)" fill="#e3a976"/>
                <path id="Path_128" data-name="Path 128" d="M8.212,18.036c-.385,4.333-.252-1.024-2.118-1.028S0,15.5,0,15.5L3.158,0l4.18.527S8.6,13.7,8.212,18.036Z" transform="matrix(0.857, -0.515, 0.515, 0.857, 15.625, 20.23)" fill="#e3a976"/>
                <path id="Path_129" data-name="Path 129" d="M4.2,15.23C5.758,11.252,5.777.187,5.777.187L3.994,0s-4.7,10.93-3.9,15.622S2.632,19.208,4.2,15.23Z" transform="translate(25 1.109) rotate(25)" fill="#e3a976"/>
                <path id="Path_361" data-name="Path 361" d="M6.789,5.367S5.132,4.082,4.967,2.826C4.966,2.814,4.512,0,4.512,0L0,1.915s.44.9.843,1.686a6.414,6.414,0,0,1,.548,1.59Z" transform="translate(34.59 56.029) rotate(-10)" fill="#e3a976"/>
                <path id="Path_362" data-name="Path 362" d="M-.675,2.376l.3-1.293C.219.823,1.808.091,2.937.4s.881,2.2.881,2.2l.01,1.2Z" transform="translate(35.964 59.259) rotate(-42)" opacity="0.089"/>
                <path id="Path_360" data-name="Path 360" d="M14.669,14.553c3.134,0,5.535-2.15,5.535-5.806s-4.9-8.983-7.218-7.4-2.6,2.929-3.263,6.871S11.533,14.554,14.669,14.553Z" transform="translate(24.394 65.211) rotate(-29)" fill="#e3a976"/>
                <path id="primary" d="M17.893,29.633a7.743,7.743,0,0,1-1.167.431c-.283-1.363-2.224-5.047-5.37-4.544s-1.685,4.913-2.4,5.589A4.39,4.39,0,0,1,7.9,30.991c-.4-.219.369-1.165-1.835-7-.712-1.887.977-4.459.888-7.023C6.116,14.561,0,5.358,0,5.358S5.27,2.013,8.816,1.351c3.936-.734,6.641-2.5,8.971-.239.7.682,4.4.945,4.4.945A10.4,10.4,0,0,0,20.1,6.2c-.425,2.053-3.477,7.37-3.591,8.572.361,1.391.786,4.173.928,5.313.405,3.25-.244,2.945-.6,5.339a7.17,7.17,0,0,0,1.056,4.213Z" transform="translate(13.124 34.098) rotate(-23.025)" fill="#5d48f8"/>
                <path id="Path_364" data-name="Path 364" d="M.022,2.506s-.136-1.2.484-.44A15.089,15.089,0,0,1,2.5,5.543c.515,1.289.066,1.68.066,1.68A1.593,1.593,0,0,0,3.739,5.706,5.99,5.99,0,0,0,2.644,2.193C1.768.607,1.154-.072.5.006S.022,2.506.022,2.506Z" transform="matrix(0.259, -0.966, 0.966, 0.259, 0, 8.734)" fill="#393939"/>
                <path id="Path_136" data-name="Path 136" d="M3.278,2.528C1.312,3.3-.876,6.172-.876,6.172l-3.671,4.323s.694,2.025,1.336,1.352c0,0,7.518-4.792,9.14-7.121S5.244,1.754,3.278,2.528Z" transform="translate(50.246 59.698) rotate(-115)" fill="#e3a976"/>
                <path id="Path_137" data-name="Path 137" d="M2.4.809.262.687S-.612.34-.96.852s.916,1.274.916,1.274A7.491,7.491,0,0,0-1.518,3.815C-2,4.671-2.13,4.938-1.959,5.548s.3.849,1.126.7,1.139-.672,1.939-1.57A23.216,23.216,0,0,0,2.793,2.428Z" transform="translate(62.146 61.428) rotate(-130.987)" fill="#e3a976"/>
                <path id="Path_130-2" data-name="Path 130" d="M3.57,7.769,0,8.2,1.961,5.39S-.385.658.436.092C.85-.193,1.661.2,2.622,1.05A7.576,7.576,0,0,1,4.2,2.868a6.155,6.155,0,0,1,.893,1.937Z" transform="matrix(0.994, 0.105, -0.105, 0.994, 25.555, -1.324)" fill="#e3a976"/>
                <path id="Path_364-2" data-name="Path 364" d="M.022,2.506s-.136-1.2.484-.44A15.089,15.089,0,0,1,2.5,5.542c.515,1.289.066,1.68.066,1.68A1.593,1.593,0,0,0,3.739,5.706,5.99,5.99,0,0,0,2.644,2.193C1.768.607,1.154-.072.5.006S.022,2.506.022,2.506Z" transform="translate(25.507 -1.312) rotate(-10)" fill="#393939"/>
                <path id="Path_136-2" data-name="Path 136" d="M3.278,2.528C1.312,3.3-.876,6.172-.876,6.172l-3.671,4.323s.694,2.025,1.336,1.352c0,0,7.517-4.792,9.14-7.121S5.244,1.754,3.278,2.528Z" transform="translate(24.628 45.077) rotate(73)" fill="#e3a976"/>
                <path id="Path_137-2" data-name="Path 137" d="M2.4.809.262.687S-.612.34-.96.852s.916,1.274.916,1.274A7.49,7.49,0,0,0-1.517,3.814C-2,4.67-2.13,4.937-1.958,5.547s.3.849,1.125.7S.305,5.578,1.106,4.68A23.212,23.212,0,0,0,2.793,2.428Z" transform="translate(13.084 41.707) rotate(56.993)" fill="#e3a976"/>
              </g>
              <path id="Path_366" data-name="Path 366" d="M11.811,1.837c.837,1.509-8,2.389-10.209,7.814C-.109,12.1-.019,10.729.012,9.652.067,7.677,1.834,2.15,3.541.929,6.134-.929,10.974.329,11.811,1.837Z" transform="translate(40.313 12.925) rotate(-11)" fill="#5a2c1f"/>
            </g>
          </g>
        </g>
      </g>
      <g id="dude" transform="translate(170.56 206.844) rotate(-164)">
        <g id="Group_169" data-name="Group 169">
          <path id="Path_368" data-name="Path 368" d="M0,5.817A11.406,11.406,0,0,0,1.428,2.551,17.9,17.9,0,0,0,1.509,0L6.7,2.016a10.542,10.542,0,0,0-.963,1.562,5.685,5.685,0,0,0-.452,1.453Z" transform="translate(34.641 75.087) rotate(-43.014)" fill="#f8c29c"/>
          <g id="Group_163" data-name="Group 163">
            <g id="Group_162" data-name="Group 162">
              <g id="Group_143" data-name="Group 143">
                <g id="Group_142" data-name="Group 142" transform="translate(26.44 54.775)" opacity="0.018">
                  <path id="Path_309" data-name="Path 309" d="M0,1.773v10.8a1.786,1.786,0,0,0,1.8,1.773H3.434a5.106,5.106,0,0,0,2.391-1.212L5.233,1.773A1.786,1.786,0,0,0,3.434,0H1.8A1.786,1.786,0,0,0,0,1.773Z" transform="translate(5.791 14.866) rotate(-173.976)"/>
                </g>
                <g id="Group_122" data-name="Group 122">
                  <path id="Path_126-2" data-name="Path 126" d="M0,26.679a19.73,19.73,0,0,0,5.95,1.129,10.524,10.524,0,0,0,3.641-.577L8.54,6.321S3.685.142,1.993,0s.593,6.574.593,6.574Z" transform="translate(25.497 22.61) rotate(-7)" fill="#454545"/>
                  <path id="Path_127-2" data-name="Path 127" d="M3.1,20.194S.094,13.476.3,8.341-.274,2.326.1,1.274C.862-.831,3.267.307,3.267.307L8.958,19.9Z" transform="translate(23.491 9.454) rotate(-7.004)" fill="#454545"/>
                  <path id="Path_132-2" data-name="Path 132" d="M14.427,4.318V1.113C14.427.823,12.5,0,9.545,0L4.2.586C1.247.586.334.64.334.64l-2.982.811A9.585,9.585,0,0,0,.48,4.537a12.793,12.793,0,0,0,4.8.693l3.787-.385C12.029,4.843,14.427,4.608,14.427,4.318Z" transform="translate(55.299 70.642) rotate(-172)" fill="#f8c29c"/>
                  <path id="Path_133" data-name="Path 133" d="M1.515,4.122a46.83,46.83,0,0,0,4.917.146,17.9,17.9,0,0,1,4.113.367S13.477,3.3,8.93,2.139L1.551.038C.9-.142.465.316.3,1.351l-.277,1.7C-.15,4.09.865,3.941,1.515,4.122Z" transform="translate(56.217 66.732) rotate(46.986)" fill="#f8c29c"/>
                  <path id="Path_134" data-name="Path 134" d="M9.444.793,7.348.205S3.265-.267,2.332.221-.51,1.289.128,2.033c.314.366,3.545-.38,4.3-.332.7.043-1.24.9-.555,1.023a16.888,16.888,0,0,0,5.058-.357Z" transform="translate(64.06 84.44) rotate(-124)" fill="#f8c29c"/>
                  <path id="Path_137-3" data-name="Path 137" d="M6.925,1.748,5.777.4S4.669-.155,4.434.042s.406,1.151.406,1.151a8.478,8.478,0,0,0-2.5-.4C1.238.846.9.879.42,1.407s-.634.791,0,1.5A3.746,3.746,0,0,0,2.956,4.22c1.339.228,4.649-.941,4.649-.941Z" transform="translate(20.462 45.554) rotate(85)" fill="#f8c29c"/>
                  <path id="Path_142" data-name="Path 142" d="M.888,0,9.88,7.136s.686.979-2.852-1.095S4.546,5.232,0,1.15Z" transform="translate(29.362 45.362) rotate(-126.996)" opacity="0.141"/>
                  <path id="Path_130-3" data-name="Path 130" d="M1.737,11.441,5.809,9.231,5.4,7.449S7.557.879,6.494.086s-5.343,4.19-5.343,4.19A4.6,4.6,0,0,0,.012,7.447,10.144,10.144,0,0,0,1.737,11.441Z" transform="matrix(0.974, 0.225, -0.225, 0.974, 23.904, 0)" fill="#212121"/>
                  <path id="Path_128-2" data-name="Path 128" d="M0,13.056S1.887,9.218,7.732,9.079a117.136,117.136,0,0,0,13.48-1.408s7.011-5.653-4.1-7.03S2.192.533,2.192.533Z" transform="matrix(-0.309, -0.951, 0.951, -0.309, 23.903, 53.205)" fill="#505050"/>
                  <path id="Path_129-2" data-name="Path 129" d="M3.723,25.65C3.53,23.464-.683,21.982.1,7.165S3.609,5.107,3.609,5.107s6,15.656,5.947,19.308c-.051,3.268-3.2,4-4.256,2.293C5.2,26.555,3.744,25.879,3.723,25.65Z" transform="matrix(0.857, -0.515, 0.515, 0.857, 3.24, 13.274)" fill="#505050"/>
                  <path id="Path_125-2" data-name="Path 125" d="M.012,21.881c-.2,1.344,2.641,3.927,2.641,3.927a17.451,17.451,0,0,0,6.282.817c4.093.011,7-.839,7.964-1.7,2.914-2.6-2.593,3.248.059-3.294.734-1.812-.9-5.137-.812-7.6.233-6.325,2.957-8.7,2.957-8.7L5.923,0s.7,8.606-1.792,13.151c-1.753,3.2-4.365,3.219-3.576,6.72C2.448,28.267.617,17.819.012,21.881Z" transform="translate(19.05 54.685) rotate(-27.975)" fill="#f8c29c"/>
                  <path id="Path_131" data-name="Path 131" d="M1.879,11.5l4.4-2.223L5.845,7.49S8.175.884,7.025.086,1.246,4.3,1.246,4.3A4.465,4.465,0,0,0,.013,7.49,9.865,9.865,0,0,0,1.879,11.5Z" transform="translate(0 11.135) rotate(-30.001)" fill="#212121"/>
                  <path id="Path_376" data-name="Path 376" d="M12.316,3.711l-.641-2.6C11.674.823,10.08,0,7.63,0L3.206.586C.756.586,0,.64,0,.64l.444,4.2c0,.29,1.207.385,3.656.385l3.137-.385C9.688,4.845,12.316,4,12.316,3.711Z" transform="translate(22.689 60.237) rotate(59.999)" fill="#f8c29c"/>
                  <path id="Path_377" data-name="Path 377" d="M3.69,4.3a46.859,46.859,0,0,0,4.919.146,17.911,17.911,0,0,1,4.115.368s2.955-1.675-1.593-2.84L3.206.159C2.556-.022.168-.258,0,.777L2.193,3.228C2.024,4.264,3.039,4.115,3.69,4.3Z" transform="translate(18.993 64.523) rotate(-107)" fill="#f8c29c"/>
                </g>
              </g>
              <path id="Path_369" data-name="Path 369" d="M5.3,1.667l-.591.792a5.385,5.385,0,0,0-1.67-1.069A7.153,7.153,0,0,0,0,1.245L1.055,0A17.1,17.1,0,0,1,3.764.343,2.1,2.1,0,0,1,5.3,1.667Z" transform="translate(37.588 78.202) rotate(-65.997)" opacity="0.089"/>
              <g id="Group_173" data-name="Group 173" transform="translate(36.501 71.408) rotate(16)">
                <path id="Path_373" data-name="Path 373" d="M12.313,4.547s.441,3.733-.654,5.858a5.811,5.811,0,0,1-3.726,2.64s.73,1.325.425,1a9.931,9.931,0,0,0-1.835-1s.677,1.233.321,1.075-.132-.456-1.609-1.365S1.49,11.477.4,8.528.558,3.137,2.418,1.245A4.706,4.706,0,0,1,6.913.181Z" transform="translate(0 10.527) rotate(-42)" fill="#393939"/>
                <path id="Path_370" data-name="Path 370" d="M5.677,13.662C2.494,13.629.035,11.392,0,7.63S4.65-1.337,7.024.315s2,3.063,3.732,6.6S8.858,13.694,5.677,13.662Z" transform="translate(1.132 3.276) rotate(-17)" fill="#f8c29c"/>
                <path id="Path_372" data-name="Path 372" d="M11.357,6.921c-6.195,1.654-4.4-.086-6.065-.245C2.687,6.429,2.648,1.058,2.326.183S.9,1.867.9,1.867a6.055,6.055,0,0,0-.858,3.44A7.3,7.3,0,0,0,2.935,9.425c1.583,1.291,5.111,2.086,6.815,1.422,1.075-.42,2.776-.926,2.571-1.788C12.222,8.629,12.76,6.546,11.357,6.921Z" transform="translate(1.322 8.699) rotate(-30.001)" fill="#393939"/>
                <path id="Path_374" data-name="Path 374" d="M2.255,2.4c-.838.661-.94.79-1.585.711S-.356,1.911.481,1.247A12.388,12.388,0,0,1,3.832,0,7.682,7.682,0,0,1,2.255,2.4Z" transform="translate(2.429 10.404) rotate(-53.989)" fill="#f8c29c"/>
                <path id="Path_397" data-name="Path 397" d="M1.772,2.9s-.009-.077-.16-.884c-.042-.223-.165-.823-.234-1.2C1.263.18,1.2.026.87,0A2.882,2.882,0,0,0,0,.182Z" transform="translate(10.858 3.463)" fill="#f8c29c"/>
              </g>
            </g>
            <path id="shirt" d="M11.367,31.616s2.742-3.792.815-4.382-7.6,1.528-7.6,1.528a10.105,10.105,0,0,1-4.1-4.348c-1.124-2.742.058-8.458.058-8.458l5.059.123.074,1.19A81,81,0,0,1,13.24,8.427c3.383-3.172,4.839-12.189,6.481-6.685S29.1,12.331,29.1,12.331a72.954,72.954,0,0,0-7.585,8.01,19.876,19.876,0,0,0-3.093,6.687l2.671,4.5L16.872,34.1Z" transform="matrix(0.616, -0.788, 0.788, 0.616, 10.867, 61.634)" fill="#8f81fb"/>
          </g>
        </g>
      </g>
      <path id="Path_39-2" data-name="Path 39" d="M13.008,9.782c8.648,0,18.788-3.125,18.788-7.169S23.933-.006,15.134,1.739s-6.4-.43-13.176,1.469S4.36,9.782,13.008,9.782Z" transform="translate(171.861 202.176) rotate(-173.976)" opacity="0.09"/>
    </g>
  </g>
</svg>
