<svg xmlns="http://www.w3.org/2000/svg" xmlns:xlink="http://www.w3.org/1999/xlink" width="100" height="100" viewBox="0 0 100 100">
  <defs>
    <clipPath id="clip-path">
      <rect id="Rectangle_36" data-name="Rectangle 36" width="100" height="100" transform="translate(1035 33)" fill="#fff" stroke="#707070" stroke-width="1"/>
    </clipPath>
    <clipPath id="clip-path-2">
      <rect id="Rectangle_121" data-name="Rectangle 121" width="58.966" height="77.258" fill="#fff" stroke="#707070" stroke-width="0.215"/>
    </clipPath>
  </defs>
  <g id="transactions-2" transform="translate(-1035 -33)" clip-path="url(#clip-path)">
    <g id="Group_18" data-name="Group 18" transform="translate(766.642 -133.78)">
      <g id="Group_14" data-name="Group 14" transform="translate(9.254 20.229)">
        <g id="Group_32" data-name="Group 32" transform="translate(201.43 126.754)">
          <path id="primary" d="M328.914,56.956c1.266-1.081,3.17-.222,3.17-.222L365.34,72.75s3.938,1.092,4.166,3.87.506,7.237.506,7.237l1.334,19.086s.615,2.8-1.071,4.142a3.519,3.519,0,0,1-3.68.258L333.3,90.773c-.517-.416-1.789-.652-2.667-2.013a7.18,7.18,0,0,1-.846-3.43l-1.776-25.4A3.371,3.371,0,0,1,328.914,56.956Z" transform="translate(-217.917 -41.66) rotate(4.012)" fill="#fff"/>
          <path id="primary-2" data-name="primary" d="M328.914,56.956c1.266-1.081,3.17-.222,3.17-.222L365.34,72.75s3.938,1.092,4.166,3.87.506,7.237.506,7.237l1.334,19.086s.615,2.8-1.071,4.142a3.519,3.519,0,0,1-3.68.258L333.3,90.773c-.517-.416-1.789-.652-2.667-2.013a7.18,7.18,0,0,1-.846-3.43l-1.776-25.4A3.371,3.371,0,0,1,328.914,56.956Z" transform="translate(-212.752 -41.66) rotate(4.012)" fill="#fff" opacity="0.215"/>
        </g>
        <path id="Path_52" data-name="Path 52" d="M34.341,20.6V17.037L0,0V3.448Z" transform="translate(309.925 176.154) rotate(2)" fill="#80f1fa" opacity="0.573"/>
        <path id="Path_53" data-name="Path 53" d="M19.694,13.849l-.136-3.9L0,0V3.448Z" transform="translate(309.925 183.901) rotate(2)" fill="#80f1fa" opacity="0.573"/>
      </g>
      <g id="Group_52" data-name="Group 52" transform="translate(268.358 188.087)">
        <g id="Group_35" data-name="Group 35">
          <path id="Path_130" data-name="Path 130" d="M1.992,6.38.157,7.929,1.334,4.369S-.574.725.174.209a1.59,1.59,0,0,1,2,.366A6.9,6.9,0,0,1,3.609,2.232,5.607,5.607,0,0,1,4.423,4a4.433,4.433,0,0,1-.9,1.271A8.5,8.5,0,0,1,1.992,6.38Z" transform="matrix(-0.588, 0.809, -0.809, -0.588, 39.628, 71.309)" fill="#e3a976"/>
          <path id="Path_364" data-name="Path 364" d="M.143,2.158S.194.975.758,1.667A5.267,5.267,0,0,1,1.815,3.656,3.162,3.162,0,0,1,1.7,5.478a8.945,8.945,0,0,1-.59,1.28A10.061,10.061,0,0,0,2.73,6.168c.714-.334,1.128-.353,1.133-.71A7.279,7.279,0,0,0,2.7,1.766C1.9.32.918-.063.321.008S.143,2.158.143,2.158Z" transform="translate(39.973 70.965) rotate(109.993)" fill="#393939"/>
          <path id="Path_130-2" data-name="Path 130" d="M2.719,4.388.5,6l1.786-3.4S-.624,1.33.123.815A5.983,5.983,0,0,1,1.291.195,1.68,1.68,0,0,1,3.02.283,6.462,6.462,0,0,1,4.914,2.474s-.054.2-.667.8A8.5,8.5,0,0,1,2.719,4.388Z" transform="matrix(-0.588, 0.809, -0.809, -0.588, 31.558, 69.551)" fill="#e3a976"/>
          <path id="Path_364-2" data-name="Path 364" d="M1.1,2.5S.829.965,1.305,1.057a2.4,2.4,0,0,1,1.272,1.6,6.278,6.278,0,0,1-.05.9,5.551,5.551,0,0,0-.212,1.277A16.584,16.584,0,0,0,3.89,4.129c.714-.334.624-.3.629-.657.026-1.131-.459-.941-1.256-2.387a2.349,2.349,0,0,0-2.677-1A.643.643,0,0,0,.024.915,5.038,5.038,0,0,0,1.1,2.5Z" transform="translate(31.567 69.177) rotate(109.993)" fill="#393939"/>
          <g id="Group_34" data-name="Group 34">
            <g id="Group_33" data-name="Group 33">
              <g id="Mask_Group_1" data-name="Mask Group 1" clip-path="url(#clip-path-2)">
                <g id="Group_603" data-name="Group 603" transform="translate(-1.719 0.668)">
                  <g id="Group_604" data-name="Group 604">
                    <g id="Group_146" data-name="Group 146" transform="translate(38.519 76.438) rotate(-149.999)">
                      <path id="Path_126" data-name="Path 126" d="M6.783,17.154a9.933,9.933,0,0,1-3.278.588A7.548,7.548,0,0,1,0,16.621L.7,3.02,4.473,0Z" transform="matrix(0.857, -0.515, 0.515, 0.857, 8.074, 16.64)" fill="#e3a976"/>
                      <path id="Path_127" data-name="Path 127" d="M4.2,13.49A28.987,28.987,0,0,0,6.543,7.844a33.1,33.1,0,0,0,1.3-5.6C7.939-.91,5.411.183,5.411.183l.458.68s-6.35,12.612-5.84,14.9C.64,18.515,4.2,13.49,4.2,13.49Z" transform="translate(0 9.306) rotate(-45.972)" fill="#e3a976"/>
                      <path id="Path_135" data-name="Path 135" d="M10.963,7.844.74,3.622C.237,3.332-.336.738.245.222S2.276.26,2.893.247C4.127.22,6.09,2.471,7.92,2.937,9.568,3.379,14,4.911,13.558,5.681,11.957,9.062,10.963,7.844,10.963,7.844Z" transform="translate(30.78 47.272) rotate(169)" fill="#e3a976"/>
                      <path id="Path_125" data-name="Path 125" d="M12.219,27.263c-2.663.924-5.226.448-9.009-2.041s-.617-6.612-.617-6.612a18.491,18.491,0,0,0,.571-4.741A22.75,22.75,0,0,0,0,3.319S13.868-3.8,14.285,2.81a15.537,15.537,0,0,1-.105,3.364C13.687,9.438,9.514,10.14,11.74,18.13,12.511,27.922,14.987,26.323,12.219,27.263Z" transform="matrix(0.891, -0.454, 0.454, 0.891, 14.653, 27.424)" fill="#e3a976"/>
                      <path id="Path_128" data-name="Path 128" d="M7.481,16.315c-.35,3.947-.23-.933-1.93-.937A25.853,25.853,0,0,1,0,14.01L3.227,0l3.02.053S7.832,12.368,7.481,16.315Z" transform="matrix(0.857, -0.515, 0.515, 0.857, 13.342, 15.515)" fill="#e3a976"/>
                      <path id="Path_129" data-name="Path 129" d="M2.887,14.626c1.6-2.728,1.731-8.2,1.679-11.2-.016-.94.1-1.585-.288-2.018S3.36-1.076,2.766.958-.609,10.72.121,15C.14,15.107,1.5,18.156,2.887,14.626Z" transform="translate(8.2 3.142) rotate(-36.011)" fill="#e3a976"/>
                      <path id="Path_361" data-name="Path 361" d="M6.647,4.89s-1.51-1.17-1.66-2.315C4.986,2.564,4.571,0,4.571,0L0,.655S.863,2.566,1.23,3.281a5.844,5.844,0,0,1,.5,1.449Z" transform="translate(30.818 46.826) rotate(-7)" fill="#e3a976"/>
                      <path id="Path_362" data-name="Path 362" d="M0,.751.105,0A4.764,4.764,0,0,1,1.569.789,18.112,18.112,0,0,0,3.48,1.93l.009.907Z" transform="translate(32.488 50.114) rotate(-38.016)" opacity="0.089"/>
                      <path id="Path_360" data-name="Path 360" d="M4.68,12.3c2.856,0,5.043-1.959,5.043-5.291,0-2.6-2.713-6.123-4.976-6.885a1.778,1.778,0,0,0-1.6.142C1.649,1.286.738,2.3.919,4.218.756,4.858.428,5.588.174,6.525A4.56,4.56,0,0,0,4.68,12.3Z" transform="matrix(0.766, -0.643, 0.643, 0.766, 29.124, 53.162)" fill="#e3a976"/>
                      <path id="Path_134" data-name="Path 134" d="M5.683.866,4.4.452s-1.469-.871-2.24-.2S-.334-.205.057.318A7.791,7.791,0,0,0,2.481,1.639c.426.03-.623.5-.2.584a13.677,13.677,0,0,0,2.905.135Z" transform="translate(17.684 59.914) rotate(-107)" fill="#e3a976"/>
                      <path id="Path_136" data-name="Path 136" d="M10.508,3.114C8.96,4.259,5.688,4.565,5.688,4.565L.455,5.218S-.488,3.747.341,3.575c0,0,7.166-3.441,9.749-3.569S12.056,1.969,10.508,3.114Z" transform="translate(13.359 53.339) rotate(-72)" fill="#e3a976"/>
                    </g>
                  </g>
                </g>
              </g>
            </g>
          </g>
        </g>
        <path id="primary-3" data-name="primary" d="M16.494,27.178a7.059,7.059,0,0,1-1.1.3c-.258-1.241-.131-2.165-1.665-3.316-1.734-1.3-1.076-.53-2.263-.649-2.342-.234-1.215,4.416-1.868,5.031a10.8,10.8,0,0,1-1.4-.66c-.368-.2,1.238-.951-.77-6.271-.49-1.3-.344-3.029-.366-4.883-.006-.516-.19-1.135-.209-1.705C6.1,12.831,0,4.758,0,4.758A8.826,8.826,0,0,1,5.159,1.166C8.744.5,14.3-1.017,16.419,1.042c.641.622,3.794.708,3.794.708a9.471,9.471,0,0,0-1.9,3.77c-.387,1.871-2.92,7.37-3.024,8.466,1.354,5.214.479,6.166.05,9.048a7.689,7.689,0,0,0,1.156,4.143Z" transform="translate(40.428 49.112) rotate(-172.996)" fill="#5d48f8"/>
        <g id="Group_36" data-name="Group 36" transform="translate(17.658 3.309)">
          <path id="Path_366" data-name="Path 366" d="M-.459,11.578C-.4,8.742,6.949,6.1,8.96.622,10.519-1.857,10.83,3.815,10.8,4.9c-.05,2-2.69,8.859-4.246,10.093C4.195,16.874-.522,14.413-.459,11.578Z" transform="matrix(-0.97, 0.242, -0.242, -0.97, 21.127, 15.195)" fill="#5a2c1f"/>
          <path id="Path_367" data-name="Path 367" d="M16.486,19.568c-5.857,2.7-6.623,8.579-7.343,10.1C8.4,31.242-.172,35.833.828,37.754c1.243,2.389,3.754,3.9,7.579,2.829s9.884-6.195,12.61-11.169,4.851-3.214,7.137-6.358,2.7-4.882,2.006-6.22c-1.189-2.289-1.9-2.463-5.715-1.861S22.344,16.867,16.486,19.568Z" transform="translate(39.327 31.607) rotate(143.989)" fill="#5a2c1f"/>
        </g>
      </g>
      <g id="Group_15" data-name="Group 15" transform="translate(189.809 167.643)">
        <path id="Path_29" data-name="Path 29" d="M548.313,577.616a1.475,1.475,0,0,1,.325,1.122v6.9s.114,2.284-.408,2.963-2.346-.536-2.346-.536L528.1,578.37a4.68,4.68,0,0,1-1.192-.748c-.409-.409-.318-1.426-.318-1.426v-8.785s-.112-1.3.346-1.562,1.785.36,1.785.36l17.384,9.987A9.04,9.04,0,0,1,548.313,577.616Z" transform="translate(-394.203 -505.602)" fill="#64e1ff" opacity="0.4"/>
        <path id="Path_28" data-name="Path 28" d="M548.313,577.616a1.475,1.475,0,0,1,.325,1.122v6.9s.114,2.284-.408,2.963-2.346-.536-2.346-.536L528.1,578.37a4.68,4.68,0,0,1-1.192-.748c-.409-.409-.318-1.426-.318-1.426v-8.785s-.112-1.3.346-1.562,1.785.36,1.785.36l17.384,9.987A9.04,9.04,0,0,1,548.313,577.616Z" transform="translate(-398.937 -506.678)" fill="#64e1ff"/>
        <path id="Path_35" data-name="Path 35" d="M790.311,573.094v2.016l17.716,9.635V582.8Z" transform="translate(-660.457 -510.031)" fill="#fff" opacity="0.573"/>
        <path id="Path_34" data-name="Path 34" d="M790.311,573.094v2.016l13.816,7.7v-2.187Z" transform="translate(-660.457 -505.942)" fill="#fff" opacity="0.573"/>
      </g>
      <g id="Group_16" data-name="Group 16" transform="translate(213.912 157.313)">
        <path id="Path_29-2" data-name="Path 29" d="M548.313,577.616a1.475,1.475,0,0,1,.325,1.122v6.9s.114,2.284-.408,2.963-2.346-.536-2.346-.536L528.1,578.37a4.68,4.68,0,0,1-1.192-.748c-.409-.409-.318-1.426-.318-1.426v-8.785s-.112-1.3.346-1.562,1.785.36,1.785.36l17.384,9.987A9.04,9.04,0,0,1,548.313,577.616Z" transform="translate(-394.203 -505.602)" fill="#64e1ff" opacity="0.4"/>
        <path id="Path_28-2" data-name="Path 28" d="M548.313,577.616a1.475,1.475,0,0,1,.325,1.122v6.9s.114,2.284-.408,2.963-2.346-.536-2.346-.536L528.1,578.37a4.68,4.68,0,0,1-1.192-.748c-.409-.409-.318-1.426-.318-1.426v-8.785s-.112-1.3.346-1.562,1.785.36,1.785.36l17.384,9.987A9.04,9.04,0,0,1,548.313,577.616Z" transform="translate(-398.937 -506.678)" fill="#64e1ff"/>
        <path id="Path_35-2" data-name="Path 35" d="M790.311,573.094v2.016l17.716,9.635V582.8Z" transform="translate(-660.457 -510.031)" fill="#fff" opacity="0.573"/>
        <path id="Path_34-2" data-name="Path 34" d="M790.311,573.094v2.016l13.816,7.7v-2.187Z" transform="translate(-660.457 -505.942)" fill="#fff" opacity="0.573"/>
      </g>
      <g id="Group_17" data-name="Group 17" transform="translate(176.466 109.108)">
        <path id="Path_29-3" data-name="Path 29" d="M548.313,577.616a1.475,1.475,0,0,1,.325,1.122v6.9s.114,2.284-.408,2.963-2.346-.536-2.346-.536L528.1,578.37a4.68,4.68,0,0,1-1.192-.748c-.409-.409-.318-1.426-.318-1.426v-8.785s-.112-1.3.346-1.562,1.785.36,1.785.36l17.384,9.987A9.04,9.04,0,0,1,548.313,577.616Z" transform="translate(-394.203 -505.602)" fill="#64e1ff" opacity="0.4"/>
        <path id="Path_28-3" data-name="Path 28" d="M548.313,577.616a1.475,1.475,0,0,1,.325,1.122v6.9s.114,2.284-.408,2.963-2.346-.536-2.346-.536L528.1,578.37a4.68,4.68,0,0,1-1.192-.748c-.409-.409-.318-1.426-.318-1.426v-8.785s-.112-1.3.346-1.562,1.785.36,1.785.36l17.384,9.987A9.04,9.04,0,0,1,548.313,577.616Z" transform="translate(-398.937 -506.678)" fill="#64e1ff"/>
        <path id="Path_35-3" data-name="Path 35" d="M790.311,573.094v2.016l17.716,9.635V582.8Z" transform="translate(-660.457 -510.031)" fill="#fff" opacity="0.573"/>
        <path id="Path_34-3" data-name="Path 34" d="M790.311,573.094v2.016l13.816,7.7v-2.187Z" transform="translate(-660.457 -505.942)" fill="#fff" opacity="0.573"/>
      </g>
    </g>
  </g>
</svg>
