<svg xmlns="http://www.w3.org/2000/svg" xmlns:xlink="http://www.w3.org/1999/xlink" width="100" height="100" viewBox="0 0 100 100">
  <defs>
    <clipPath id="clip-path">
      <rect id="Rectangle_31" data-name="Rectangle 31" width="100" height="100" transform="translate(873 33)" fill="#fff" stroke="#707070" stroke-width="1"/>
    </clipPath>
    <linearGradient id="linear-gradient" x1="0.5" x2="0.552" y2="1.206" gradientUnits="objectBoundingBox">
      <stop offset="0" stop-color="#fff" stop-opacity="0"/>
      <stop offset="1" stop-color="#fff"/>
    </linearGradient>
    <clipPath id="clip-path-2">
      <rect id="Rectangle_121" data-name="Rectangle 121" width="58.462" height="76.598" transform="translate(39.046 70.411)" fill="#fff" stroke="#707070" stroke-width="0.213"/>
    </clipPath>
  </defs>
  <g id="transactions-1" transform="translate(-873 -33)" clip-path="url(#clip-path)">
    <g id="Group_13" data-name="Group 13" transform="translate(726.631 -131.495)">
      <g id="Group_12" data-name="Group 12" transform="translate(93.241 149.996)">
        <g id="Group_38" data-name="Group 38" transform="translate(113.193 19.255)">
          <path id="Path_22" data-name="Path 22" d="M512.029,577.634a3.689,3.689,0,0,0-1.447-1.574L485.1,561.132a2.884,2.884,0,0,0-2.089-.5,2.81,2.81,0,0,0-1.124.5l.52,62.268a2.466,2.466,0,0,0,.249,1.171,4.135,4.135,0,0,0,.916,1.067l26.969,16.045a7.838,7.838,0,0,0,1.447-.843c.594-.469.483-1.609.483-1.609l-.075-59.043A6.682,6.682,0,0,0,512.029,577.634Z" transform="translate(-481.311 -560.565)" fill="#cdd2d8"/>
          <path id="Path_19" data-name="Path 19" d="M511.754,577.634a3.689,3.689,0,0,0-1.447-1.574l-25.479-14.929a3.069,3.069,0,0,0-2.174-.6c-.979.276-.739,2.427-.739,2.427l.22,60.438a2.466,2.466,0,0,0,.249,1.171,4.132,4.132,0,0,0,.916,1.067l26.974,15.439a1.451,1.451,0,0,0,1.447,0c.593-.469.478-1.846.478-1.846l-.075-59.043A6.7,6.7,0,0,0,511.754,577.634Z" transform="translate(-481.889 -560.138)" fill="#e1e9f2"/>
          <g id="Group_31" data-name="Group 31" transform="translate(1.19 2.902)">
            <path id="second" d="M510.443,578.636a4.4,4.4,0,0,0-1.584-1.413L485.185,563.6s-1.26-.8-1.829-.5-.444,1.707-.444,1.707v56.945a5.032,5.032,0,0,0,.27,1.9,5.374,5.374,0,0,0,1.612,1.387l23.918,13.771s1.393,1,1.932.64.339-2.436.339-2.436V580.755A4.825,4.825,0,0,0,510.443,578.636Z" transform="translate(-482.9 -563.041)" fill="#80f1fa"/>
            <path id="gradient-overlay" d="M510.443,578.636a4.4,4.4,0,0,0-1.584-1.413L485.185,563.6s-1.26-.8-1.829-.5-.444,1.707-.444,1.707v56.945a5.032,5.032,0,0,0,.27,1.9,5.374,5.374,0,0,0,1.612,1.387l23.918,13.771s1.393,1,1.932.64.339-2.436.339-2.436V580.755A4.825,4.825,0,0,0,510.443,578.636Z" transform="translate(-482.9 -563.041)" fill="url(#linear-gradient)"/>
          </g>
          <path id="Path_21" data-name="Path 21" d="M502.119,572.882v1s-.011.373-.219.441-.612-.165-.612-.165l-8.864-4.929a1.437,1.437,0,0,1-.46-.427,1.067,1.067,0,0,1-.115-.56v-1.319Z" transform="translate(-481.756 -560.138)" fill="#e1e9f2"/>
        </g>
        <g id="Group_49" data-name="Group 49">
          <path id="Path_27" data-name="Path 27" d="M543.633,572.686a1.462,1.462,0,0,1,.322,1.113v6.839s.113,2.264-.4,2.937-2.326-.531-2.326-.531l-17.629-9.61a4.642,4.642,0,0,1-1.182-.742c-.405-.405-.315-1.414-.315-1.414v-8.71s-.111-1.291.343-1.549,1.77.357,1.77.357l17.235,9.9A8.961,8.961,0,0,1,543.633,572.686Z" transform="translate(-415.162 -530.732)" fill="#64e1ff" opacity="0.4"/>
          <path id="Path_26" data-name="Path 26" d="M543.633,572.686a1.462,1.462,0,0,1,.322,1.113v6.839s.113,2.264-.4,2.937-2.326-.531-2.326-.531l-17.629-9.61a4.642,4.642,0,0,1-1.182-.742c-.405-.405-.315-1.414-.315-1.414v-8.71s-.111-1.291.343-1.549,1.77.357,1.77.357l17.235,9.9A8.961,8.961,0,0,1,543.633,572.686Z" transform="translate(-419.856 -531.798)" fill="#64e1ff"/>
          <path id="Path_32" data-name="Path 32" d="M783.566,568.2v2l17.565,9.553v-1.933Z" transform="translate(-679.571 -536.616)" fill="#fff" opacity="0.573"/>
          <path id="Path_33" data-name="Path 33" d="M783.566,568.2v2l13.7,7.632v-2.168Z" transform="translate(-679.571 -532.562)" fill="#fff" opacity="0.573"/>
        </g>
        <g id="Group_10" data-name="Group 10">
          <path id="Path_29" data-name="Path 29" d="M543.633,572.686a1.462,1.462,0,0,1,.322,1.113v6.839s.113,2.264-.4,2.937-2.326-.531-2.326-.531l-17.629-9.61a4.642,4.642,0,0,1-1.182-.742c-.405-.405-.315-1.414-.315-1.414v-8.71s-.111-1.291.343-1.549,1.77.357,1.77.357l17.235,9.9A8.961,8.961,0,0,1,543.633,572.686Z" transform="translate(-390.839 -501.287)" fill="#64e1ff" opacity="0.4"/>
          <path id="Path_28" data-name="Path 28" d="M543.633,572.686a1.462,1.462,0,0,1,.322,1.113v6.839s.113,2.264-.4,2.937-2.326-.531-2.326-.531l-17.629-9.61a4.642,4.642,0,0,1-1.182-.742c-.405-.405-.315-1.414-.315-1.414v-8.71s-.111-1.291.343-1.549,1.77.357,1.77.357l17.235,9.9A8.961,8.961,0,0,1,543.633,572.686Z" transform="translate(-395.533 -502.354)" fill="#64e1ff"/>
          <path id="Path_35" data-name="Path 35" d="M783.566,568.2v2l17.565,9.553v-1.933Z" transform="translate(-654.821 -505.678)" fill="#fff" opacity="0.573"/>
          <path id="Path_34" data-name="Path 34" d="M783.566,568.2v2l13.7,7.632v-2.168Z" transform="translate(-654.821 -501.624)" fill="#fff" opacity="0.573"/>
        </g>
        <g id="Group_11" data-name="Group 11">
          <path id="Path_31" data-name="Path 31" d="M543.633,572.686a1.462,1.462,0,0,1,.322,1.113v6.839s.113,2.264-.4,2.937-2.326-.531-2.326-.531l-17.629-9.61a4.642,4.642,0,0,1-1.182-.742c-.405-.405-.315-1.414-.315-1.414v-8.71s-.111-1.291.343-1.549,1.77.357,1.77.357l17.235,9.9A8.961,8.961,0,0,1,543.633,572.686Z" transform="translate(-410.041 -494.033)" fill="#64e1ff" opacity="0.4"/>
          <path id="Path_30" data-name="Path 30" d="M543.633,572.686a1.462,1.462,0,0,1,.322,1.113v6.839s.113,2.264-.4,2.937-2.326-.531-2.326-.531l-17.629-9.61a4.642,4.642,0,0,1-1.182-.742c-.405-.405-.315-1.414-.315-1.414v-8.71s-.111-1.291.343-1.549,1.77.357,1.77.357l17.235,9.9A8.961,8.961,0,0,1,543.633,572.686Z" transform="translate(-414.736 -495.099)" fill="#64e1ff"/>
          <path id="Path_37" data-name="Path 37" d="M783.566,568.2v2l17.565,9.553v-1.933Z" transform="translate(-674.024 -498.21)" fill="#fff" opacity="0.573"/>
          <path id="Path_36" data-name="Path 36" d="M783.566,568.2v2l13.7,7.632v-2.168Z" transform="translate(-674.024 -494.156)" fill="#fff" opacity="0.573"/>
        </g>
      </g>
      <g id="Group_27" data-name="Group 27" transform="translate(125.033 128.446)">
        <ellipse id="Ellipse_3" data-name="Ellipse 3" cx="9.227" cy="5.33" rx="9.227" ry="5.33" transform="translate(43.674 119.687) rotate(2.98)" opacity="0.09"/>
        <g id="Mask_Group_1" data-name="Mask Group 1" transform="translate(-17.709 -17.496)" clip-path="url(#clip-path-2)">
          <g id="Group_603" data-name="Group 603" transform="translate(27.731 63.612)">
            <g id="Group_604" data-name="Group 604">
              <g id="Group_146" data-name="Group 146" transform="translate(47.045 86.145) rotate(-149.999)">
                <path id="Path_367" data-name="Path 367" d="M1.916,9.221c-3.69,5.222.159,12.067-1.065,16.042s-1.539,7.563,1.9,9.758c2.252,1.436,4.346,1.57,7.691-.8s3.29-10.226,7.643-14.739S25.166,2.064,19.251.568,9.628,1.112,4.392.213,5.606,4,1.916,9.221Z" transform="translate(14.809 38.942) rotate(-36.011)" fill="#5a2c1f"/>
                <path id="Path_126" data-name="Path 126" d="M6.725,17.008a9.848,9.848,0,0,1-3.25.583A7.484,7.484,0,0,1,0,16.479L.693,2.994,4.435,0Z" transform="matrix(0.857, -0.515, 0.515, 0.857, 8.536, 19.784)" fill="#e3a976"/>
                <path id="Path_127" data-name="Path 127" d="M4.162,13.5A28.74,28.74,0,0,0,6.488,7.9,32.815,32.815,0,0,0,7.78,2.35C7.872-.78,6.5.12,6.5.12L5.819.977s-6.3,12.5-5.79,14.777C.635,18.479,4.162,13.5,4.162,13.5Z" transform="translate(0.444 12.428) rotate(-45.972)" fill="#e3a976"/>
                <path id="Path_132" data-name="Path 132" d="M0,2.341V12.487a1.544,1.544,0,0,0,1.385,1.666l.87-.248c.765,0,1.276-1.526,1.525-4.428a44.218,44.218,0,0,0-.266-7.192c0-.92-1.09-2.339-1.643-2.282L1.385.675A1.544,1.544,0,0,0,0,2.341Z" transform="translate(30.683 51.957) rotate(130.987)" fill="#e3a976"/>
                <path id="Path_135" data-name="Path 135" d="M0,1.762.19,13.55c0,.576.905,1.561,1.638,1.319s.974-1.763,1.291-2.286c.636-1.046-.324-3.847.182-5.65a10.485,10.485,0,0,0,.1-5c0-.689,1.242-1.9.36-1.9C.067-.271,0,1.762,0,1.762Z" transform="translate(39.107 48.514) rotate(169)" fill="#e3a976"/>
                <path id="Path_130" data-name="Path 130" d="M3.224,7.016,0,7.41,1.771,4.868S-.347.595.394.084C.768-.175,1.5.18,2.368.948A6.841,6.841,0,0,1,3.789,2.591,5.558,5.558,0,0,1,4.6,4.34Z" transform="matrix(0.515, -0.857, 0.857, 0.515, 0.009, 7.846)" fill="#e3a976"/>
                <path id="Path_125" data-name="Path 125" d="M11.587,26.492a16.934,16.934,0,0,1-8.225.722c-2.676-.441-.489.428-2.81-5.722-.643-1.7,2.664-5.427,2.584-7.742A22.557,22.557,0,0,0,0,3.291s13.75-7.055,14.163-.5a15.4,15.4,0,0,1-.1,3.335c-.489,3.236-4.626,3.932-2.419,11.854C12.4,27.684,14.332,25.561,11.587,26.492Z" transform="matrix(0.891, -0.454, 0.454, 0.891, 15.06, 30.476)" fill="#e3a976"/>
                <path id="Path_128" data-name="Path 128" d="M7.417,16.29c-.347,3.913-.228-.925-1.913-.929A25.633,25.633,0,0,1,0,14L2.852,0,6.628.476S7.765,12.377,7.417,16.29Z" transform="matrix(0.857, -0.515, 0.515, 0.857, 14.149, 18.066)" fill="#e3a976"/>
                <path id="Path_129" data-name="Path 129" d="M3.79,13.758C5.2,10.165,5.218.169,5.218.169L3.608,0S-.64,9.873.083,14.112,2.378,17.351,3.79,13.758Z" transform="translate(9.116 6.65) rotate(-36.011)" fill="#e3a976"/>
                <path id="Path_131" data-name="Path 131" d="M1.44,4.246,0,3.136.665.333s1.544-.679,2.472-.1a3.346,3.346,0,0,1,.77,1.109s.189.791.213,1.034c.006.058.008.12.008.12l-.3.208L2.823,3.4a14.235,14.235,0,0,1-1.383.845Z" transform="translate(9.486 3.646) rotate(-62.025)" fill="#e3a976"/>
                <path id="Path_361" data-name="Path 361" d="M6.132,4.848s-1.5-1.16-1.646-2.3C4.485,2.542,4.075,0,4.075,0L0,1.73s.4.815.762,1.523a5.794,5.794,0,0,1,.5,1.436Z" transform="translate(31.093 50.162) rotate(-7)" fill="#e3a976"/>
                <path id="Path_362" data-name="Path 362" d="M0,.934.08.126a1.506,1.506,0,0,1,1.6.254A17.218,17.218,0,0,1,3.448,2.347l.009,1.088Z" transform="matrix(0.777, -0.629, 0.629, 0.777, 31.8, 52.844)" opacity="0.089"/>
                <path id="Path_360" data-name="Path 360" d="M4.566,12.188c2.831,0,5-1.942,5-5.245S5.144-1.171,3.046.259.7,2.9.1,6.465,1.734,12.188,4.566,12.188Z" transform="translate(29.527 54.235) rotate(-23.025)" fill="#e3a976"/>
                <path id="primary" d="M16.353,27.068a7,7,0,0,1-1.087.295c-.256-1.231-1.223-2.1-2.744-3.236-1.719-1.29-2.454-.718-3.631-.836-2.322-.232-.378,4.37-1.024,4.98a2.287,2.287,0,0,1-.725-.072c-.365-.2.078-.626-1.913-5.9-.643-1.7,1.652-4.967,1.573-7.283C6.048,12.844,0,4.839,0,4.839S4.76,1.818,7.963,1.22c3.555-.663,6-2.257,8.1-.216.635.616,3.973.853,3.973.853A9.39,9.39,0,0,0,18.154,5.6c-.384,1.855-2.895,7.307-3,8.394,1.342,5.169.475,6.113.05,8.971a7.624,7.624,0,0,0,1.146,4.107Z" transform="translate(11.9 30.355) rotate(-23.025)" fill="#5d48f8"/>
                <path id="Path_364" data-name="Path 364" d="M.02,2.263S-.1,1.18.457,1.866a13.629,13.629,0,0,1,1.8,3.14c.465,1.165.06,1.518.06,1.518a1.438,1.438,0,0,0,1.059-1.37,5.41,5.41,0,0,0-.989-3.173C1.6.548,1.042-.065.451.006S.02,2.263.02,2.263Z" transform="matrix(0.259, -0.966, 0.966, 0.259, 0, 7.889)" fill="#393939"/>
                <path id="Path_133" data-name="Path 133" d="M6.752,3.64l-4.331-1C-.568,2.23.357,2.26.007.6-.125-.028,1.654.283,1.654.283L5.616.013A2.6,2.6,0,0,1,8.059,2.155C8.192,2.782,7.263,3.53,6.752,3.64Z" transform="translate(26.489 47.403) rotate(-175.988)" fill="#e3a976"/>
                <path id="Path_134" data-name="Path 134" d="M5.093.775,3.943.37S2.388-.235,1.876.1-.3-.276.048.238A7.23,7.23,0,0,0,2.343,1.4c.382.029-.68.621-.3.706a10.887,10.887,0,0,0,2.422.175Z" transform="translate(28.536 50.058) rotate(-160.007)" fill="#e3a976"/>
                <path id="Path_407" data-name="Path 407" d="M.454,7.1l2.864-.211c.251,0,.353-.259.353-.51L3.555.832C3.555.581,3.133,0,2.882,0L.454.283A.454.454,0,0,0,0,.737v5.9A.454.454,0,0,0,.454,7.1Z" transform="translate(24.794 43.654) rotate(-12.007)" fill="#fafafa"/>
                <path id="Path_136" data-name="Path 136" d="M10.528,3.087C8.994,4.223,5.749,4.526,5.749,4.526L.681,5.27S-.537,3.769.285,3.6c0,0,7.269-3.465,9.83-3.593S12.063,1.952,10.528,3.087Z" transform="matrix(0.848, -0.53, 0.53, 0.848, 25.257, 40.071)" fill="#e3a976"/>
                <path id="Path_137" data-name="Path 137" d="M5.538,2.022,4.621,3.1s-.887.448-1.074.29.325-.924.325-.924a6.765,6.765,0,0,1-2,.32C.989,2.743.721,2.717.336,2.3s-.506-.634,0-1.2A2.992,2.992,0,0,1,2.365.039,4.669,4.669,0,0,1,4.621.365Z" transform="translate(23.773 45.894) rotate(-42)" fill="#e3a976"/>
              </g>
              <path id="Path_366" data-name="Path 366" d="M57.349,33.9c.756,1.363-7.227,2.158-9.221,7.058-1.546,2.215-1.464.973-1.437,0,.05-1.784,1.646-6.775,3.188-7.879C52.222,31.4,56.593,32.538,57.349,33.9Z" transform="translate(-8.726 -20.88)" fill="#5a2c1f"/>
              <path id="Path_408" data-name="Path 408" d="M0,2.519S.636.687,2.46,2.02s-.555,2.4-.555,2.4S4.423,4.067,4.45,2.946A2.815,2.815,0,0,0,3.49.991S2.1-.067,1.507,0,0,2.519,0,2.519Z" transform="translate(41.062 78.245) rotate(135)" fill="#393939"/>
            </g>
          </g>
        </g>
      </g>
    </g>
  </g>
</svg>
