<svg xmlns="http://www.w3.org/2000/svg" xmlns:xlink="http://www.w3.org/1999/xlink" width="100" height="100" viewBox="0 0 100 100">
  <defs>
    <clipPath id="clip-path">
      <rect id="Rectangle_28" data-name="Rectangle 28" width="100" height="100" transform="translate(387 33)" fill="#fff" stroke="#707070" stroke-width="1"/>
    </clipPath>
    <linearGradient id="linear-gradient" x1="0.5" x2="0.448" y2="1.206" gradientUnits="objectBoundingBox">
      <stop offset="0" stop-color="#fff" stop-opacity="0"/>
      <stop offset="1" stop-color="#fff"/>
    </linearGradient>
    <clipPath id="clip-path-2">
      <rect id="Rectangle_121" data-name="Rectangle 121" width="63.169" height="82.766" fill="#fff" stroke="#707070" stroke-width="0.231"/>
    </clipPath>
  </defs>
  <g id="verify-mobile" transform="translate(-387 -33)" clip-path="url(#clip-path)">
    <g id="Group_5" data-name="Group 5" transform="translate(180.575 -49.592)">
      <g id="Group_4" data-name="Group 4" transform="translate(172.678 56.714)">
        <path id="Path_22" data-name="Path 22" d="M521.179,624.142a3.986,3.986,0,0,1,1.564-1.7l27.53-16.13a3.116,3.116,0,0,1,2.258-.542,3.037,3.037,0,0,1,1.215.542l-.562,67.282a2.665,2.665,0,0,1-.269,1.266,4.465,4.465,0,0,1-.99,1.153l-29.141,17.337a8.463,8.463,0,0,1-1.563-.911c-.642-.507-.522-1.739-.522-1.739l.081-63.8A7.239,7.239,0,0,1,521.179,624.142Z" transform="translate(-484.836 -579.821)" fill="#cdd2d8"/>
        <path id="Path_19" data-name="Path 19" d="M521.179,624.142a3.986,3.986,0,0,1,1.564-1.7l27.53-16.13a3.316,3.316,0,0,1,2.349-.646c1.058.3.8,2.623.8,2.623l-.237,65.3a2.664,2.664,0,0,1-.269,1.266,4.463,4.463,0,0,1-.99,1.153l-29.146,16.682a1.568,1.568,0,0,1-1.563,0c-.641-.507-.517-1.995-.517-1.995l.081-63.8A7.244,7.244,0,0,1,521.179,624.142Z" transform="translate(-483.914 -579.36)" fill="#e1e9f2"/>
        <g id="Group_31" data-name="Group 31">
          <path id="second" d="M522.4,625.225a4.751,4.751,0,0,1,1.712-1.527l25.58-14.715s1.362-.863,1.976-.536.48,1.844.48,1.844v61.53a5.437,5.437,0,0,1-.291,2.056,5.806,5.806,0,0,1-1.742,1.5l-25.844,14.879s-1.505,1.076-2.087.692-.366-2.632-.366-2.632v-60.8A5.217,5.217,0,0,1,522.4,625.225Z" transform="translate(-483.914 -579.36)" fill="#80f1fa"/>
          <path id="gradient-overlay" d="M522.4,625.225a4.751,4.751,0,0,1,1.712-1.527l25.58-14.715s1.362-.863,1.976-.536.48,1.844.48,1.844v61.53a5.437,5.437,0,0,1-.291,2.056,5.806,5.806,0,0,1-1.742,1.5l-25.844,14.879s-1.505,1.076-2.087.692-.366-2.632-.366-2.632v-60.8A5.217,5.217,0,0,1,522.4,625.225Z" transform="translate(-483.914 -579.36)" fill="url(#linear-gradient)"/>
        </g>
        <path id="Path_21" data-name="Path 21" d="M531.446,619.007v1.077s.012.4.237.477.661-.179.661-.179l9.578-5.326a1.552,1.552,0,0,0,.5-.461,1.155,1.155,0,0,0,.125-.605v-1.425Z" transform="translate(-483.914 -579.36)" fill="#e1e9f2"/>
      </g>
      <path id="Path_4" data-name="Path 4" d="M147.27,143.169l10.249,8.29,20.472-24.648" transform="translate(78.744 -27.009)" fill="none" stroke="#5de058" stroke-width="7.608"/>
      <g id="Group_37" data-name="Group 37" transform="translate(241.15 99.826)">
        <g id="Group_35" data-name="Group 35">
          <path id="Path_130" data-name="Path 130" d="M2.134,1.66.169,0,1.429,3.816S-.615,7.719.186,8.272A1.7,1.7,0,0,0,2.33,7.88,7.4,7.4,0,0,0,3.866,6.105a6.008,6.008,0,0,0,.872-1.89,4.749,4.749,0,0,0-.965-1.363A9.106,9.106,0,0,0,2.134,1.66Z" transform="matrix(0.588, 0.809, -0.809, 0.588, 27.588, 71.4)" fill="#e3a976"/>
          <path id="Path_364" data-name="Path 364" d="M.154,4.926s.054,1.266.658.525a5.641,5.641,0,0,0,1.132-2.13A3.386,3.386,0,0,0,1.823,1.37,9.58,9.58,0,0,0,1.192,0,10.775,10.775,0,0,1,2.923.631c.764.358,1.208.378,1.213.761A7.8,7.8,0,0,1,2.893,5.346C2.04,6.894.983,7.305.344,7.229S.154,4.926.154,4.926Z" transform="translate(27.147 73.549) rotate(70)" fill="#393939"/>
          <path id="Path_130-2" data-name="Path 130" d="M2.913,1.729.532,0,2.446,3.638S-.669,5.006.132,5.558a6.409,6.409,0,0,0,1.252.664,1.8,1.8,0,0,0,1.853-.095A6.92,6.92,0,0,0,5.265,3.781s-.058-.217-.715-.86A9.107,9.107,0,0,0,2.913,1.73Z" transform="matrix(0.588, 0.809, -0.809, 0.588, 35.948, 70.499)" fill="#e3a976"/>
          <path id="Path_364-2" data-name="Path 364" d="M1.176,2.5S.888,4.146,1.4,4.049A2.569,2.569,0,0,0,2.76,2.336a6.723,6.723,0,0,0-.053-.968A5.945,5.945,0,0,1,2.481,0,17.761,17.761,0,0,1,4.166.758c.764.358.669.321.673.7.028,1.211-.491,1.008-1.345,2.557A2.517,2.517,0,0,1,.627,5.094a.689.689,0,0,1-.6-.893A5.375,5.375,0,0,1,1.176,2.5Z" transform="translate(35.603 72.107) rotate(70)" fill="#393939"/>
          <g id="Group_34" data-name="Group 34">
            <g id="Group_33" data-name="Group 33">
              <g id="Mask_Group_1" data-name="Mask Group 1" clip-path="url(#clip-path-2)">
                <g id="Group_603" data-name="Group 603" transform="translate(-9.777 0.716)">
                  <g id="Group_604" data-name="Group 604">
                    <g id="Group_146" data-name="Group 146" transform="matrix(0.866, -0.5, 0.5, 0.866, 0, 23.824)">
                      <path id="Path_126" data-name="Path 126" d="M7.267.63A10.642,10.642,0,0,0,3.755,0,8.087,8.087,0,0,0,0,1.2L.749,15.775l4.044,3.235Z" transform="translate(18.441 32.924) rotate(31)" fill="#e3a976"/>
                      <path id="Path_127" data-name="Path 127" d="M4.5,3.32A31.054,31.054,0,0,1,7.01,9.367a35.458,35.458,0,0,1,1.4,6c.1,3.382-2.61,2.211-2.61,2.211l.491-.728S-.515,3.336.031.88C.686-2.064,4.5,3.32,4.5,3.32Z" transform="translate(12.778 44.724) rotate(45.972)" fill="#e3a976"/>
                      <path id="Path_135" data-name="Path 135" d="M11.744.229.792,4.752C.254,5.063-.361,7.841.262,8.394S2.438,8.354,3.1,8.367C4.421,8.4,6.524,5.985,8.485,5.486c1.766-.474,6.517-2.115,6.04-2.94C12.809-1.076,11.744.229,11.744.229Z" transform="translate(31.327 24.875) rotate(-169)" fill="#e3a976"/>
                      <path id="Path_125" data-name="Path 125" d="M13.09.468c-2.854-.99-5.6-.48-9.652,2.187s-.661,7.083-.661,7.083a19.809,19.809,0,0,1,.612,5.078A24.372,24.372,0,0,1,0,26.119s14.857,7.623,15.3.545a16.645,16.645,0,0,0-.113-3.6c-.528-3.5-5-4.248-2.613-12.808C13.4-.237,16.055,1.475,13.09.468Z" transform="matrix(0.891, 0.454, -0.454, 0.891, 29.171, 11.226)" fill="#e3a976"/>
                      <path id="Path_128" data-name="Path 128" d="M8.016,1.651c-.375-4.229-.246,1-2.068,1S0,4.121,0,4.121L3.458,19.133l3.7-.392S8.392,5.88,8.016,1.651Z" transform="translate(25.461 34.516) rotate(31)" fill="#e3a976"/>
                      <path id="Path_129" data-name="Path 129" d="M3.623,1.863C4.759,4.756,4.8,11.286,4.744,14.5c-.017,1.007.366,1.222-.046,1.685s-1.1,2.363-1.734.183S-.652,5.906.13,1.325C.15,1.206,2.136-1.918,3.623,1.863Z" transform="translate(20.321 50.105) rotate(36.011)" fill="#e3a976"/>
                      <path id="Path_361" data-name="Path 361" d="M7.121,0S5.5,1.254,5.342,2.48c0,.011-.445,2.758-.445,2.758L0,4.536S.924,2.49,1.318,1.724A6.26,6.26,0,0,0,1.853.172Z" transform="translate(33.654 11.681) rotate(7)" fill="#e3a976"/>
                      <path id="Path_362" data-name="Path 362" d="M0,2.236l.113.8a5.1,5.1,0,0,0,1.568-.846A19.408,19.408,0,0,1,3.729.972L3.738,0Z" transform="translate(36.676 10.963) rotate(38.016)" opacity="0.089"/>
                      <path id="Path_360" data-name="Path 360" d="M5.014,0c3.059,0,5.4,2.1,5.4,5.668,0,2.784-2.907,6.56-5.33,7.376a1.9,1.9,0,0,1-1.714-.152C1.767,11.8.791,10.714.985,8.657.81,7.971.459,7.189.187,6.185A4.885,4.885,0,0,1,5.014,0Z" transform="matrix(0.766, 0.643, -0.643, 0.766, 39.669, 0)" fill="#e3a976"/>
                      <path id="Path_134" data-name="Path 134" d="M6.089,1.624l-1.374.442s-1.573.933-2.4.212S-.357,2.772.061,2.211A8.346,8.346,0,0,1,2.657.8C3.114.764,1.99.263,2.439.17A14.652,14.652,0,0,1,5.551.025Z" transform="translate(21.385 3.606) rotate(107)" fill="#e3a976"/>
                      <path id="Path_136" data-name="Path 136" d="M11.256,2.253C9.6,1.027,6.092.7,6.092.7L.487,0S-.523,1.575.366,1.759c0,0,7.677,3.686,10.443,3.823S12.914,3.481,11.256,2.253Z" transform="matrix(0.309, 0.951, -0.951, 0.309, 19.628, 8.176)" fill="#e3a976"/>
                    </g>
                  </g>
                </g>
              </g>
            </g>
          </g>
        </g>
        <path id="primary" d="M17.687,1.462a7.568,7.568,0,0,0-1.176-.319c-.277,1.331-.14,2.322-1.785,3.555-1.86,1.395-1.153.569-2.427.7C9.787,5.647,11,.661,10.3,0A11.525,11.525,0,0,0,8.8.707c-.4.215,1.326,1.021-.826,6.725-.526,1.394-.369,3.248-.392,5.236-.006.554-.2,1.217-.224,1.828C6.541,16.845,0,25.5,0,25.5a9.465,9.465,0,0,0,5.532,3.851c3.845.717,9.8,2.341,12.074.134.687-.666,4.068-.76,4.068-.76a10.157,10.157,0,0,1-2.039-4.043c-.415-2.007-3.131-7.9-3.242-9.078,1.452-5.591.514-6.612.054-9.7a8.245,8.245,0,0,1,1.24-4.442Z" transform="translate(16.134 22.265) rotate(-7.004)" fill="#5d48f8"/>
        <g id="Group_36" data-name="Group 36" transform="translate(21.619 3.545)">
          <path id="Path_366" data-name="Path 366" d="M.057,3.063C-.761,4.7,7.445,10.237,9.6,16.111c1.67,2.656,2-3.421,1.974-4.588C11.519,9.385,8.691,2.033,7.025.711,4.494-1.3.874,1.429.057,3.063Z" transform="matrix(0.97, 0.242, -0.242, 0.97, 4.059, 0)" fill="#5a2c1f"/>
          <path id="Path_367" data-name="Path 367" d="M5.21,26.315C1.222,20.67,3.66,14.8,3.808,13,3.961,11.147-1.536,2.293.422,1.044,2.856-.507,5.994-.561,8.972,2.48S14.827,13.526,14.691,19.6s2.781,5.582,3.217,9.726-.109,5.979-1.472,6.847c-2.33,1.487-3.087,1.265-6.3-1.335S9.2,31.96,5.21,26.315Z" transform="matrix(0.994, 0.105, -0.105, 0.994, 4.686, 0.586)" fill="#5a2c1f"/>
        </g>
      </g>
    </g>
  </g>
</svg>
