<svg xmlns="http://www.w3.org/2000/svg" xmlns:xlink="http://www.w3.org/1999/xlink" width="100" height="100" viewBox="0 0 100 100">
  <defs>
    <clipPath id="clip-path">
      <rect id="Rectangle_21" data-name="Rectangle 21" width="100" height="100" transform="translate(225 33)" fill="#fff" stroke="#707070" stroke-width="1"/>
    </clipPath>
    <clipPath id="clip-path-2">
      <rect id="Rectangle_121" data-name="Rectangle 121" width="60.234" height="78.92" fill="#fff" stroke="#707070" stroke-width="0.22"/>
    </clipPath>
  </defs>
  <g id="verify-email" transform="translate(-225 -33)" clip-path="url(#clip-path)">
    <g id="Group_3" data-name="Group 3" transform="translate(159.93 -48.518)">
      <g id="Group_32" data-name="Group 32" transform="translate(8.19 45.725)">
        <path id="primary" d="M335.989,58.181c1.294-1.1,3.238-.226,3.238-.226L373.2,74.315s4.023,1.115,4.256,3.953.517,7.393.517,7.393l1.363,19.5s.628,2.858-1.094,4.231a3.6,3.6,0,0,1-3.759.264L340.471,92.726c-.528-.425-1.827-.667-2.725-2.057a7.334,7.334,0,0,1-.864-3.5l-1.814-25.951A3.443,3.443,0,0,1,335.989,58.181Z" transform="translate(-222.604 -42.557) rotate(4.012)" fill="#e1e9f2"/>
        <path id="highlight" d="M335.989,58.181a2.477,2.477,0,0,1,1.435-.537,5.655,5.655,0,0,1,1.8.311L373.2,74.315a7.962,7.962,0,0,1,3.029,1.675c.579.537,1.439,2.03,1.064,2.22-9.781,2.669-23.407,9.5-23.407,9.5S335.467,58.69,335.989,58.181Z" transform="translate(-222.604 -42.557) rotate(4.012)" fill="#fff"/>
      </g>
      <g id="Group_37" data-name="Group 37" transform="translate(65.07 100.024)">
        <g id="Group_35" data-name="Group 35">
          <path id="Path_130" data-name="Path 130" d="M2.035,6.519.161,8.1l1.2-3.639S-.586.741.177.214A1.624,1.624,0,0,1,2.222.587,7.056,7.056,0,0,1,3.687,2.28a5.728,5.728,0,0,1,.831,1.8,4.529,4.529,0,0,1-.92,1.3A8.683,8.683,0,0,1,2.035,6.518Z" transform="matrix(-0.588, 0.809, -0.809, -0.588, 40.481, 72.846)" fill="#e3a976"/>
          <path id="Path_364" data-name="Path 364" d="M.147,2.2S.2,1,.774,1.7a5.379,5.379,0,0,1,1.08,2.031,3.229,3.229,0,0,1-.115,1.861,9.135,9.135,0,0,1-.6,1.307,10.274,10.274,0,0,0,1.651-.6c.729-.341,1.152-.36,1.157-.725A7.433,7.433,0,0,0,2.759,1.8C1.945.327.938-.065.328.008S.147,2.2.147,2.2Z" transform="translate(40.833 72.492) rotate(110)" fill="#393939"/>
          <path id="Path_130-2" data-name="Path 130" d="M2.778,4.483.507,6.133,2.332,2.664S-.638,1.359.126.833A6.111,6.111,0,0,1,1.319.2,1.717,1.717,0,0,1,3.086.29,6.6,6.6,0,0,1,5.02,2.528s-.055.207-.681.82A8.683,8.683,0,0,1,2.778,4.483Z" transform="matrix(-0.588, 0.809, -0.809, -0.588, 30.918, 70.828)" fill="#e3a976"/>
          <path id="Path_364-2" data-name="Path 364" d="M1.121,2.555S.846.986,1.333,1.079a2.45,2.45,0,0,1,1.3,1.633,6.411,6.411,0,0,1-.051.923,5.669,5.669,0,0,0-.216,1.3,16.936,16.936,0,0,0,1.607-.723c.729-.341.638-.306.642-.67.027-1.155-.468-.961-1.282-2.438A2.4,2.4,0,0,0,.6.083.657.657,0,0,0,.024.934,5.125,5.125,0,0,0,1.121,2.555Z" transform="translate(30.927 70.446) rotate(110)" fill="#393939"/>
          <g id="Group_34" data-name="Group 34">
            <g id="Group_33" data-name="Group 33">
              <g id="Mask_Group_1" data-name="Mask Group 1" clip-path="url(#clip-path-2)">
                <g id="Group_603" data-name="Group 603" transform="translate(-1.755 0.682)">
                  <g id="Group_604" data-name="Group 604">
                    <g id="Group_146" data-name="Group 146" transform="matrix(-0.866, -0.5, 0.5, -0.866, 39.346, 78.082)">
                      <path id="Path_126" data-name="Path 126" d="M6.93,17.526a10.148,10.148,0,0,1-3.349.6A7.714,7.714,0,0,1,0,16.982l.714-13.9L4.57,0Z" transform="translate(8.248 16.998) rotate(-31)" fill="#e3a976"/>
                      <path id="Path_127" data-name="Path 127" d="M4.288,13.78a29.611,29.611,0,0,0,2.4-5.767A33.81,33.81,0,0,0,8.016,2.3C8.11-.929,5.528.187,5.528.187L6,.881S-.491,13.764.03,16.106C.654,18.913,4.288,13.78,4.288,13.78Z" transform="translate(0 9.507) rotate(-45.972)" fill="#e3a976"/>
                      <path id="Path_135" data-name="Path 135" d="M11.2,8.011.755,3.7C.242,3.4-.344.753.25.225S2.324.264,2.955.251C4.215.223,6.221,2.522,8.09,3c1.684.453,6.214,2.016,5.759,2.8C12.214,9.255,11.2,8.011,11.2,8.011Z" transform="translate(31.441 48.289) rotate(169)" fill="#e3a976"/>
                      <path id="Path_125" data-name="Path 125" d="M12.482,27.849c-2.721.944-5.339.458-9.2-2.085s-.63-6.754-.63-6.754a18.889,18.889,0,0,0,.583-4.842A23.239,23.239,0,0,0,0,3.39s14.167-7.269,14.592-.52a15.872,15.872,0,0,1-.107,3.437c-.5,3.334-4.766,4.051-2.492,12.213C12.78,28.522,15.309,26.889,12.482,27.849Z" transform="matrix(0.891, -0.454, 0.454, 0.891, 14.969, 28.014)" fill="#e3a976"/>
                      <path id="Path_128" data-name="Path 128" d="M7.643,16.669c-.358,4.032-.235-.953-1.971-.957A26.391,26.391,0,0,1,0,14.314L3.3,0,6.828.374S8,12.636,7.643,16.669Z" transform="translate(14.882 15.38) rotate(-31)" fill="#e3a976"/>
                      <path id="Path_129" data-name="Path 129" d="M3.454,14.807C4.538,12.049,4.576,5.822,4.524,2.76c-.016-.96.349-1.165-.044-1.607S3.433-1.1,2.826.979-.622,10.952.124,15.319C.143,15.433,2.037,18.412,3.454,14.807Z" transform="translate(9.628 2.741) rotate(-36.011)" fill="#e3a976"/>
                      <path id="Path_361" data-name="Path 361" d="M6.79,4.995S5.247,3.8,5.094,2.63c0-.011-.424-2.63-.424-2.63L0,.67S.882,2.621,1.257,3.352a5.969,5.969,0,0,1,.51,1.48Z" transform="translate(31.481 47.834) rotate(-7)" fill="#e3a976"/>
                      <path id="Path_362" data-name="Path 362" d="M0,.767.108,0A4.868,4.868,0,0,1,1.6.806,18.505,18.505,0,0,0,3.556,1.972l.008.927Z" transform="translate(33.186 51.193) rotate(-38.016)" opacity="0.089"/>
                      <path id="Path_360" data-name="Path 360" d="M4.781,12.567c2.917,0,5.151-2,5.151-5.4C9.932,4.507,7.16.908,4.849.13A1.816,1.816,0,0,0,3.215.275C1.685,1.317.754,2.351.939,4.312c-.167.655-.5,1.4-.761,2.357A4.658,4.658,0,0,0,4.781,12.567Z" transform="matrix(0.766, -0.643, 0.643, 0.766, 29.749, 54.304)" fill="#e3a976"/>
                      <path id="Path_134" data-name="Path 134" d="M5.806.885,4.5.462S3-.428,2.208.26-.341-.209.058.325a7.958,7.958,0,0,0,2.476,1.35c.435.031-.636.508-.209.6a13.972,13.972,0,0,0,2.968.138Z" transform="translate(18.064 61.203) rotate(-107)" fill="#e3a976"/>
                      <path id="Path_136" data-name="Path 136" d="M10.733,3.18C9.152,4.35,5.809,4.662,5.809,4.662L.464,5.329S-.5,3.827.349,3.651c0,0,7.32-3.514,9.958-3.646S12.314,2.011,10.733,3.18Z" transform="matrix(0.309, -0.951, 0.951, 0.309, 13.647, 54.487)" fill="#e3a976"/>
                    </g>
                  </g>
                </g>
              </g>
            </g>
          </g>
        </g>
        <path id="primary-2" data-name="primary" d="M16.865,27.788a7.217,7.217,0,0,1-1.122.3c-.264-1.269-.134-2.214-1.7-3.39-1.773-1.33-1.1-.542-2.314-.664-2.395-.24-1.243,4.515-1.909,5.144a10.989,10.989,0,0,1-1.43-.675c-.376-.2,1.266-.973-.787-6.412-.5-1.329-.352-3.1-.374-4.993-.006-.528-.194-1.161-.214-1.743C6.237,13.12,0,4.864,0,4.864A9.024,9.024,0,0,1,5.274,1.193C8.941.509,14.616-1.04,16.787,1.065c.655.635,3.879.724,3.879.724a9.685,9.685,0,0,0-1.944,3.855c-.4,1.913-2.985,7.536-3.092,8.656,1.384,5.331.49,6.3.051,9.252a7.862,7.862,0,0,0,1.182,4.236Z" transform="translate(41.293 50.182) rotate(-172.996)" fill="#5d48f8"/>
        <g id="Group_36" data-name="Group 36" transform="translate(18.03 3.381)">
          <path id="Path_366" data-name="Path 366" d="M.054,13.077C-.725,11.519,7.1,6.235,9.153.634,10.746-1.9,11.064,3.9,11.035,5.009c-.051,2.039-2.748,9.049-4.337,10.31C4.285,17.237.833,14.634.054,13.077Z" transform="matrix(-0.97, 0.242, -0.242, -0.97, 21.59, 15.522)" fill="#5a2c1f"/>
          <path id="Path_367" data-name="Path 367" d="M4.968,10.282c-3.8,5.383-1.478,10.976-1.337,12.693.146,1.77-5.1,10.213-3.229,11.4,2.321,1.48,5.313,1.531,8.153-1.368s5.582-10.533,5.453-16.328,2.651-5.323,3.067-9.274-.1-5.7-1.4-6.529C13.451-.54,12.728-.328,9.664,2.152S8.771,4.9,4.968,10.282Z" transform="matrix(-0.994, 0.105, -0.105, -0.994, 20.834, 35.738)" fill="#5a2c1f"/>
        </g>
      </g>
      <path id="Path_1" data-name="Path 1" d="M142.453,134.145l9.891,9.363,23.581-22.59" transform="translate(-20.102 -2.198)" fill="none" stroke="#5de058" stroke-width="7.254"/>
    </g>
  </g>
</svg>
